<?xml version="1.0" encoding="utf-8"?>
<!-- Generator: Adobe Illustrator 19.0.0, SVG Export Plug-In . SVG Version: 6.00 Build 0)  -->
<svg version="1.1" id="圖層_1" xmlns="http://www.w3.org/2000/svg" xmlns:xlink="http://www.w3.org/1999/xlink" x="0px" y="0px"
	 viewBox="-377 261.1 85.5 74.2" style="enable-background:new -377 261.1 85.5 74.2;" xml:space="preserve">
<style type="text/css">
	.st0{fill:#0080CF;}
	.st1{fill:#FFFFFF;stroke:#0080CF;stroke-width:1.9755;stroke-miterlimit:10;}
	.st2{fill:#FB6210;}
	.st3{fill:#FFFFFF;stroke:#0080CF;stroke-width:1.1465;stroke-miterlimit:10;}
	.st4{fill:none;stroke:#0080CF;stroke-width:1.1465;stroke-miterlimit:10;}
</style>
<g id="XMLID_57_">
	<g id="XMLID_49385_">
		<g id="XMLID_49390_">
			<circle id="XMLID_49903_" class="st0" cx="-374.2" cy="313.7" r="0.4"/>
			<circle id="XMLID_49902_" class="st0" cx="-376.6" cy="313.7" r="0.4"/>
			<circle id="XMLID_49901_" class="st0" cx="-374.2" cy="311.5" r="0.4"/>
			<circle id="XMLID_49900_" class="st0" cx="-376.6" cy="311.5" r="0.4"/>
			<circle id="XMLID_49899_" class="st0" cx="-374.2" cy="309.2" r="0.4"/>
			<circle id="XMLID_49898_" class="st0" cx="-376.6" cy="309.2" r="0.4"/>
			<circle id="XMLID_49897_" class="st0" cx="-374.2" cy="306.9" r="0.4"/>
			<circle id="XMLID_49896_" class="st0" cx="-376.6" cy="306.9" r="0.4"/>
			<circle id="XMLID_49895_" class="st0" cx="-374.2" cy="304.6" r="0.4"/>
			<circle id="XMLID_49894_" class="st0" cx="-376.6" cy="304.6" r="0.4"/>
			<circle id="XMLID_49893_" class="st0" cx="-374.2" cy="302.3" r="0.4"/>
			<circle id="XMLID_49892_" class="st0" cx="-376.6" cy="302.3" r="0.4"/>
			<circle id="XMLID_49891_" class="st0" cx="-374.2" cy="300.1" r="0.4"/>
			<circle id="XMLID_49890_" class="st0" cx="-376.6" cy="300.1" r="0.4"/>
			<circle id="XMLID_49889_" class="st0" cx="-374.2" cy="297.8" r="0.4"/>
			<circle id="XMLID_49888_" class="st0" cx="-376.6" cy="297.8" r="0.4"/>
			<circle id="XMLID_49887_" class="st0" cx="-374.2" cy="295.5" r="0.4"/>
			<circle id="XMLID_49886_" class="st0" cx="-376.6" cy="295.5" r="0.4"/>
			<circle id="XMLID_49885_" class="st0" cx="-374.2" cy="293.2" r="0.4"/>
			<circle id="XMLID_49884_" class="st0" cx="-376.6" cy="293.2" r="0.4"/>
			<circle id="XMLID_49883_" class="st0" cx="-374.2" cy="290.9" r="0.4"/>
			<circle id="XMLID_49882_" class="st0" cx="-376.6" cy="290.9" r="0.4"/>
			<circle id="XMLID_49881_" class="st0" cx="-374.2" cy="288.7" r="0.4"/>
			<circle id="XMLID_49880_" class="st0" cx="-376.6" cy="288.7" r="0.4"/>
			<circle id="XMLID_49879_" class="st0" cx="-374.2" cy="286.4" r="0.4"/>
			<circle id="XMLID_49878_" class="st0" cx="-376.6" cy="286.4" r="0.4"/>
			<circle id="XMLID_49877_" class="st0" cx="-374.2" cy="284.1" r="0.4"/>
			<path id="XMLID_49876_" class="st0" d="M-377,284.1c0-0.2,0.2-0.4,0.4-0.4c0.2,0,0.4,0.2,0.4,0.4s-0.2,0.4-0.4,0.4
				C-376.8,284.5-377,284.3-377,284.1z"/>
			<circle id="XMLID_49875_" class="st0" cx="-374.2" cy="281.8" r="0.4"/>
			<circle id="XMLID_49874_" class="st0" cx="-376.6" cy="281.8" r="0.4"/>
			<circle id="XMLID_49873_" class="st0" cx="-374.2" cy="279.6" r="0.4"/>
			<circle id="XMLID_49872_" class="st0" cx="-376.6" cy="279.6" r="0.4"/>
			<circle id="XMLID_49871_" class="st0" cx="-374.2" cy="277.3" r="0.4"/>
			<circle id="XMLID_49870_" class="st0" cx="-376.6" cy="277.3" r="0.4"/>
			<circle id="XMLID_49869_" class="st0" cx="-374.2" cy="275" r="0.4"/>
			<circle id="XMLID_49868_" class="st0" cx="-376.6" cy="275" r="0.4"/>
			<circle id="XMLID_49867_" class="st0" cx="-374.2" cy="272.7" r="0.4"/>
			<circle id="XMLID_49866_" class="st0" cx="-376.6" cy="272.7" r="0.4"/>
			<circle id="XMLID_49865_" class="st0" cx="-349.8" cy="313.7" r="0.4"/>
			<circle id="XMLID_49864_" class="st0" cx="-352.2" cy="313.7" r="0.4"/>
			<circle id="XMLID_49863_" class="st0" cx="-354.6" cy="313.7" r="0.4"/>
			<circle id="XMLID_49862_" class="st0" cx="-357.1" cy="313.7" r="0.4"/>
			<circle id="XMLID_49861_" class="st0" cx="-359.5" cy="313.7" r="0.4"/>
			<circle id="XMLID_49860_" class="st0" cx="-362" cy="313.7" r="0.4"/>
			<circle id="XMLID_49859_" class="st0" cx="-364.4" cy="313.7" r="0.4"/>
			<circle id="XMLID_49858_" class="st0" cx="-366.9" cy="313.7" r="0.4"/>
			<circle id="XMLID_49857_" class="st0" cx="-369.3" cy="313.7" r="0.4"/>
			<circle id="XMLID_49856_" class="st0" cx="-371.7" cy="313.7" r="0.4"/>
			<circle id="XMLID_49855_" class="st0" cx="-349.8" cy="311.5" r="0.4"/>
			<circle id="XMLID_49854_" class="st0" cx="-352.2" cy="311.5" r="0.4"/>
			<circle id="XMLID_49853_" class="st0" cx="-354.6" cy="311.5" r="0.4"/>
			<circle id="XMLID_49852_" class="st0" cx="-357.1" cy="311.5" r="0.4"/>
			<circle id="XMLID_49851_" class="st0" cx="-359.5" cy="311.5" r="0.4"/>
			<circle id="XMLID_49850_" class="st0" cx="-362" cy="311.5" r="0.4"/>
			<circle id="XMLID_49849_" class="st0" cx="-364.4" cy="311.5" r="0.4"/>
			<circle id="XMLID_49848_" class="st0" cx="-366.9" cy="311.5" r="0.4"/>
			<circle id="XMLID_49847_" class="st0" cx="-369.3" cy="311.5" r="0.4"/>
			<circle id="XMLID_49846_" class="st0" cx="-371.7" cy="311.5" r="0.4"/>
			<circle id="XMLID_49845_" class="st0" cx="-349.8" cy="309.2" r="0.4"/>
			<circle id="XMLID_49844_" class="st0" cx="-352.2" cy="309.2" r="0.4"/>
			<circle id="XMLID_49843_" class="st0" cx="-354.6" cy="309.2" r="0.4"/>
			<circle id="XMLID_49842_" class="st0" cx="-357.1" cy="309.2" r="0.4"/>
			<circle id="XMLID_49841_" class="st0" cx="-359.5" cy="309.2" r="0.4"/>
			<circle id="XMLID_49840_" class="st0" cx="-362" cy="309.2" r="0.4"/>
			<circle id="XMLID_49839_" class="st0" cx="-364.4" cy="309.2" r="0.4"/>
			<circle id="XMLID_49838_" class="st0" cx="-366.9" cy="309.2" r="0.4"/>
			<circle id="XMLID_49837_" class="st0" cx="-369.3" cy="309.2" r="0.4"/>
			<circle id="XMLID_49836_" class="st0" cx="-371.7" cy="309.2" r="0.4"/>
			<circle id="XMLID_49835_" class="st0" cx="-349.8" cy="306.9" r="0.4"/>
			<circle id="XMLID_49834_" class="st0" cx="-352.2" cy="306.9" r="0.4"/>
			<circle id="XMLID_49833_" class="st0" cx="-354.6" cy="306.9" r="0.4"/>
			<circle id="XMLID_49832_" class="st0" cx="-357.1" cy="306.9" r="0.4"/>
			<circle id="XMLID_49831_" class="st0" cx="-359.5" cy="306.9" r="0.4"/>
			<circle id="XMLID_49830_" class="st0" cx="-362" cy="306.9" r="0.4"/>
			<circle id="XMLID_49829_" class="st0" cx="-364.4" cy="306.9" r="0.4"/>
			<circle id="XMLID_49828_" class="st0" cx="-366.9" cy="306.9" r="0.4"/>
			<circle id="XMLID_49827_" class="st0" cx="-369.3" cy="306.9" r="0.4"/>
			<circle id="XMLID_49826_" class="st0" cx="-371.7" cy="306.9" r="0.4"/>
			<circle id="XMLID_49825_" class="st0" cx="-349.8" cy="304.6" r="0.4"/>
			<circle id="XMLID_49824_" class="st0" cx="-352.2" cy="304.6" r="0.4"/>
			<circle id="XMLID_49823_" class="st0" cx="-354.6" cy="304.6" r="0.4"/>
			<circle id="XMLID_49822_" class="st0" cx="-357.1" cy="304.6" r="0.4"/>
			<circle id="XMLID_49821_" class="st0" cx="-359.5" cy="304.6" r="0.4"/>
			<circle id="XMLID_49820_" class="st0" cx="-362" cy="304.6" r="0.4"/>
			<circle id="XMLID_49819_" class="st0" cx="-364.4" cy="304.6" r="0.4"/>
			<circle id="XMLID_49818_" class="st0" cx="-366.9" cy="304.6" r="0.4"/>
			<circle id="XMLID_49817_" class="st0" cx="-369.3" cy="304.6" r="0.4"/>
			<circle id="XMLID_49816_" class="st0" cx="-371.7" cy="304.6" r="0.4"/>
			<circle id="XMLID_49815_" class="st0" cx="-349.8" cy="302.3" r="0.4"/>
			<circle id="XMLID_49814_" class="st0" cx="-352.2" cy="302.3" r="0.4"/>
			<circle id="XMLID_49813_" class="st0" cx="-354.6" cy="302.3" r="0.4"/>
			<circle id="XMLID_49812_" class="st0" cx="-357.1" cy="302.3" r="0.4"/>
			<circle id="XMLID_49811_" class="st0" cx="-359.5" cy="302.3" r="0.4"/>
			<circle id="XMLID_49810_" class="st0" cx="-362" cy="302.3" r="0.4"/>
			<circle id="XMLID_49809_" class="st0" cx="-364.4" cy="302.3" r="0.4"/>
			<circle id="XMLID_49808_" class="st0" cx="-366.9" cy="302.3" r="0.4"/>
			<circle id="XMLID_49807_" class="st0" cx="-369.3" cy="302.3" r="0.4"/>
			<circle id="XMLID_49806_" class="st0" cx="-371.7" cy="302.3" r="0.4"/>
			<circle id="XMLID_49805_" class="st0" cx="-349.8" cy="300.1" r="0.4"/>
			<circle id="XMLID_49804_" class="st0" cx="-352.2" cy="300.1" r="0.4"/>
			<circle id="XMLID_49803_" class="st0" cx="-354.6" cy="300.1" r="0.4"/>
			<circle id="XMLID_49802_" class="st0" cx="-357.1" cy="300.1" r="0.4"/>
			<circle id="XMLID_49801_" class="st0" cx="-359.5" cy="300.1" r="0.4"/>
			<circle id="XMLID_49800_" class="st0" cx="-362" cy="300.1" r="0.4"/>
			<circle id="XMLID_49799_" class="st0" cx="-364.4" cy="300.1" r="0.4"/>
			<circle id="XMLID_49798_" class="st0" cx="-366.9" cy="300.1" r="0.4"/>
			<circle id="XMLID_49797_" class="st0" cx="-369.3" cy="300.1" r="0.4"/>
			<circle id="XMLID_49796_" class="st0" cx="-371.7" cy="300.1" r="0.4"/>
			<circle id="XMLID_49795_" class="st0" cx="-349.8" cy="297.8" r="0.4"/>
			<circle id="XMLID_49794_" class="st0" cx="-352.2" cy="297.8" r="0.4"/>
			<circle id="XMLID_49793_" class="st0" cx="-354.6" cy="297.8" r="0.4"/>
			<circle id="XMLID_49792_" class="st0" cx="-357.1" cy="297.8" r="0.4"/>
			<circle id="XMLID_49791_" class="st0" cx="-359.5" cy="297.8" r="0.4"/>
			<circle id="XMLID_49790_" class="st0" cx="-362" cy="297.8" r="0.4"/>
			<circle id="XMLID_49789_" class="st0" cx="-364.4" cy="297.8" r="0.4"/>
			<circle id="XMLID_49788_" class="st0" cx="-366.9" cy="297.8" r="0.4"/>
			<circle id="XMLID_49787_" class="st0" cx="-369.3" cy="297.8" r="0.4"/>
			<circle id="XMLID_49786_" class="st0" cx="-371.7" cy="297.8" r="0.4"/>
			<circle id="XMLID_49785_" class="st0" cx="-349.8" cy="295.5" r="0.4"/>
			<circle id="XMLID_49784_" class="st0" cx="-352.2" cy="295.5" r="0.4"/>
			<circle id="XMLID_49783_" class="st0" cx="-354.6" cy="295.5" r="0.4"/>
			<circle id="XMLID_49782_" class="st0" cx="-357.1" cy="295.5" r="0.4"/>
			<circle id="XMLID_49781_" class="st0" cx="-359.5" cy="295.5" r="0.4"/>
			<circle id="XMLID_49780_" class="st0" cx="-362" cy="295.5" r="0.4"/>
			<circle id="XMLID_49779_" class="st0" cx="-364.4" cy="295.5" r="0.4"/>
			<circle id="XMLID_49778_" class="st0" cx="-366.9" cy="295.5" r="0.4"/>
			<circle id="XMLID_49777_" class="st0" cx="-369.3" cy="295.5" r="0.4"/>
			<circle id="XMLID_49776_" class="st0" cx="-371.7" cy="295.5" r="0.4"/>
			<circle id="XMLID_49775_" class="st0" cx="-349.8" cy="293.2" r="0.4"/>
			<circle id="XMLID_49774_" class="st0" cx="-352.2" cy="293.2" r="0.4"/>
			<circle id="XMLID_49773_" class="st0" cx="-354.6" cy="293.2" r="0.4"/>
			<circle id="XMLID_49772_" class="st0" cx="-357.1" cy="293.2" r="0.4"/>
			<circle id="XMLID_49771_" class="st0" cx="-359.5" cy="293.2" r="0.4"/>
			<circle id="XMLID_49770_" class="st0" cx="-362" cy="293.2" r="0.4"/>
			<circle id="XMLID_49769_" class="st0" cx="-364.4" cy="293.2" r="0.4"/>
			<circle id="XMLID_49768_" class="st0" cx="-366.9" cy="293.2" r="0.4"/>
			<circle id="XMLID_49767_" class="st0" cx="-369.3" cy="293.2" r="0.4"/>
			<circle id="XMLID_49766_" class="st0" cx="-371.7" cy="293.2" r="0.4"/>
			<circle id="XMLID_49765_" class="st0" cx="-349.8" cy="290.9" r="0.4"/>
			<circle id="XMLID_49764_" class="st0" cx="-352.2" cy="290.9" r="0.4"/>
			<circle id="XMLID_49763_" class="st0" cx="-354.6" cy="290.9" r="0.4"/>
			<circle id="XMLID_49762_" class="st0" cx="-357.1" cy="290.9" r="0.4"/>
			<circle id="XMLID_49761_" class="st0" cx="-359.5" cy="290.9" r="0.4"/>
			<circle id="XMLID_49760_" class="st0" cx="-362" cy="290.9" r="0.4"/>
			<circle id="XMLID_49759_" class="st0" cx="-364.4" cy="290.9" r="0.4"/>
			<circle id="XMLID_49758_" class="st0" cx="-366.9" cy="290.9" r="0.4"/>
			<circle id="XMLID_49757_" class="st0" cx="-369.3" cy="290.9" r="0.4"/>
			<circle id="XMLID_49756_" class="st0" cx="-371.7" cy="290.9" r="0.4"/>
			<circle id="XMLID_49755_" class="st0" cx="-349.8" cy="288.7" r="0.4"/>
			<circle id="XMLID_49754_" class="st0" cx="-352.2" cy="288.7" r="0.4"/>
			<circle id="XMLID_49753_" class="st0" cx="-354.6" cy="288.7" r="0.4"/>
			<circle id="XMLID_49752_" class="st0" cx="-357.1" cy="288.7" r="0.4"/>
			<circle id="XMLID_49751_" class="st0" cx="-359.5" cy="288.7" r="0.4"/>
			<circle id="XMLID_49750_" class="st0" cx="-362" cy="288.7" r="0.4"/>
			<circle id="XMLID_49749_" class="st0" cx="-364.4" cy="288.7" r="0.4"/>
			<circle id="XMLID_49748_" class="st0" cx="-366.9" cy="288.7" r="0.4"/>
			<circle id="XMLID_49747_" class="st0" cx="-369.3" cy="288.7" r="0.4"/>
			<circle id="XMLID_49746_" class="st0" cx="-371.7" cy="288.7" r="0.4"/>
			<circle id="XMLID_49745_" class="st0" cx="-349.8" cy="286.4" r="0.4"/>
			<circle id="XMLID_49744_" class="st0" cx="-352.2" cy="286.4" r="0.4"/>
			<circle id="XMLID_49743_" class="st0" cx="-354.6" cy="286.4" r="0.4"/>
			<circle id="XMLID_49742_" class="st0" cx="-357.1" cy="286.4" r="0.4"/>
			<circle id="XMLID_49741_" class="st0" cx="-359.5" cy="286.4" r="0.4"/>
			<circle id="XMLID_49740_" class="st0" cx="-362" cy="286.4" r="0.4"/>
			<circle id="XMLID_49739_" class="st0" cx="-364.4" cy="286.4" r="0.4"/>
			<circle id="XMLID_49738_" class="st0" cx="-366.9" cy="286.4" r="0.4"/>
			<circle id="XMLID_49737_" class="st0" cx="-369.3" cy="286.4" r="0.4"/>
			<circle id="XMLID_49736_" class="st0" cx="-371.7" cy="286.4" r="0.4"/>
			<circle id="XMLID_49735_" class="st0" cx="-349.8" cy="284.1" r="0.4"/>
			<circle id="XMLID_49734_" class="st0" cx="-352.2" cy="284.1" r="0.4"/>
			<circle id="XMLID_49733_" class="st0" cx="-354.6" cy="284.1" r="0.4"/>
			<circle id="XMLID_49732_" class="st0" cx="-357.1" cy="284.1" r="0.4"/>
			<circle id="XMLID_49731_" class="st0" cx="-359.5" cy="284.1" r="0.4"/>
			<circle id="XMLID_49730_" class="st0" cx="-362" cy="284.1" r="0.4"/>
			<circle id="XMLID_49729_" class="st0" cx="-364.4" cy="284.1" r="0.4"/>
			<circle id="XMLID_49728_" class="st0" cx="-366.9" cy="284.1" r="0.4"/>
			<circle id="XMLID_49727_" class="st0" cx="-369.3" cy="284.1" r="0.4"/>
			<circle id="XMLID_49726_" class="st0" cx="-371.7" cy="284.1" r="0.4"/>
			<circle id="XMLID_49725_" class="st0" cx="-349.8" cy="281.8" r="0.4"/>
			<circle id="XMLID_49724_" class="st0" cx="-352.2" cy="281.8" r="0.4"/>
			<circle id="XMLID_49723_" class="st0" cx="-354.6" cy="281.8" r="0.4"/>
			<circle id="XMLID_49722_" class="st0" cx="-357.1" cy="281.8" r="0.4"/>
			<circle id="XMLID_49721_" class="st0" cx="-359.5" cy="281.8" r="0.4"/>
			<circle id="XMLID_49720_" class="st0" cx="-362" cy="281.8" r="0.4"/>
			<circle id="XMLID_49719_" class="st0" cx="-364.4" cy="281.8" r="0.4"/>
			<circle id="XMLID_49718_" class="st0" cx="-366.9" cy="281.8" r="0.4"/>
			<circle id="XMLID_49717_" class="st0" cx="-369.3" cy="281.8" r="0.4"/>
			<circle id="XMLID_49716_" class="st0" cx="-371.7" cy="281.8" r="0.4"/>
			<circle id="XMLID_49715_" class="st0" cx="-349.8" cy="279.6" r="0.4"/>
			<circle id="XMLID_49714_" class="st0" cx="-352.2" cy="279.6" r="0.4"/>
			<circle id="XMLID_49713_" class="st0" cx="-354.6" cy="279.6" r="0.4"/>
			<circle id="XMLID_49712_" class="st0" cx="-357.1" cy="279.6" r="0.4"/>
			<circle id="XMLID_49711_" class="st0" cx="-359.5" cy="279.6" r="0.4"/>
			<circle id="XMLID_49710_" class="st0" cx="-362" cy="279.6" r="0.4"/>
			<circle id="XMLID_49709_" class="st0" cx="-364.4" cy="279.6" r="0.4"/>
			<circle id="XMLID_49708_" class="st0" cx="-366.9" cy="279.6" r="0.4"/>
			<circle id="XMLID_49707_" class="st0" cx="-369.3" cy="279.6" r="0.4"/>
			<circle id="XMLID_49706_" class="st0" cx="-371.7" cy="279.6" r="0.4"/>
			<circle id="XMLID_49705_" class="st0" cx="-349.8" cy="277.3" r="0.4"/>
			<circle id="XMLID_49704_" class="st0" cx="-352.2" cy="277.3" r="0.4"/>
			<circle id="XMLID_49703_" class="st0" cx="-354.6" cy="277.3" r="0.4"/>
			<circle id="XMLID_49702_" class="st0" cx="-357.1" cy="277.3" r="0.4"/>
			<circle id="XMLID_49701_" class="st0" cx="-359.5" cy="277.3" r="0.4"/>
			<circle id="XMLID_49700_" class="st0" cx="-362" cy="277.3" r="0.4"/>
			<circle id="XMLID_49699_" class="st0" cx="-364.4" cy="277.3" r="0.4"/>
			<circle id="XMLID_49698_" class="st0" cx="-366.9" cy="277.3" r="0.4"/>
			<circle id="XMLID_49697_" class="st0" cx="-369.3" cy="277.3" r="0.4"/>
			<circle id="XMLID_49696_" class="st0" cx="-371.7" cy="277.3" r="0.4"/>
			<circle id="XMLID_49695_" class="st0" cx="-349.8" cy="275" r="0.4"/>
			<circle id="XMLID_49694_" class="st0" cx="-352.2" cy="275" r="0.4"/>
			<circle id="XMLID_49693_" class="st0" cx="-354.6" cy="275" r="0.4"/>
			<circle id="XMLID_49692_" class="st0" cx="-357.1" cy="275" r="0.4"/>
			<circle id="XMLID_49691_" class="st0" cx="-359.5" cy="275" r="0.4"/>
			<circle id="XMLID_49690_" class="st0" cx="-362" cy="275" r="0.4"/>
			<circle id="XMLID_49689_" class="st0" cx="-364.4" cy="275" r="0.4"/>
			<circle id="XMLID_49688_" class="st0" cx="-366.9" cy="275" r="0.4"/>
			<circle id="XMLID_49687_" class="st0" cx="-369.3" cy="275" r="0.4"/>
			<circle id="XMLID_49686_" class="st0" cx="-371.7" cy="275" r="0.4"/>
			<circle id="XMLID_49685_" class="st0" cx="-349.8" cy="272.7" r="0.4"/>
			<circle id="XMLID_49684_" class="st0" cx="-352.2" cy="272.7" r="0.4"/>
			<circle id="XMLID_49683_" class="st0" cx="-354.6" cy="272.7" r="0.4"/>
			<circle id="XMLID_49682_" class="st0" cx="-357.1" cy="272.7" r="0.4"/>
			<circle id="XMLID_49681_" class="st0" cx="-359.5" cy="272.7" r="0.4"/>
			<circle id="XMLID_49680_" class="st0" cx="-362" cy="272.7" r="0.4"/>
			<circle id="XMLID_49679_" class="st0" cx="-364.4" cy="272.7" r="0.4"/>
			<circle id="XMLID_49678_" class="st0" cx="-366.9" cy="272.7" r="0.4"/>
			<circle id="XMLID_49677_" class="st0" cx="-369.3" cy="272.7" r="0.4"/>
			<circle id="XMLID_49676_" class="st0" cx="-371.7" cy="272.7" r="0.4"/>
			<circle id="XMLID_49675_" class="st0" cx="-325.3" cy="313.7" r="0.4"/>
			<circle id="XMLID_49674_" class="st0" cx="-327.8" cy="313.7" r="0.4"/>
			<circle id="XMLID_49673_" class="st0" cx="-330.2" cy="313.7" r="0.4"/>
			<circle id="XMLID_49672_" class="st0" cx="-332.7" cy="313.7" r="0.4"/>
			<circle id="XMLID_49671_" class="st0" cx="-335.1" cy="313.7" r="0.4"/>
			<circle id="XMLID_49670_" class="st0" cx="-337.6" cy="313.7" r="0.4"/>
			<circle id="XMLID_49669_" class="st0" cx="-340" cy="313.7" r="0.4"/>
			<circle id="XMLID_49668_" class="st0" cx="-342.4" cy="313.7" r="0.4"/>
			<circle id="XMLID_49667_" class="st0" cx="-344.9" cy="313.7" r="0.4"/>
			<circle id="XMLID_49666_" class="st0" cx="-347.3" cy="313.7" r="0.4"/>
			<circle id="XMLID_49665_" class="st0" cx="-325.3" cy="311.5" r="0.4"/>
			<circle id="XMLID_49664_" class="st0" cx="-327.8" cy="311.5" r="0.4"/>
			<circle id="XMLID_49663_" class="st0" cx="-330.2" cy="311.5" r="0.4"/>
			<circle id="XMLID_49662_" class="st0" cx="-332.7" cy="311.5" r="0.4"/>
			<circle id="XMLID_49661_" class="st0" cx="-335.1" cy="311.5" r="0.4"/>
			<circle id="XMLID_49660_" class="st0" cx="-337.6" cy="311.5" r="0.4"/>
			<circle id="XMLID_49659_" class="st0" cx="-340" cy="311.5" r="0.4"/>
			<circle id="XMLID_49658_" class="st0" cx="-342.4" cy="311.5" r="0.4"/>
			<circle id="XMLID_49657_" class="st0" cx="-344.9" cy="311.5" r="0.4"/>
			<circle id="XMLID_49656_" class="st0" cx="-347.3" cy="311.5" r="0.4"/>
			<circle id="XMLID_49655_" class="st0" cx="-325.3" cy="309.2" r="0.4"/>
			<circle id="XMLID_49654_" class="st0" cx="-327.8" cy="309.2" r="0.4"/>
			<circle id="XMLID_49653_" class="st0" cx="-330.2" cy="309.2" r="0.4"/>
			<circle id="XMLID_49652_" class="st0" cx="-332.7" cy="309.2" r="0.4"/>
			<circle id="XMLID_49651_" class="st0" cx="-335.1" cy="309.2" r="0.4"/>
			<circle id="XMLID_49650_" class="st0" cx="-337.6" cy="309.2" r="0.4"/>
			<circle id="XMLID_49649_" class="st0" cx="-340" cy="309.2" r="0.4"/>
			<circle id="XMLID_49648_" class="st0" cx="-342.4" cy="309.2" r="0.4"/>
			<circle id="XMLID_49647_" class="st0" cx="-344.9" cy="309.2" r="0.4"/>
			<circle id="XMLID_49646_" class="st0" cx="-347.3" cy="309.2" r="0.4"/>
			<circle id="XMLID_49645_" class="st0" cx="-325.3" cy="306.9" r="0.4"/>
			<circle id="XMLID_49644_" class="st0" cx="-327.8" cy="306.9" r="0.4"/>
			<circle id="XMLID_49643_" class="st0" cx="-330.2" cy="306.9" r="0.4"/>
			<circle id="XMLID_49642_" class="st0" cx="-332.7" cy="306.9" r="0.4"/>
			<circle id="XMLID_49641_" class="st0" cx="-335.1" cy="306.9" r="0.4"/>
			<circle id="XMLID_49640_" class="st0" cx="-337.6" cy="306.9" r="0.4"/>
			<circle id="XMLID_49639_" class="st0" cx="-340" cy="306.9" r="0.4"/>
			<circle id="XMLID_49638_" class="st0" cx="-342.4" cy="306.9" r="0.4"/>
			<circle id="XMLID_49637_" class="st0" cx="-344.9" cy="306.9" r="0.4"/>
			<circle id="XMLID_49636_" class="st0" cx="-347.3" cy="306.9" r="0.4"/>
			<circle id="XMLID_49635_" class="st0" cx="-325.3" cy="304.6" r="0.4"/>
			<circle id="XMLID_49634_" class="st0" cx="-327.8" cy="304.6" r="0.4"/>
			<circle id="XMLID_49633_" class="st0" cx="-330.2" cy="304.6" r="0.4"/>
			<circle id="XMLID_49632_" class="st0" cx="-332.7" cy="304.6" r="0.4"/>
			<circle id="XMLID_49631_" class="st0" cx="-335.1" cy="304.6" r="0.4"/>
			<circle id="XMLID_49630_" class="st0" cx="-337.6" cy="304.6" r="0.4"/>
			<circle id="XMLID_49629_" class="st0" cx="-340" cy="304.6" r="0.4"/>
			<circle id="XMLID_49628_" class="st0" cx="-342.4" cy="304.6" r="0.4"/>
			<circle id="XMLID_49627_" class="st0" cx="-344.9" cy="304.6" r="0.4"/>
			<circle id="XMLID_49626_" class="st0" cx="-347.3" cy="304.6" r="0.4"/>
			<circle id="XMLID_49625_" class="st0" cx="-325.3" cy="302.3" r="0.4"/>
			<circle id="XMLID_49624_" class="st0" cx="-327.8" cy="302.3" r="0.4"/>
			<circle id="XMLID_49623_" class="st0" cx="-330.2" cy="302.3" r="0.4"/>
			<circle id="XMLID_49622_" class="st0" cx="-332.7" cy="302.3" r="0.4"/>
			<circle id="XMLID_49621_" class="st0" cx="-335.1" cy="302.3" r="0.4"/>
			<circle id="XMLID_49620_" class="st0" cx="-337.6" cy="302.3" r="0.4"/>
			<circle id="XMLID_49619_" class="st0" cx="-340" cy="302.3" r="0.4"/>
			<circle id="XMLID_49618_" class="st0" cx="-342.4" cy="302.3" r="0.4"/>
			<circle id="XMLID_49617_" class="st0" cx="-344.9" cy="302.3" r="0.4"/>
			<circle id="XMLID_49616_" class="st0" cx="-347.3" cy="302.3" r="0.4"/>
			<circle id="XMLID_49615_" class="st0" cx="-325.3" cy="300.1" r="0.4"/>
			<circle id="XMLID_49614_" class="st0" cx="-327.8" cy="300.1" r="0.4"/>
			<circle id="XMLID_49613_" class="st0" cx="-330.2" cy="300.1" r="0.4"/>
			<circle id="XMLID_49612_" class="st0" cx="-332.7" cy="300.1" r="0.4"/>
			<circle id="XMLID_49611_" class="st0" cx="-335.1" cy="300.1" r="0.4"/>
			<circle id="XMLID_49610_" class="st0" cx="-337.6" cy="300.1" r="0.4"/>
			<circle id="XMLID_49609_" class="st0" cx="-340" cy="300.1" r="0.4"/>
			<circle id="XMLID_49608_" class="st0" cx="-342.4" cy="300.1" r="0.4"/>
			<circle id="XMLID_49607_" class="st0" cx="-344.9" cy="300.1" r="0.4"/>
			<circle id="XMLID_49606_" class="st0" cx="-347.3" cy="300.1" r="0.4"/>
			<circle id="XMLID_49605_" class="st0" cx="-325.3" cy="297.8" r="0.4"/>
			<circle id="XMLID_49604_" class="st0" cx="-327.8" cy="297.8" r="0.4"/>
			<circle id="XMLID_49603_" class="st0" cx="-330.2" cy="297.8" r="0.4"/>
			<circle id="XMLID_49602_" class="st0" cx="-332.7" cy="297.8" r="0.4"/>
			<circle id="XMLID_49601_" class="st0" cx="-335.1" cy="297.8" r="0.4"/>
			<circle id="XMLID_49600_" class="st0" cx="-337.6" cy="297.8" r="0.4"/>
			<circle id="XMLID_49599_" class="st0" cx="-340" cy="297.8" r="0.4"/>
			<circle id="XMLID_49598_" class="st0" cx="-342.4" cy="297.8" r="0.4"/>
			<circle id="XMLID_49597_" class="st0" cx="-344.9" cy="297.8" r="0.4"/>
			<circle id="XMLID_49596_" class="st0" cx="-347.3" cy="297.8" r="0.4"/>
			<circle id="XMLID_49595_" class="st0" cx="-325.3" cy="295.5" r="0.4"/>
			<circle id="XMLID_49594_" class="st0" cx="-327.8" cy="295.5" r="0.4"/>
			<circle id="XMLID_49593_" class="st0" cx="-330.2" cy="295.5" r="0.4"/>
			<circle id="XMLID_49592_" class="st0" cx="-332.7" cy="295.5" r="0.4"/>
			<circle id="XMLID_49591_" class="st0" cx="-335.1" cy="295.5" r="0.4"/>
			<circle id="XMLID_49590_" class="st0" cx="-337.6" cy="295.5" r="0.4"/>
			<circle id="XMLID_49589_" class="st0" cx="-340" cy="295.5" r="0.4"/>
			<circle id="XMLID_49588_" class="st0" cx="-342.4" cy="295.5" r="0.4"/>
			<circle id="XMLID_49587_" class="st0" cx="-344.9" cy="295.5" r="0.4"/>
			<circle id="XMLID_49586_" class="st0" cx="-347.3" cy="295.5" r="0.4"/>
			<circle id="XMLID_49585_" class="st0" cx="-325.3" cy="293.2" r="0.4"/>
			<circle id="XMLID_49584_" class="st0" cx="-327.8" cy="293.2" r="0.4"/>
			<circle id="XMLID_49583_" class="st0" cx="-330.2" cy="293.2" r="0.4"/>
			<circle id="XMLID_49582_" class="st0" cx="-332.7" cy="293.2" r="0.4"/>
			<circle id="XMLID_49581_" class="st0" cx="-335.1" cy="293.2" r="0.4"/>
			<circle id="XMLID_49580_" class="st0" cx="-337.6" cy="293.2" r="0.4"/>
			<circle id="XMLID_49579_" class="st0" cx="-340" cy="293.2" r="0.4"/>
			<circle id="XMLID_49578_" class="st0" cx="-342.4" cy="293.2" r="0.4"/>
			<circle id="XMLID_49577_" class="st0" cx="-344.9" cy="293.2" r="0.4"/>
			<circle id="XMLID_49576_" class="st0" cx="-347.3" cy="293.2" r="0.4"/>
			<circle id="XMLID_49575_" class="st0" cx="-325.3" cy="290.9" r="0.4"/>
			<circle id="XMLID_49574_" class="st0" cx="-327.8" cy="290.9" r="0.4"/>
			<circle id="XMLID_49573_" class="st0" cx="-330.2" cy="290.9" r="0.4"/>
			<circle id="XMLID_49572_" class="st0" cx="-332.7" cy="290.9" r="0.4"/>
			<circle id="XMLID_49571_" class="st0" cx="-335.1" cy="290.9" r="0.4"/>
			<circle id="XMLID_49570_" class="st0" cx="-337.6" cy="290.9" r="0.4"/>
			<circle id="XMLID_49569_" class="st0" cx="-340" cy="290.9" r="0.4"/>
			<circle id="XMLID_49568_" class="st0" cx="-342.4" cy="290.9" r="0.4"/>
			<circle id="XMLID_49567_" class="st0" cx="-344.9" cy="290.9" r="0.4"/>
			<circle id="XMLID_49566_" class="st0" cx="-347.3" cy="290.9" r="0.4"/>
			<circle id="XMLID_49565_" class="st0" cx="-325.3" cy="288.7" r="0.4"/>
			<circle id="XMLID_49564_" class="st0" cx="-327.8" cy="288.7" r="0.4"/>
			<circle id="XMLID_49563_" class="st0" cx="-330.2" cy="288.7" r="0.4"/>
			<circle id="XMLID_49562_" class="st0" cx="-332.7" cy="288.7" r="0.4"/>
			<circle id="XMLID_49561_" class="st0" cx="-335.1" cy="288.7" r="0.4"/>
			<circle id="XMLID_49560_" class="st0" cx="-337.6" cy="288.7" r="0.4"/>
			<circle id="XMLID_49559_" class="st0" cx="-340" cy="288.7" r="0.4"/>
			<circle id="XMLID_49558_" class="st0" cx="-342.4" cy="288.7" r="0.4"/>
			<circle id="XMLID_49557_" class="st0" cx="-344.9" cy="288.7" r="0.4"/>
			<circle id="XMLID_49556_" class="st0" cx="-347.3" cy="288.7" r="0.4"/>
			<circle id="XMLID_49555_" class="st0" cx="-325.3" cy="286.4" r="0.4"/>
			<circle id="XMLID_49554_" class="st0" cx="-327.8" cy="286.4" r="0.4"/>
			<circle id="XMLID_49553_" class="st0" cx="-330.2" cy="286.4" r="0.4"/>
			<circle id="XMLID_49552_" class="st0" cx="-332.7" cy="286.4" r="0.4"/>
			<circle id="XMLID_49551_" class="st0" cx="-335.1" cy="286.4" r="0.4"/>
			<circle id="XMLID_49550_" class="st0" cx="-337.6" cy="286.4" r="0.4"/>
			<circle id="XMLID_49549_" class="st0" cx="-340" cy="286.4" r="0.4"/>
			<circle id="XMLID_49548_" class="st0" cx="-342.4" cy="286.4" r="0.4"/>
			<circle id="XMLID_49547_" class="st0" cx="-344.9" cy="286.4" r="0.4"/>
			<circle id="XMLID_49546_" class="st0" cx="-347.3" cy="286.4" r="0.4"/>
			<circle id="XMLID_49545_" class="st0" cx="-325.3" cy="284.1" r="0.4"/>
			<circle id="XMLID_49544_" class="st0" cx="-327.8" cy="284.1" r="0.4"/>
			<circle id="XMLID_49543_" class="st0" cx="-330.2" cy="284.1" r="0.4"/>
			<circle id="XMLID_49542_" class="st0" cx="-332.7" cy="284.1" r="0.4"/>
			<circle id="XMLID_49541_" class="st0" cx="-335.1" cy="284.1" r="0.4"/>
			<circle id="XMLID_49540_" class="st0" cx="-337.6" cy="284.1" r="0.4"/>
			<circle id="XMLID_49539_" class="st0" cx="-340" cy="284.1" r="0.4"/>
			<circle id="XMLID_49538_" class="st0" cx="-342.4" cy="284.1" r="0.4"/>
			<circle id="XMLID_49537_" class="st0" cx="-344.9" cy="284.1" r="0.4"/>
			<circle id="XMLID_49536_" class="st0" cx="-347.3" cy="284.1" r="0.4"/>
			<circle id="XMLID_49535_" class="st0" cx="-325.3" cy="281.8" r="0.4"/>
			<circle id="XMLID_49534_" class="st0" cx="-327.8" cy="281.8" r="0.4"/>
			<circle id="XMLID_49533_" class="st0" cx="-330.2" cy="281.8" r="0.4"/>
			<circle id="XMLID_49532_" class="st0" cx="-332.7" cy="281.8" r="0.4"/>
			<circle id="XMLID_49531_" class="st0" cx="-335.1" cy="281.8" r="0.4"/>
			<circle id="XMLID_49530_" class="st0" cx="-337.6" cy="281.8" r="0.4"/>
			<circle id="XMLID_49529_" class="st0" cx="-340" cy="281.8" r="0.4"/>
			<circle id="XMLID_49528_" class="st0" cx="-342.4" cy="281.8" r="0.4"/>
			<circle id="XMLID_49527_" class="st0" cx="-344.9" cy="281.8" r="0.4"/>
			<circle id="XMLID_49526_" class="st0" cx="-347.3" cy="281.8" r="0.4"/>
			<circle id="XMLID_49525_" class="st0" cx="-325.3" cy="279.6" r="0.4"/>
			<circle id="XMLID_49524_" class="st0" cx="-327.8" cy="279.6" r="0.4"/>
			<circle id="XMLID_49523_" class="st0" cx="-330.2" cy="279.6" r="0.4"/>
			<circle id="XMLID_49522_" class="st0" cx="-332.7" cy="279.6" r="0.4"/>
			<circle id="XMLID_49521_" class="st0" cx="-335.1" cy="279.6" r="0.4"/>
			<circle id="XMLID_49520_" class="st0" cx="-337.6" cy="279.6" r="0.4"/>
			<circle id="XMLID_49519_" class="st0" cx="-340" cy="279.6" r="0.4"/>
			<circle id="XMLID_49518_" class="st0" cx="-342.4" cy="279.6" r="0.4"/>
			<circle id="XMLID_49517_" class="st0" cx="-344.9" cy="279.6" r="0.4"/>
			<circle id="XMLID_49516_" class="st0" cx="-347.3" cy="279.6" r="0.4"/>
			<circle id="XMLID_49515_" class="st0" cx="-325.3" cy="277.3" r="0.4"/>
			<circle id="XMLID_49514_" class="st0" cx="-327.8" cy="277.3" r="0.4"/>
			<circle id="XMLID_49513_" class="st0" cx="-330.2" cy="277.3" r="0.4"/>
			<circle id="XMLID_49512_" class="st0" cx="-332.7" cy="277.3" r="0.4"/>
			<circle id="XMLID_49511_" class="st0" cx="-335.1" cy="277.3" r="0.4"/>
			<circle id="XMLID_49510_" class="st0" cx="-337.6" cy="277.3" r="0.4"/>
			<circle id="XMLID_49509_" class="st0" cx="-340" cy="277.3" r="0.4"/>
			<circle id="XMLID_49508_" class="st0" cx="-342.4" cy="277.3" r="0.4"/>
			<circle id="XMLID_49507_" class="st0" cx="-344.9" cy="277.3" r="0.4"/>
			<circle id="XMLID_49506_" class="st0" cx="-347.3" cy="277.3" r="0.4"/>
			<circle id="XMLID_49505_" class="st0" cx="-325.3" cy="275" r="0.4"/>
			<circle id="XMLID_49504_" class="st0" cx="-327.8" cy="275" r="0.4"/>
			<circle id="XMLID_49503_" class="st0" cx="-330.2" cy="275" r="0.4"/>
			<circle id="XMLID_49502_" class="st0" cx="-332.7" cy="275" r="0.4"/>
			<circle id="XMLID_49501_" class="st0" cx="-335.1" cy="275" r="0.4"/>
			<circle id="XMLID_49500_" class="st0" cx="-337.6" cy="275" r="0.4"/>
			<circle id="XMLID_49499_" class="st0" cx="-340" cy="275" r="0.4"/>
			<circle id="XMLID_49498_" class="st0" cx="-342.4" cy="275" r="0.4"/>
			<circle id="XMLID_49497_" class="st0" cx="-344.9" cy="275" r="0.4"/>
			<circle id="XMLID_49496_" class="st0" cx="-347.3" cy="275" r="0.4"/>
			<circle id="XMLID_49495_" class="st0" cx="-325.3" cy="272.7" r="0.4"/>
			<circle id="XMLID_49494_" class="st0" cx="-327.8" cy="272.7" r="0.4"/>
			<circle id="XMLID_49493_" class="st0" cx="-330.2" cy="272.7" r="0.4"/>
			<circle id="XMLID_49492_" class="st0" cx="-332.7" cy="272.7" r="0.4"/>
			<circle id="XMLID_49491_" class="st0" cx="-335.1" cy="272.7" r="0.4"/>
			<circle id="XMLID_49490_" class="st0" cx="-337.6" cy="272.7" r="0.4"/>
			<circle id="XMLID_49489_" class="st0" cx="-340" cy="272.7" r="0.4"/>
			<circle id="XMLID_49488_" class="st0" cx="-342.4" cy="272.7" r="0.4"/>
			<circle id="XMLID_49487_" class="st0" cx="-344.9" cy="272.7" r="0.4"/>
			<circle id="XMLID_49486_" class="st0" cx="-347.3" cy="272.7" r="0.4"/>
			<circle id="XMLID_49485_" class="st0" cx="-313.1" cy="313.7" r="0.4"/>
			<circle id="XMLID_49484_" class="st0" cx="-315.6" cy="313.7" r="0.4"/>
			<circle id="XMLID_49483_" class="st0" cx="-318" cy="313.7" r="0.4"/>
			<circle id="XMLID_49482_" class="st0" cx="-320.5" cy="313.7" r="0.4"/>
			<circle id="XMLID_49481_" class="st0" cx="-322.9" cy="313.7" r="0.4"/>
			<circle id="XMLID_49480_" class="st0" cx="-313.1" cy="311.5" r="0.4"/>
			<circle id="XMLID_49479_" class="st0" cx="-315.6" cy="311.5" r="0.4"/>
			<circle id="XMLID_49478_" class="st0" cx="-318" cy="311.5" r="0.4"/>
			<circle id="XMLID_49477_" class="st0" cx="-320.5" cy="311.5" r="0.4"/>
			<circle id="XMLID_49476_" class="st0" cx="-322.9" cy="311.5" r="0.4"/>
			<circle id="XMLID_49475_" class="st0" cx="-313.1" cy="309.2" r="0.4"/>
			<circle id="XMLID_49474_" class="st0" cx="-315.6" cy="309.2" r="0.4"/>
			<circle id="XMLID_49473_" class="st0" cx="-318" cy="309.2" r="0.4"/>
			<circle id="XMLID_49472_" class="st0" cx="-320.5" cy="309.2" r="0.4"/>
			<circle id="XMLID_49471_" class="st0" cx="-322.9" cy="309.2" r="0.4"/>
			<circle id="XMLID_49470_" class="st0" cx="-313.1" cy="306.9" r="0.4"/>
			<circle id="XMLID_49469_" class="st0" cx="-315.6" cy="306.9" r="0.4"/>
			<circle id="XMLID_49468_" class="st0" cx="-318" cy="306.9" r="0.4"/>
			<circle id="XMLID_49467_" class="st0" cx="-320.5" cy="306.9" r="0.4"/>
			<circle id="XMLID_49466_" class="st0" cx="-322.9" cy="306.9" r="0.4"/>
			<circle id="XMLID_49465_" class="st0" cx="-313.1" cy="304.6" r="0.4"/>
			<circle id="XMLID_49464_" class="st0" cx="-315.6" cy="304.6" r="0.4"/>
			<circle id="XMLID_49463_" class="st0" cx="-318" cy="304.6" r="0.4"/>
			<circle id="XMLID_49462_" class="st0" cx="-320.5" cy="304.6" r="0.4"/>
			<circle id="XMLID_49461_" class="st0" cx="-322.9" cy="304.6" r="0.4"/>
			<circle id="XMLID_49460_" class="st0" cx="-313.1" cy="302.3" r="0.4"/>
			<circle id="XMLID_49459_" class="st0" cx="-315.6" cy="302.3" r="0.4"/>
			<circle id="XMLID_49458_" class="st0" cx="-318" cy="302.3" r="0.4"/>
			<circle id="XMLID_49457_" class="st0" cx="-320.5" cy="302.3" r="0.4"/>
			<circle id="XMLID_49456_" class="st0" cx="-322.9" cy="302.3" r="0.4"/>
			<circle id="XMLID_49455_" class="st0" cx="-313.1" cy="300.1" r="0.4"/>
			<circle id="XMLID_49454_" class="st0" cx="-315.6" cy="300.1" r="0.4"/>
			<circle id="XMLID_49453_" class="st0" cx="-318" cy="300.1" r="0.4"/>
			<circle id="XMLID_49452_" class="st0" cx="-320.5" cy="300.1" r="0.4"/>
			<circle id="XMLID_49451_" class="st0" cx="-322.9" cy="300.1" r="0.4"/>
			<circle id="XMLID_49450_" class="st0" cx="-313.1" cy="297.8" r="0.4"/>
			<circle id="XMLID_49449_" class="st0" cx="-315.6" cy="297.8" r="0.4"/>
			<circle id="XMLID_49448_" class="st0" cx="-318" cy="297.8" r="0.4"/>
			<circle id="XMLID_49447_" class="st0" cx="-320.5" cy="297.8" r="0.4"/>
			<circle id="XMLID_49446_" class="st0" cx="-322.9" cy="297.8" r="0.4"/>
			<circle id="XMLID_49445_" class="st0" cx="-313.1" cy="295.5" r="0.4"/>
			<circle id="XMLID_49444_" class="st0" cx="-315.6" cy="295.5" r="0.4"/>
			<circle id="XMLID_49443_" class="st0" cx="-318" cy="295.5" r="0.4"/>
			<circle id="XMLID_49442_" class="st0" cx="-320.5" cy="295.5" r="0.4"/>
			<circle id="XMLID_49441_" class="st0" cx="-322.9" cy="295.5" r="0.4"/>
			<circle id="XMLID_49440_" class="st0" cx="-313.1" cy="293.2" r="0.4"/>
			<circle id="XMLID_49439_" class="st0" cx="-315.6" cy="293.2" r="0.4"/>
			<circle id="XMLID_49438_" class="st0" cx="-318" cy="293.2" r="0.4"/>
			<circle id="XMLID_49437_" class="st0" cx="-320.5" cy="293.2" r="0.4"/>
			<circle id="XMLID_49436_" class="st0" cx="-322.9" cy="293.2" r="0.4"/>
			<circle id="XMLID_49435_" class="st0" cx="-313.1" cy="290.9" r="0.4"/>
			<circle id="XMLID_49434_" class="st0" cx="-315.6" cy="290.9" r="0.4"/>
			<circle id="XMLID_49433_" class="st0" cx="-318" cy="290.9" r="0.4"/>
			<circle id="XMLID_49432_" class="st0" cx="-320.5" cy="290.9" r="0.4"/>
			<circle id="XMLID_49431_" class="st0" cx="-322.9" cy="290.9" r="0.4"/>
			<circle id="XMLID_49430_" class="st0" cx="-313.1" cy="288.7" r="0.4"/>
			<circle id="XMLID_49429_" class="st0" cx="-315.6" cy="288.7" r="0.4"/>
			<circle id="XMLID_49428_" class="st0" cx="-318" cy="288.7" r="0.4"/>
			<circle id="XMLID_49427_" class="st0" cx="-320.5" cy="288.7" r="0.4"/>
			<circle id="XMLID_49426_" class="st0" cx="-322.9" cy="288.7" r="0.4"/>
			<circle id="XMLID_49425_" class="st0" cx="-313.1" cy="286.4" r="0.4"/>
			<circle id="XMLID_49424_" class="st0" cx="-315.6" cy="286.4" r="0.4"/>
			<circle id="XMLID_49423_" class="st0" cx="-318" cy="286.4" r="0.4"/>
			<circle id="XMLID_49422_" class="st0" cx="-320.5" cy="286.4" r="0.4"/>
			<circle id="XMLID_49421_" class="st0" cx="-322.9" cy="286.4" r="0.4"/>
			<circle id="XMLID_49420_" class="st0" cx="-313.1" cy="284.1" r="0.4"/>
			<circle id="XMLID_49419_" class="st0" cx="-315.6" cy="284.1" r="0.4"/>
			<circle id="XMLID_49418_" class="st0" cx="-318" cy="284.1" r="0.4"/>
			<circle id="XMLID_49417_" class="st0" cx="-320.5" cy="284.1" r="0.4"/>
			<circle id="XMLID_49416_" class="st0" cx="-322.9" cy="284.1" r="0.4"/>
			<circle id="XMLID_49415_" class="st0" cx="-313.1" cy="281.8" r="0.4"/>
			<circle id="XMLID_49414_" class="st0" cx="-315.6" cy="281.8" r="0.4"/>
			<circle id="XMLID_49413_" class="st0" cx="-318" cy="281.8" r="0.4"/>
			<circle id="XMLID_49412_" class="st0" cx="-320.5" cy="281.8" r="0.4"/>
			<circle id="XMLID_49411_" class="st0" cx="-322.9" cy="281.8" r="0.4"/>
			<circle id="XMLID_49410_" class="st0" cx="-313.1" cy="279.6" r="0.4"/>
			<circle id="XMLID_49409_" class="st0" cx="-315.6" cy="279.6" r="0.4"/>
			<circle id="XMLID_49408_" class="st0" cx="-318" cy="279.6" r="0.4"/>
			<circle id="XMLID_49407_" class="st0" cx="-320.5" cy="279.6" r="0.4"/>
			<circle id="XMLID_49406_" class="st0" cx="-322.9" cy="279.6" r="0.4"/>
			<circle id="XMLID_49405_" class="st0" cx="-313.1" cy="277.3" r="0.4"/>
			<circle id="XMLID_49404_" class="st0" cx="-315.6" cy="277.3" r="0.4"/>
			<circle id="XMLID_49403_" class="st0" cx="-318" cy="277.3" r="0.4"/>
			<circle id="XMLID_49402_" class="st0" cx="-320.5" cy="277.3" r="0.4"/>
			<circle id="XMLID_49401_" class="st0" cx="-322.9" cy="277.3" r="0.4"/>
			<circle id="XMLID_49400_" class="st0" cx="-313.1" cy="275" r="0.4"/>
			<circle id="XMLID_49399_" class="st0" cx="-315.6" cy="275" r="0.4"/>
			<circle id="XMLID_49398_" class="st0" cx="-318" cy="275" r="0.4"/>
			<circle id="XMLID_49397_" class="st0" cx="-320.5" cy="275" r="0.4"/>
			<circle id="XMLID_49396_" class="st0" cx="-322.9" cy="275" r="0.4"/>
			<circle id="XMLID_49395_" class="st0" cx="-313.1" cy="272.7" r="0.4"/>
			<circle id="XMLID_49394_" class="st0" cx="-315.6" cy="272.7" r="0.4"/>
			<circle id="XMLID_49393_" class="st0" cx="-318" cy="272.7" r="0.4"/>
			<circle id="XMLID_49392_" class="st0" cx="-320.5" cy="272.7" r="0.4"/>
			<circle id="XMLID_49391_" class="st0" cx="-322.9" cy="272.7" r="0.4"/>
		</g>
		<rect id="XMLID_49389_" x="-368.8" y="264.7" class="st1" width="60" height="44.1"/>
		<path id="XMLID_49388_" class="st2" d="M-355.2,283.1h-1.7c-1.6,0-2.9-1.3-2.9-2.9v-1.7c0-1.6,1.3-2.9,2.9-2.9h1.7
			c1.6,0,2.9,1.3,2.9,2.9v1.7C-352.2,281.8-353.6,283.1-355.2,283.1z"/>
		<polygon id="XMLID_49387_" class="st0" points="-364.1,279.4 -362.7,277.5 -361.2,275.6 -361.2,279.4 -361.2,283.2 -362.7,281.3 
					"/>
		<rect id="XMLID_49386_" x="-330.9" y="275.6" class="st2" width="16.6" height="20.7"/>
	</g>
	<g id="XMLID_44_">
		<circle id="XMLID_53_" class="st3" cx="-319.2" cy="305" r="27.2"/>
		<circle id="XMLID_52_" class="st4" cx="-319.2" cy="305" r="23.6"/>
		<g id="XMLID_45_">
			<path id="XMLID_51_" class="st0" d="M-322.3,319.3v-16.4c0-3.1-2.5-5.6-5.6-5.6l0,0c-3.1,0-5.6,2.5-5.6,5.6v16.5L-322.3,319.3
				L-322.3,319.3z"/>
			<path id="XMLID_50_" class="st0" d="M-304.9,319.3v-16.4c0-3.1-2.5-5.6-5.6-5.6l0,0c-3.1,0-5.6,2.5-5.6,5.6v16.5L-304.9,319.3
				L-304.9,319.3z"/>
			<rect id="XMLID_49_" x="-323.2" y="303.1" class="st0" width="8.8" height="5.7"/>
			<circle id="XMLID_48_" class="st0" cx="-310.5" cy="293" r="4"/>
			<circle id="XMLID_47_" class="st0" cx="-327.9" cy="293" r="4"/>
			<rect id="XMLID_46_" x="-331.9" y="293" class="st0" width="8" height="4"/>
		</g>
	</g>
</g>
</svg>
