<?xml version="1.0" encoding="utf-8"?>
<!-- Generator: Adobe Illustrator 19.0.0, SVG Export Plug-In . SVG Version: 6.00 Build 0)  -->
<svg version="1.1" id="圖層_1" xmlns="http://www.w3.org/2000/svg" xmlns:xlink="http://www.w3.org/1999/xlink" x="0px" y="0px"
	 viewBox="-377 261.1 85.5 74.2" style="enable-background:new -377 261.1 85.5 74.2;" xml:space="preserve">
<style type="text/css">
	.st0{fill:#0080CF;}
	.st1{fill:#FFFFFF;stroke:#0080CF;stroke-width:1.9755;stroke-miterlimit:10;}
	.st2{fill:#FB6210;}
</style>
<g id="XMLID_1_">
	<g id="XMLID_54_">
		<g id="XMLID_48868_">
			<path id="XMLID_49384_" class="st0" d="M-365.9,321.1c0-0.2,0.2-0.4,0.4-0.4s0.4,0.2,0.4,0.4s-0.2,0.4-0.4,0.4
				S-365.9,321.3-365.9,321.1z"/>
			<path id="XMLID_49383_" class="st0" d="M-368.4,321.1c0-0.2,0.2-0.4,0.4-0.4s0.4,0.2,0.4,0.4s-0.2,0.4-0.4,0.4
				S-368.4,321.3-368.4,321.1z"/>
			<circle id="XMLID_49382_" class="st0" cx="-365.5" cy="318.8" r="0.4"/>
			<circle id="XMLID_49381_" class="st0" cx="-368" cy="318.8" r="0.4"/>
			<path id="XMLID_49380_" class="st0" d="M-365.9,316.6c0-0.2,0.2-0.4,0.4-0.4s0.4,0.2,0.4,0.4s-0.2,0.4-0.4,0.4
				C-365.7,316.9-365.9,316.8-365.9,316.6z"/>
			<path id="XMLID_49379_" class="st0" d="M-368.4,316.6c0-0.2,0.2-0.4,0.4-0.4s0.4,0.2,0.4,0.4s-0.2,0.4-0.4,0.4
				C-368.2,316.9-368.4,316.8-368.4,316.6z"/>
			<path id="XMLID_49378_" class="st0" d="M-365.9,314.3c0-0.2,0.2-0.4,0.4-0.4s0.4,0.2,0.4,0.4c0,0.2-0.2,0.4-0.4,0.4
				S-365.9,314.5-365.9,314.3z"/>
			<path id="XMLID_49377_" class="st0" d="M-368.4,314.3c0-0.2,0.2-0.4,0.4-0.4s0.4,0.2,0.4,0.4c0,0.2-0.2,0.4-0.4,0.4
				S-368.4,314.5-368.4,314.3z"/>
			<circle id="XMLID_49376_" class="st0" cx="-365.5" cy="312" r="0.4"/>
			<circle id="XMLID_49375_" class="st0" cx="-368" cy="312" r="0.4"/>
			<circle id="XMLID_49374_" class="st0" cx="-365.5" cy="309.7" r="0.4"/>
			<circle id="XMLID_49373_" class="st0" cx="-368" cy="309.7" r="0.4"/>
			<circle id="XMLID_49372_" class="st0" cx="-365.5" cy="307.4" r="0.4"/>
			<circle id="XMLID_49371_" class="st0" cx="-368" cy="307.4" r="0.4"/>
			<circle id="XMLID_49370_" class="st0" cx="-365.5" cy="305.2" r="0.4"/>
			<circle id="XMLID_49369_" class="st0" cx="-368" cy="305.2" r="0.4"/>
			<circle id="XMLID_49368_" class="st0" cx="-365.5" cy="302.9" r="0.4"/>
			<circle id="XMLID_49367_" class="st0" cx="-368" cy="302.9" r="0.4"/>
			<circle id="XMLID_49366_" class="st0" cx="-365.5" cy="300.6" r="0.4"/>
			<circle id="XMLID_49365_" class="st0" cx="-368" cy="300.6" r="0.4"/>
			<circle id="XMLID_49364_" class="st0" cx="-365.5" cy="298.3" r="0.4"/>
			<circle id="XMLID_49363_" class="st0" cx="-368" cy="298.3" r="0.4"/>
			<circle id="XMLID_49362_" class="st0" cx="-365.5" cy="296" r="0.4"/>
			<circle id="XMLID_49361_" class="st0" cx="-368" cy="296" r="0.4"/>
			<circle id="XMLID_49360_" class="st0" cx="-365.5" cy="293.8" r="0.4"/>
			<circle id="XMLID_49359_" class="st0" cx="-368" cy="293.8" r="0.4"/>
			<circle id="XMLID_49358_" class="st0" cx="-365.5" cy="291.5" r="0.4"/>
			<circle id="XMLID_49357_" class="st0" cx="-368" cy="291.5" r="0.4"/>
			<circle id="XMLID_49356_" class="st0" cx="-365.5" cy="289.2" r="0.4"/>
			<circle id="XMLID_49355_" class="st0" cx="-368" cy="289.2" r="0.4"/>
			<circle id="XMLID_49354_" class="st0" cx="-365.5" cy="286.9" r="0.4"/>
			<circle id="XMLID_49353_" class="st0" cx="-368" cy="286.9" r="0.4"/>
			<path id="XMLID_49352_" class="st0" d="M-365.9,284.6c0-0.2,0.2-0.4,0.4-0.4s0.4,0.2,0.4,0.4s-0.2,0.4-0.4,0.4
				S-365.9,284.9-365.9,284.6z"/>
			<path id="XMLID_49351_" class="st0" d="M-368.4,284.6c0-0.2,0.2-0.4,0.4-0.4s0.4,0.2,0.4,0.4s-0.2,0.4-0.4,0.4
				S-368.4,284.9-368.4,284.6z"/>
			<circle id="XMLID_49350_" class="st0" cx="-365.5" cy="282.4" r="0.4"/>
			<circle id="XMLID_49349_" class="st0" cx="-368" cy="282.4" r="0.4"/>
			<circle id="XMLID_49348_" class="st0" cx="-365.5" cy="280.1" r="0.4"/>
			<circle id="XMLID_49347_" class="st0" cx="-368" cy="280.1" r="0.4"/>
			<path id="XMLID_49346_" class="st0" d="M-341.5,321.1c0-0.2,0.2-0.4,0.4-0.4c0.2,0,0.4,0.2,0.4,0.4s-0.2,0.4-0.4,0.4
				C-341.3,321.5-341.5,321.3-341.5,321.1z"/>
			<path id="XMLID_49345_" class="st0" d="M-343.9,321.1c0-0.2,0.2-0.4,0.4-0.4s0.4,0.2,0.4,0.4s-0.2,0.4-0.4,0.4
				C-343.8,321.5-343.9,321.3-343.9,321.1z"/>
			<path id="XMLID_49344_" class="st0" d="M-346.4,321.1c0-0.2,0.2-0.4,0.4-0.4s0.4,0.2,0.4,0.4s-0.2,0.4-0.4,0.4
				S-346.4,321.3-346.4,321.1z"/>
			<path id="XMLID_49343_" class="st0" d="M-348.8,321.1c0-0.2,0.2-0.4,0.4-0.4c0.2,0,0.4,0.2,0.4,0.4s-0.2,0.4-0.4,0.4
				C-348.6,321.5-348.8,321.3-348.8,321.1z"/>
			<path id="XMLID_49342_" class="st0" d="M-351.3,321.1c0-0.2,0.2-0.4,0.4-0.4c0.2,0,0.4,0.2,0.4,0.4s-0.2,0.4-0.4,0.4
				C-351.1,321.5-351.3,321.3-351.3,321.1z"/>
			<path id="XMLID_49341_" class="st0" d="M-353.7,321.1c0-0.2,0.2-0.4,0.4-0.4c0.2,0,0.4,0.2,0.4,0.4s-0.2,0.4-0.4,0.4
				C-353.5,321.5-353.7,321.3-353.7,321.1z"/>
			<path id="XMLID_49340_" class="st0" d="M-356.2,321.1c0-0.2,0.2-0.4,0.4-0.4c0.2,0,0.4,0.2,0.4,0.4s-0.2,0.4-0.4,0.4
				C-356,321.5-356.2,321.3-356.2,321.1z"/>
			<path id="XMLID_49339_" class="st0" d="M-358.6,321.1c0-0.2,0.2-0.4,0.4-0.4c0.2,0,0.4,0.2,0.4,0.4s-0.2,0.4-0.4,0.4
				C-358.4,321.5-358.6,321.3-358.6,321.1z"/>
			<path id="XMLID_49338_" class="st0" d="M-361,321.1c0-0.2,0.2-0.4,0.4-0.4c0.2,0,0.4,0.2,0.4,0.4s-0.2,0.4-0.4,0.4
				C-360.9,321.5-361,321.3-361,321.1z"/>
			<path id="XMLID_49337_" class="st0" d="M-363.5,321.1c0-0.2,0.2-0.4,0.4-0.4c0.2,0,0.4,0.2,0.4,0.4s-0.2,0.4-0.4,0.4
				C-363.3,321.5-363.5,321.3-363.5,321.1z"/>
			<circle id="XMLID_49336_" class="st0" cx="-341.1" cy="318.8" r="0.4"/>
			<circle id="XMLID_49335_" class="st0" cx="-343.6" cy="318.8" r="0.4"/>
			<circle id="XMLID_49334_" class="st0" cx="-346" cy="318.8" r="0.4"/>
			<circle id="XMLID_49333_" class="st0" cx="-348.4" cy="318.8" r="0.4"/>
			<circle id="XMLID_49332_" class="st0" cx="-350.9" cy="318.8" r="0.4"/>
			<circle id="XMLID_49331_" class="st0" cx="-353.3" cy="318.8" r="0.4"/>
			<circle id="XMLID_49330_" class="st0" cx="-355.8" cy="318.8" r="0.4"/>
			<circle id="XMLID_49329_" class="st0" cx="-358.2" cy="318.8" r="0.4"/>
			<circle id="XMLID_49328_" class="st0" cx="-360.7" cy="318.8" r="0.4"/>
			<circle id="XMLID_49327_" class="st0" cx="-363.1" cy="318.8" r="0.4"/>
			<path id="XMLID_49326_" class="st0" d="M-341.5,316.6c0-0.2,0.2-0.4,0.4-0.4c0.2,0,0.4,0.2,0.4,0.4s-0.2,0.4-0.4,0.4
				C-341.3,316.9-341.5,316.8-341.5,316.6z"/>
			<path id="XMLID_49325_" class="st0" d="M-343.9,316.6c0-0.2,0.2-0.4,0.4-0.4s0.4,0.2,0.4,0.4s-0.2,0.4-0.4,0.4
				C-343.8,316.9-343.9,316.8-343.9,316.6z"/>
			<path id="XMLID_49324_" class="st0" d="M-346.4,316.6c0-0.2,0.2-0.4,0.4-0.4s0.4,0.2,0.4,0.4s-0.2,0.4-0.4,0.4
				C-346.2,316.9-346.4,316.8-346.4,316.6z"/>
			<path id="XMLID_49323_" class="st0" d="M-348.8,316.6c0-0.2,0.2-0.4,0.4-0.4c0.2,0,0.4,0.2,0.4,0.4s-0.2,0.4-0.4,0.4
				C-348.6,317-348.8,316.8-348.8,316.6z"/>
			<path id="XMLID_49322_" class="st0" d="M-351.3,316.6c0-0.2,0.2-0.4,0.4-0.4c0.2,0,0.4,0.2,0.4,0.4s-0.2,0.4-0.4,0.4
				C-351.1,316.9-351.3,316.8-351.3,316.6z"/>
			<path id="XMLID_49321_" class="st0" d="M-353.7,316.6c0-0.2,0.2-0.4,0.4-0.4c0.2,0,0.4,0.2,0.4,0.4s-0.2,0.4-0.4,0.4
				C-353.5,317-353.7,316.8-353.7,316.6z"/>
			<path id="XMLID_49320_" class="st0" d="M-356.2,316.6c0-0.2,0.2-0.4,0.4-0.4c0.2,0,0.4,0.2,0.4,0.4s-0.2,0.4-0.4,0.4
				C-356,316.9-356.2,316.8-356.2,316.6z"/>
			<path id="XMLID_49319_" class="st0" d="M-358.6,316.6c0-0.2,0.2-0.4,0.4-0.4c0.2,0,0.4,0.2,0.4,0.4s-0.2,0.4-0.4,0.4
				C-358.4,316.9-358.6,316.8-358.6,316.6z"/>
			<path id="XMLID_49318_" class="st0" d="M-361,316.6c0-0.2,0.2-0.4,0.4-0.4c0.2,0,0.4,0.2,0.4,0.4s-0.2,0.4-0.4,0.4
				C-360.9,316.9-361,316.8-361,316.6z"/>
			<path id="XMLID_49317_" class="st0" d="M-363.5,316.6c0-0.2,0.2-0.4,0.4-0.4c0.2,0,0.4,0.2,0.4,0.4s-0.2,0.4-0.4,0.4
				C-363.3,316.9-363.5,316.8-363.5,316.6z"/>
			<path id="XMLID_49316_" class="st0" d="M-341.5,314.3c0-0.2,0.2-0.4,0.4-0.4c0.2,0,0.4,0.2,0.4,0.4c0,0.2-0.2,0.4-0.4,0.4
				C-341.3,314.7-341.5,314.5-341.5,314.3z"/>
			<path id="XMLID_49315_" class="st0" d="M-343.9,314.3c0-0.2,0.2-0.4,0.4-0.4s0.4,0.2,0.4,0.4c0,0.2-0.2,0.4-0.4,0.4
				C-343.8,314.7-343.9,314.5-343.9,314.3z"/>
			<path id="XMLID_49314_" class="st0" d="M-346.4,314.3c0-0.2,0.2-0.4,0.4-0.4s0.4,0.2,0.4,0.4c0,0.2-0.2,0.4-0.4,0.4
				S-346.4,314.5-346.4,314.3z"/>
			<path id="XMLID_49313_" class="st0" d="M-348.8,314.3c0-0.2,0.2-0.4,0.4-0.4c0.2,0,0.4,0.2,0.4,0.4c0,0.2-0.2,0.4-0.4,0.4
				C-348.6,314.7-348.8,314.5-348.8,314.3z"/>
			<path id="XMLID_49312_" class="st0" d="M-351.3,314.3c0-0.2,0.2-0.4,0.4-0.4c0.2,0,0.4,0.2,0.4,0.4c0,0.2-0.2,0.4-0.4,0.4
				C-351.1,314.7-351.3,314.5-351.3,314.3z"/>
			<path id="XMLID_49311_" class="st0" d="M-353.7,314.3c0-0.2,0.2-0.4,0.4-0.4c0.2,0,0.4,0.2,0.4,0.4c0,0.2-0.2,0.4-0.4,0.4
				C-353.5,314.7-353.7,314.5-353.7,314.3z"/>
			<path id="XMLID_49310_" class="st0" d="M-356.2,314.3c0-0.2,0.2-0.4,0.4-0.4c0.2,0,0.4,0.2,0.4,0.4c0,0.2-0.2,0.4-0.4,0.4
				C-356,314.7-356.2,314.5-356.2,314.3z"/>
			<path id="XMLID_49309_" class="st0" d="M-358.6,314.3c0-0.2,0.2-0.4,0.4-0.4c0.2,0,0.4,0.2,0.4,0.4c0,0.2-0.2,0.4-0.4,0.4
				C-358.4,314.7-358.6,314.5-358.6,314.3z"/>
			<path id="XMLID_49308_" class="st0" d="M-361,314.3c0-0.2,0.2-0.4,0.4-0.4c0.2,0,0.4,0.2,0.4,0.4c0,0.2-0.2,0.4-0.4,0.4
				C-360.9,314.7-361,314.5-361,314.3z"/>
			<path id="XMLID_49307_" class="st0" d="M-363.5,314.3c0-0.2,0.2-0.4,0.4-0.4c0.2,0,0.4,0.2,0.4,0.4c0,0.2-0.2,0.4-0.4,0.4
				C-363.3,314.7-363.5,314.5-363.5,314.3z"/>
			<circle id="XMLID_49306_" class="st0" cx="-341.1" cy="312" r="0.4"/>
			<circle id="XMLID_49305_" class="st0" cx="-343.6" cy="312" r="0.4"/>
			<circle id="XMLID_49304_" class="st0" cx="-346" cy="312" r="0.4"/>
			<circle id="XMLID_49303_" class="st0" cx="-348.4" cy="312" r="0.4"/>
			<circle id="XMLID_49302_" class="st0" cx="-350.9" cy="312" r="0.4"/>
			<circle id="XMLID_49301_" class="st0" cx="-353.3" cy="312" r="0.4"/>
			<circle id="XMLID_49300_" class="st0" cx="-355.8" cy="312" r="0.4"/>
			<circle id="XMLID_49299_" class="st0" cx="-358.2" cy="312" r="0.4"/>
			<circle id="XMLID_49298_" class="st0" cx="-360.7" cy="312" r="0.4"/>
			<circle id="XMLID_49297_" class="st0" cx="-363.1" cy="312" r="0.4"/>
			<circle id="XMLID_49296_" class="st0" cx="-341.1" cy="309.7" r="0.4"/>
			<circle id="XMLID_49295_" class="st0" cx="-343.6" cy="309.7" r="0.4"/>
			<circle id="XMLID_49294_" class="st0" cx="-346" cy="309.7" r="0.4"/>
			<circle id="XMLID_49293_" class="st0" cx="-348.4" cy="309.7" r="0.4"/>
			<circle id="XMLID_49292_" class="st0" cx="-350.9" cy="309.7" r="0.4"/>
			<circle id="XMLID_49291_" class="st0" cx="-353.3" cy="309.7" r="0.4"/>
			<circle id="XMLID_49290_" class="st0" cx="-355.8" cy="309.7" r="0.4"/>
			<circle id="XMLID_49289_" class="st0" cx="-358.2" cy="309.7" r="0.4"/>
			<circle id="XMLID_49288_" class="st0" cx="-360.7" cy="309.7" r="0.4"/>
			<circle id="XMLID_49287_" class="st0" cx="-363.1" cy="309.7" r="0.4"/>
			<circle id="XMLID_49286_" class="st0" cx="-341.1" cy="307.4" r="0.4"/>
			<circle id="XMLID_49285_" class="st0" cx="-343.6" cy="307.4" r="0.4"/>
			<circle id="XMLID_49284_" class="st0" cx="-346" cy="307.4" r="0.4"/>
			<circle id="XMLID_49283_" class="st0" cx="-348.4" cy="307.4" r="0.4"/>
			<circle id="XMLID_49282_" class="st0" cx="-350.9" cy="307.4" r="0.4"/>
			<circle id="XMLID_49281_" class="st0" cx="-353.3" cy="307.4" r="0.4"/>
			<path id="XMLID_49280_" class="st0" d="M-356.2,307.4c0-0.2,0.2-0.4,0.4-0.4c0.2,0,0.4,0.2,0.4,0.4c0,0.2-0.2,0.4-0.4,0.4
				C-356,307.8-356.2,307.6-356.2,307.4z"/>
			<circle id="XMLID_49279_" class="st0" cx="-358.2" cy="307.4" r="0.4"/>
			<circle id="XMLID_49278_" class="st0" cx="-360.7" cy="307.4" r="0.4"/>
			<circle id="XMLID_49277_" class="st0" cx="-363.1" cy="307.4" r="0.4"/>
			<circle id="XMLID_49276_" class="st0" cx="-341.1" cy="305.2" r="0.4"/>
			<circle id="XMLID_49275_" class="st0" cx="-343.6" cy="305.2" r="0.4"/>
			<circle id="XMLID_49274_" class="st0" cx="-346" cy="305.2" r="0.4"/>
			<circle id="XMLID_49273_" class="st0" cx="-348.4" cy="305.2" r="0.4"/>
			<circle id="XMLID_49272_" class="st0" cx="-350.9" cy="305.2" r="0.4"/>
			<circle id="XMLID_49271_" class="st0" cx="-353.3" cy="305.2" r="0.4"/>
			<circle id="XMLID_49270_" class="st0" cx="-355.8" cy="305.2" r="0.4"/>
			<circle id="XMLID_49269_" class="st0" cx="-358.2" cy="305.2" r="0.4"/>
			<circle id="XMLID_49268_" class="st0" cx="-360.7" cy="305.2" r="0.4"/>
			<circle id="XMLID_49267_" class="st0" cx="-363.1" cy="305.2" r="0.4"/>
			<circle id="XMLID_49266_" class="st0" cx="-341.1" cy="302.9" r="0.4"/>
			<circle id="XMLID_49265_" class="st0" cx="-343.6" cy="302.9" r="0.4"/>
			<circle id="XMLID_49264_" class="st0" cx="-346" cy="302.9" r="0.4"/>
			<circle id="XMLID_49263_" class="st0" cx="-348.4" cy="302.9" r="0.4"/>
			<circle id="XMLID_49262_" class="st0" cx="-350.9" cy="302.9" r="0.4"/>
			<circle id="XMLID_49261_" class="st0" cx="-353.3" cy="302.9" r="0.4"/>
			<circle id="XMLID_49260_" class="st0" cx="-355.8" cy="302.9" r="0.4"/>
			<circle id="XMLID_49259_" class="st0" cx="-358.2" cy="302.9" r="0.4"/>
			<circle id="XMLID_49258_" class="st0" cx="-360.7" cy="302.9" r="0.4"/>
			<circle id="XMLID_49257_" class="st0" cx="-363.1" cy="302.9" r="0.4"/>
			<circle id="XMLID_49256_" class="st0" cx="-341.1" cy="300.6" r="0.4"/>
			<circle id="XMLID_49255_" class="st0" cx="-343.6" cy="300.6" r="0.4"/>
			<circle id="XMLID_49254_" class="st0" cx="-346" cy="300.6" r="0.4"/>
			<circle id="XMLID_49253_" class="st0" cx="-348.4" cy="300.6" r="0.4"/>
			<circle id="XMLID_49252_" class="st0" cx="-350.9" cy="300.6" r="0.4"/>
			<circle id="XMLID_49251_" class="st0" cx="-353.3" cy="300.6" r="0.4"/>
			<circle id="XMLID_49250_" class="st0" cx="-355.8" cy="300.6" r="0.4"/>
			<circle id="XMLID_49249_" class="st0" cx="-358.2" cy="300.6" r="0.4"/>
			<circle id="XMLID_49248_" class="st0" cx="-360.7" cy="300.6" r="0.4"/>
			<circle id="XMLID_49247_" class="st0" cx="-363.1" cy="300.6" r="0.4"/>
			<circle id="XMLID_49246_" class="st0" cx="-341.1" cy="298.3" r="0.4"/>
			<circle id="XMLID_49245_" class="st0" cx="-343.6" cy="298.3" r="0.4"/>
			<circle id="XMLID_49244_" class="st0" cx="-346" cy="298.3" r="0.4"/>
			<circle id="XMLID_49243_" class="st0" cx="-348.4" cy="298.3" r="0.4"/>
			<circle id="XMLID_49242_" class="st0" cx="-350.9" cy="298.3" r="0.4"/>
			<circle id="XMLID_49241_" class="st0" cx="-353.3" cy="298.3" r="0.4"/>
			<circle id="XMLID_49240_" class="st0" cx="-355.8" cy="298.3" r="0.4"/>
			<circle id="XMLID_49239_" class="st0" cx="-358.2" cy="298.3" r="0.4"/>
			<circle id="XMLID_49238_" class="st0" cx="-360.7" cy="298.3" r="0.4"/>
			<circle id="XMLID_49237_" class="st0" cx="-363.1" cy="298.3" r="0.4"/>
			<circle id="XMLID_49236_" class="st0" cx="-341.1" cy="296" r="0.4"/>
			<circle id="XMLID_49235_" class="st0" cx="-343.6" cy="296" r="0.4"/>
			<circle id="XMLID_49234_" class="st0" cx="-346" cy="296" r="0.4"/>
			<circle id="XMLID_49233_" class="st0" cx="-348.4" cy="296" r="0.4"/>
			<circle id="XMLID_49232_" class="st0" cx="-350.9" cy="296" r="0.4"/>
			<circle id="XMLID_49231_" class="st0" cx="-353.3" cy="296" r="0.4"/>
			<circle id="XMLID_49230_" class="st0" cx="-355.8" cy="296" r="0.4"/>
			<circle id="XMLID_49229_" class="st0" cx="-358.2" cy="296" r="0.4"/>
			<circle id="XMLID_49228_" class="st0" cx="-360.7" cy="296" r="0.4"/>
			<circle id="XMLID_49227_" class="st0" cx="-363.1" cy="296" r="0.4"/>
			<circle id="XMLID_49226_" class="st0" cx="-341.1" cy="293.8" r="0.4"/>
			<circle id="XMLID_49225_" class="st0" cx="-343.6" cy="293.8" r="0.4"/>
			<circle id="XMLID_49224_" class="st0" cx="-346" cy="293.8" r="0.4"/>
			<circle id="XMLID_49223_" class="st0" cx="-348.4" cy="293.8" r="0.4"/>
			<circle id="XMLID_49222_" class="st0" cx="-350.9" cy="293.8" r="0.4"/>
			<circle id="XMLID_49221_" class="st0" cx="-353.3" cy="293.8" r="0.4"/>
			<circle id="XMLID_49220_" class="st0" cx="-355.8" cy="293.8" r="0.4"/>
			<circle id="XMLID_49219_" class="st0" cx="-358.2" cy="293.8" r="0.4"/>
			<circle id="XMLID_49218_" class="st0" cx="-360.7" cy="293.8" r="0.4"/>
			<circle id="XMLID_49217_" class="st0" cx="-363.1" cy="293.8" r="0.4"/>
			<circle id="XMLID_49216_" class="st0" cx="-341.1" cy="291.5" r="0.4"/>
			<circle id="XMLID_49215_" class="st0" cx="-343.6" cy="291.5" r="0.4"/>
			<circle id="XMLID_49214_" class="st0" cx="-346" cy="291.5" r="0.4"/>
			<circle id="XMLID_49213_" class="st0" cx="-348.4" cy="291.5" r="0.4"/>
			<circle id="XMLID_49212_" class="st0" cx="-350.9" cy="291.5" r="0.4"/>
			<circle id="XMLID_49211_" class="st0" cx="-353.3" cy="291.5" r="0.4"/>
			<circle id="XMLID_49210_" class="st0" cx="-355.8" cy="291.5" r="0.4"/>
			<circle id="XMLID_49209_" class="st0" cx="-358.2" cy="291.5" r="0.4"/>
			<circle id="XMLID_49208_" class="st0" cx="-360.7" cy="291.5" r="0.4"/>
			<circle id="XMLID_49207_" class="st0" cx="-363.1" cy="291.5" r="0.4"/>
			<circle id="XMLID_49206_" class="st0" cx="-341.1" cy="289.2" r="0.4"/>
			<circle id="XMLID_49205_" class="st0" cx="-343.6" cy="289.2" r="0.4"/>
			<circle id="XMLID_49204_" class="st0" cx="-346" cy="289.2" r="0.4"/>
			<circle id="XMLID_49203_" class="st0" cx="-348.4" cy="289.2" r="0.4"/>
			<circle id="XMLID_49202_" class="st0" cx="-350.9" cy="289.2" r="0.4"/>
			<circle id="XMLID_49201_" class="st0" cx="-353.3" cy="289.2" r="0.4"/>
			<circle id="XMLID_49200_" class="st0" cx="-355.8" cy="289.2" r="0.4"/>
			<circle id="XMLID_49199_" class="st0" cx="-358.2" cy="289.2" r="0.4"/>
			<circle id="XMLID_49198_" class="st0" cx="-360.7" cy="289.2" r="0.4"/>
			<circle id="XMLID_49197_" class="st0" cx="-363.1" cy="289.2" r="0.4"/>
			<circle id="XMLID_49196_" class="st0" cx="-341.1" cy="286.9" r="0.4"/>
			<circle id="XMLID_49195_" class="st0" cx="-343.6" cy="286.9" r="0.4"/>
			<circle id="XMLID_49194_" class="st0" cx="-346" cy="286.9" r="0.4"/>
			<circle id="XMLID_49193_" class="st0" cx="-348.4" cy="286.9" r="0.4"/>
			<circle id="XMLID_49192_" class="st0" cx="-350.9" cy="286.9" r="0.4"/>
			<circle id="XMLID_49191_" class="st0" cx="-353.3" cy="286.9" r="0.4"/>
			<circle id="XMLID_49190_" class="st0" cx="-355.8" cy="286.9" r="0.4"/>
			<circle id="XMLID_49189_" class="st0" cx="-358.2" cy="286.9" r="0.4"/>
			<circle id="XMLID_49188_" class="st0" cx="-360.7" cy="286.9" r="0.4"/>
			<circle id="XMLID_49187_" class="st0" cx="-363.1" cy="286.9" r="0.4"/>
			<path id="XMLID_49186_" class="st0" d="M-341.5,284.6c0-0.2,0.2-0.4,0.4-0.4c0.2,0,0.4,0.2,0.4,0.4s-0.2,0.4-0.4,0.4
				C-341.3,285-341.5,284.9-341.5,284.6z"/>
			<path id="XMLID_49185_" class="st0" d="M-343.9,284.6c0-0.2,0.2-0.4,0.4-0.4s0.4,0.2,0.4,0.4s-0.2,0.4-0.4,0.4
				C-343.8,285-343.9,284.9-343.9,284.6z"/>
			<path id="XMLID_49184_" class="st0" d="M-346.4,284.6c0-0.2,0.2-0.4,0.4-0.4s0.4,0.2,0.4,0.4s-0.2,0.4-0.4,0.4
				S-346.4,284.9-346.4,284.6z"/>
			<path id="XMLID_49183_" class="st0" d="M-348.8,284.6c0-0.2,0.2-0.4,0.4-0.4c0.2,0,0.4,0.2,0.4,0.4s-0.2,0.4-0.4,0.4
				C-348.6,285-348.8,284.9-348.8,284.6z"/>
			<path id="XMLID_49182_" class="st0" d="M-351.3,284.6c0-0.2,0.2-0.4,0.4-0.4c0.2,0,0.4,0.2,0.4,0.4s-0.2,0.4-0.4,0.4
				C-351.1,285-351.3,284.9-351.3,284.6z"/>
			<path id="XMLID_49181_" class="st0" d="M-353.7,284.6c0-0.2,0.2-0.4,0.4-0.4c0.2,0,0.4,0.2,0.4,0.4s-0.2,0.4-0.4,0.4
				C-353.5,285-353.7,284.9-353.7,284.6z"/>
			<path id="XMLID_49180_" class="st0" d="M-356.2,284.6c0-0.2,0.2-0.4,0.4-0.4c0.2,0,0.4,0.2,0.4,0.4s-0.2,0.4-0.4,0.4
				C-356,285-356.2,284.9-356.2,284.6z"/>
			<path id="XMLID_49179_" class="st0" d="M-358.6,284.6c0-0.2,0.2-0.4,0.4-0.4c0.2,0,0.4,0.2,0.4,0.4s-0.2,0.4-0.4,0.4
				C-358.4,285-358.6,284.9-358.6,284.6z"/>
			<path id="XMLID_49178_" class="st0" d="M-361,284.6c0-0.2,0.2-0.4,0.4-0.4c0.2,0,0.4,0.2,0.4,0.4s-0.2,0.4-0.4,0.4
				C-360.9,285-361,284.9-361,284.6z"/>
			<path id="XMLID_49177_" class="st0" d="M-363.5,284.6c0-0.2,0.2-0.4,0.4-0.4c0.2,0,0.4,0.2,0.4,0.4s-0.2,0.4-0.4,0.4
				C-363.3,285-363.5,284.9-363.5,284.6z"/>
			<circle id="XMLID_49176_" class="st0" cx="-341.1" cy="282.4" r="0.4"/>
			<circle id="XMLID_49175_" class="st0" cx="-343.6" cy="282.4" r="0.4"/>
			<circle id="XMLID_49174_" class="st0" cx="-346" cy="282.4" r="0.4"/>
			<circle id="XMLID_49173_" class="st0" cx="-348.4" cy="282.4" r="0.4"/>
			<circle id="XMLID_49172_" class="st0" cx="-350.9" cy="282.4" r="0.4"/>
			<circle id="XMLID_49171_" class="st0" cx="-353.3" cy="282.4" r="0.4"/>
			<circle id="XMLID_49170_" class="st0" cx="-355.8" cy="282.4" r="0.4"/>
			<circle id="XMLID_49169_" class="st0" cx="-358.2" cy="282.4" r="0.4"/>
			<circle id="XMLID_49168_" class="st0" cx="-360.7" cy="282.4" r="0.4"/>
			<circle id="XMLID_49167_" class="st0" cx="-363.1" cy="282.4" r="0.4"/>
			<circle id="XMLID_49166_" class="st0" cx="-341.1" cy="280.1" r="0.4"/>
			<circle id="XMLID_49165_" class="st0" cx="-343.6" cy="280.1" r="0.4"/>
			<circle id="XMLID_49164_" class="st0" cx="-346" cy="280.1" r="0.4"/>
			<circle id="XMLID_49163_" class="st0" cx="-348.4" cy="280.1" r="0.4"/>
			<circle id="XMLID_49162_" class="st0" cx="-350.9" cy="280.1" r="0.4"/>
			<circle id="XMLID_49161_" class="st0" cx="-353.3" cy="280.1" r="0.4"/>
			<circle id="XMLID_49160_" class="st0" cx="-355.8" cy="280.1" r="0.4"/>
			<circle id="XMLID_49159_" class="st0" cx="-358.2" cy="280.1" r="0.4"/>
			<circle id="XMLID_49158_" class="st0" cx="-360.7" cy="280.1" r="0.4"/>
			<circle id="XMLID_49157_" class="st0" cx="-363.1" cy="280.1" r="0.4"/>
			<path id="XMLID_49156_" class="st0" d="M-317.1,321.1c0-0.2,0.2-0.4,0.4-0.4c0.2,0,0.4,0.2,0.4,0.4s-0.2,0.4-0.4,0.4
				C-316.9,321.5-317.1,321.3-317.1,321.1z"/>
			<path id="XMLID_49155_" class="st0" d="M-319.5,321.1c0-0.2,0.2-0.4,0.4-0.4c0.2,0,0.4,0.2,0.4,0.4s-0.2,0.4-0.4,0.4
				C-319.4,321.5-319.5,321.3-319.5,321.1z"/>
			<path id="XMLID_49154_" class="st0" d="M-322,321.1c0-0.2,0.2-0.4,0.4-0.4c0.2,0,0.4,0.2,0.4,0.4s-0.2,0.4-0.4,0.4
				C-321.8,321.5-322,321.3-322,321.1z"/>
			<path id="XMLID_49153_" class="st0" d="M-324.4,321.1c0-0.2,0.2-0.4,0.4-0.4s0.4,0.2,0.4,0.4s-0.2,0.4-0.4,0.4
				S-324.4,321.3-324.4,321.1z"/>
			<path id="XMLID_49152_" class="st0" d="M-326.9,321.1c0-0.2,0.2-0.4,0.4-0.4s0.4,0.2,0.4,0.4s-0.2,0.4-0.4,0.4
				S-326.9,321.3-326.9,321.1z"/>
			<path id="XMLID_49151_" class="st0" d="M-329.3,321.1c0-0.2,0.2-0.4,0.4-0.4c0.2,0,0.4,0.2,0.4,0.4s-0.2,0.4-0.4,0.4
				C-329.1,321.5-329.3,321.3-329.3,321.1z"/>
			<path id="XMLID_49150_" class="st0" d="M-331.7,321.1c0-0.2,0.2-0.4,0.4-0.4c0.2,0,0.4,0.2,0.4,0.4s-0.2,0.4-0.4,0.4
				C-331.6,321.5-331.7,321.3-331.7,321.1z"/>
			<path id="XMLID_49149_" class="st0" d="M-334.2,321.1c0-0.2,0.2-0.4,0.4-0.4c0.2,0,0.4,0.2,0.4,0.4s-0.2,0.4-0.4,0.4
				C-334,321.5-334.2,321.3-334.2,321.1z"/>
			<path id="XMLID_49148_" class="st0" d="M-336.6,321.1c0-0.2,0.2-0.4,0.4-0.4c0.2,0,0.4,0.2,0.4,0.4s-0.2,0.4-0.4,0.4
				C-336.5,321.5-336.6,321.3-336.6,321.1z"/>
			<path id="XMLID_49147_" class="st0" d="M-339.1,321.1c0-0.2,0.2-0.4,0.4-0.4c0.2,0,0.4,0.2,0.4,0.4s-0.2,0.4-0.4,0.4
				C-338.9,321.5-339.1,321.3-339.1,321.1z"/>
			<circle id="XMLID_49146_" class="st0" cx="-316.7" cy="318.8" r="0.4"/>
			<circle id="XMLID_49145_" class="st0" cx="-319.1" cy="318.8" r="0.4"/>
			<circle id="XMLID_49144_" class="st0" cx="-321.6" cy="318.8" r="0.4"/>
			<circle id="XMLID_49143_" class="st0" cx="-324" cy="318.8" r="0.4"/>
			<circle id="XMLID_49142_" class="st0" cx="-326.5" cy="318.8" r="0.4"/>
			<circle id="XMLID_49141_" class="st0" cx="-328.9" cy="318.8" r="0.4"/>
			<circle id="XMLID_49140_" class="st0" cx="-331.4" cy="318.8" r="0.4"/>
			<circle id="XMLID_49139_" class="st0" cx="-333.8" cy="318.8" r="0.4"/>
			<circle id="XMLID_49138_" class="st0" cx="-336.2" cy="318.8" r="0.4"/>
			<circle id="XMLID_49137_" class="st0" cx="-338.7" cy="318.8" r="0.4"/>
			<path id="XMLID_49136_" class="st0" d="M-317.1,316.6c0-0.2,0.2-0.4,0.4-0.4c0.2,0,0.4,0.2,0.4,0.4s-0.2,0.4-0.4,0.4
				C-316.9,316.9-317.1,316.8-317.1,316.6z"/>
			<path id="XMLID_49135_" class="st0" d="M-319.5,316.6c0-0.2,0.2-0.4,0.4-0.4c0.2,0,0.4,0.2,0.4,0.4s-0.2,0.4-0.4,0.4
				C-319.4,316.9-319.5,316.8-319.5,316.6z"/>
			<path id="XMLID_49134_" class="st0" d="M-322,316.6c0-0.2,0.2-0.4,0.4-0.4c0.2,0,0.4,0.2,0.4,0.4s-0.2,0.4-0.4,0.4
				C-321.8,316.9-322,316.8-322,316.6z"/>
			<path id="XMLID_49133_" class="st0" d="M-324.4,316.6c0-0.2,0.2-0.4,0.4-0.4s0.4,0.2,0.4,0.4s-0.2,0.4-0.4,0.4
				C-324.2,316.9-324.4,316.8-324.4,316.6z"/>
			<path id="XMLID_49132_" class="st0" d="M-326.9,316.6c0-0.2,0.2-0.4,0.4-0.4s0.4,0.2,0.4,0.4s-0.2,0.4-0.4,0.4
				C-326.7,316.9-326.9,316.8-326.9,316.6z"/>
			<path id="XMLID_49131_" class="st0" d="M-329.3,316.6c0-0.2,0.2-0.4,0.4-0.4c0.2,0,0.4,0.2,0.4,0.4s-0.2,0.4-0.4,0.4
				C-329.1,316.9-329.3,316.8-329.3,316.6z"/>
			<path id="XMLID_49130_" class="st0" d="M-331.7,316.6c0-0.2,0.2-0.4,0.4-0.4c0.2,0,0.4,0.2,0.4,0.4s-0.2,0.4-0.4,0.4
				C-331.6,316.9-331.7,316.8-331.7,316.6z"/>
			<path id="XMLID_49129_" class="st0" d="M-334.2,316.6c0-0.2,0.2-0.4,0.4-0.4c0.2,0,0.4,0.2,0.4,0.4s-0.2,0.4-0.4,0.4
				C-334,316.9-334.2,316.8-334.2,316.6z"/>
			<path id="XMLID_49128_" class="st0" d="M-336.6,316.6c0-0.2,0.2-0.4,0.4-0.4c0.2,0,0.4,0.2,0.4,0.4s-0.2,0.4-0.4,0.4
				C-336.5,316.9-336.6,316.8-336.6,316.6z"/>
			<path id="XMLID_49127_" class="st0" d="M-339.1,316.6c0-0.2,0.2-0.4,0.4-0.4c0.2,0,0.4,0.2,0.4,0.4s-0.2,0.4-0.4,0.4
				C-338.9,316.9-339.1,316.8-339.1,316.6z"/>
			<path id="XMLID_49126_" class="st0" d="M-317.1,314.3c0-0.2,0.2-0.4,0.4-0.4c0.2,0,0.4,0.2,0.4,0.4c0,0.2-0.2,0.4-0.4,0.4
				C-316.9,314.7-317.1,314.5-317.1,314.3z"/>
			<path id="XMLID_49125_" class="st0" d="M-319.5,314.3c0-0.2,0.2-0.4,0.4-0.4c0.2,0,0.4,0.2,0.4,0.4c0,0.2-0.2,0.4-0.4,0.4
				C-319.4,314.7-319.5,314.5-319.5,314.3z"/>
			<path id="XMLID_49124_" class="st0" d="M-322,314.3c0-0.2,0.2-0.4,0.4-0.4c0.2,0,0.4,0.2,0.4,0.4c0,0.2-0.2,0.4-0.4,0.4
				C-321.8,314.7-322,314.5-322,314.3z"/>
			<path id="XMLID_49123_" class="st0" d="M-324.4,314.3c0-0.2,0.2-0.4,0.4-0.4s0.4,0.2,0.4,0.4c0,0.2-0.2,0.4-0.4,0.4
				S-324.4,314.5-324.4,314.3z"/>
			<path id="XMLID_49122_" class="st0" d="M-326.9,314.3c0-0.2,0.2-0.4,0.4-0.4s0.4,0.2,0.4,0.4c0,0.2-0.2,0.4-0.4,0.4
				S-326.9,314.5-326.9,314.3z"/>
			<path id="XMLID_49121_" class="st0" d="M-329.3,314.3c0-0.2,0.2-0.4,0.4-0.4c0.2,0,0.4,0.2,0.4,0.4c0,0.2-0.2,0.4-0.4,0.4
				C-329.1,314.7-329.3,314.5-329.3,314.3z"/>
			<path id="XMLID_49120_" class="st0" d="M-331.7,314.3c0-0.2,0.2-0.4,0.4-0.4c0.2,0,0.4,0.2,0.4,0.4c0,0.2-0.2,0.4-0.4,0.4
				C-331.6,314.7-331.7,314.5-331.7,314.3z"/>
			<path id="XMLID_49119_" class="st0" d="M-334.2,314.3c0-0.2,0.2-0.4,0.4-0.4c0.2,0,0.4,0.2,0.4,0.4c0,0.2-0.2,0.4-0.4,0.4
				C-334,314.7-334.2,314.5-334.2,314.3z"/>
			<path id="XMLID_49118_" class="st0" d="M-336.6,314.3c0-0.2,0.2-0.4,0.4-0.4c0.2,0,0.4,0.2,0.4,0.4c0,0.2-0.2,0.4-0.4,0.4
				C-336.5,314.7-336.6,314.5-336.6,314.3z"/>
			<path id="XMLID_49117_" class="st0" d="M-339.1,314.3c0-0.2,0.2-0.4,0.4-0.4c0.2,0,0.4,0.2,0.4,0.4c0,0.2-0.2,0.4-0.4,0.4
				C-338.9,314.7-339.1,314.5-339.1,314.3z"/>
			<circle id="XMLID_49116_" class="st0" cx="-316.7" cy="312" r="0.4"/>
			<circle id="XMLID_49115_" class="st0" cx="-319.1" cy="312" r="0.4"/>
			<circle id="XMLID_49114_" class="st0" cx="-321.6" cy="312" r="0.4"/>
			<circle id="XMLID_49113_" class="st0" cx="-324" cy="312" r="0.4"/>
			<circle id="XMLID_49112_" class="st0" cx="-326.5" cy="312" r="0.4"/>
			<circle id="XMLID_49111_" class="st0" cx="-328.9" cy="312" r="0.4"/>
			<circle id="XMLID_49110_" class="st0" cx="-331.4" cy="312" r="0.4"/>
			<circle id="XMLID_49109_" class="st0" cx="-333.8" cy="312" r="0.4"/>
			<circle id="XMLID_49108_" class="st0" cx="-336.2" cy="312" r="0.4"/>
			<circle id="XMLID_49107_" class="st0" cx="-338.7" cy="312" r="0.4"/>
			<circle id="XMLID_49106_" class="st0" cx="-316.7" cy="309.7" r="0.4"/>
			<circle id="XMLID_49105_" class="st0" cx="-319.1" cy="309.7" r="0.4"/>
			<circle id="XMLID_49104_" class="st0" cx="-321.6" cy="309.7" r="0.4"/>
			<circle id="XMLID_49103_" class="st0" cx="-324" cy="309.7" r="0.4"/>
			<circle id="XMLID_49102_" class="st0" cx="-326.5" cy="309.7" r="0.4"/>
			<circle id="XMLID_49101_" class="st0" cx="-328.9" cy="309.7" r="0.4"/>
			<circle id="XMLID_49100_" class="st0" cx="-331.4" cy="309.7" r="0.4"/>
			<circle id="XMLID_49099_" class="st0" cx="-333.8" cy="309.7" r="0.4"/>
			<circle id="XMLID_49098_" class="st0" cx="-336.2" cy="309.7" r="0.4"/>
			<circle id="XMLID_49097_" class="st0" cx="-338.7" cy="309.7" r="0.4"/>
			<circle id="XMLID_49096_" class="st0" cx="-316.7" cy="307.4" r="0.4"/>
			<circle id="XMLID_49095_" class="st0" cx="-319.1" cy="307.4" r="0.4"/>
			<circle id="XMLID_49094_" class="st0" cx="-321.6" cy="307.4" r="0.4"/>
			<circle id="XMLID_49093_" class="st0" cx="-324" cy="307.4" r="0.4"/>
			<circle id="XMLID_49092_" class="st0" cx="-326.5" cy="307.4" r="0.4"/>
			<circle id="XMLID_49091_" class="st0" cx="-328.9" cy="307.4" r="0.4"/>
			<circle id="XMLID_49090_" class="st0" cx="-331.4" cy="307.4" r="0.4"/>
			<circle id="XMLID_49089_" class="st0" cx="-333.8" cy="307.4" r="0.4"/>
			<circle id="XMLID_49088_" class="st0" cx="-336.2" cy="307.4" r="0.4"/>
			<circle id="XMLID_49087_" class="st0" cx="-338.7" cy="307.4" r="0.4"/>
			<circle id="XMLID_49086_" class="st0" cx="-316.7" cy="305.2" r="0.4"/>
			<circle id="XMLID_49085_" class="st0" cx="-319.1" cy="305.2" r="0.4"/>
			<circle id="XMLID_49084_" class="st0" cx="-321.6" cy="305.2" r="0.4"/>
			<circle id="XMLID_49083_" class="st0" cx="-324" cy="305.2" r="0.4"/>
			<circle id="XMLID_49082_" class="st0" cx="-326.5" cy="305.2" r="0.4"/>
			<circle id="XMLID_49081_" class="st0" cx="-328.9" cy="305.2" r="0.4"/>
			<circle id="XMLID_49080_" class="st0" cx="-331.4" cy="305.2" r="0.4"/>
			<circle id="XMLID_49079_" class="st0" cx="-333.8" cy="305.2" r="0.4"/>
			<circle id="XMLID_49078_" class="st0" cx="-336.2" cy="305.2" r="0.4"/>
			<circle id="XMLID_49077_" class="st0" cx="-338.7" cy="305.2" r="0.4"/>
			<circle id="XMLID_49076_" class="st0" cx="-316.7" cy="302.9" r="0.4"/>
			<circle id="XMLID_49075_" class="st0" cx="-319.1" cy="302.9" r="0.4"/>
			<circle id="XMLID_49074_" class="st0" cx="-321.6" cy="302.9" r="0.4"/>
			<circle id="XMLID_49073_" class="st0" cx="-324" cy="302.9" r="0.4"/>
			<circle id="XMLID_49072_" class="st0" cx="-326.5" cy="302.9" r="0.4"/>
			<circle id="XMLID_49071_" class="st0" cx="-328.9" cy="302.9" r="0.4"/>
			<circle id="XMLID_49070_" class="st0" cx="-331.4" cy="302.9" r="0.4"/>
			<circle id="XMLID_49069_" class="st0" cx="-333.8" cy="302.9" r="0.4"/>
			<circle id="XMLID_49068_" class="st0" cx="-336.2" cy="302.9" r="0.4"/>
			<circle id="XMLID_49067_" class="st0" cx="-338.7" cy="302.9" r="0.4"/>
			<circle id="XMLID_49066_" class="st0" cx="-316.7" cy="300.6" r="0.4"/>
			<circle id="XMLID_49065_" class="st0" cx="-319.1" cy="300.6" r="0.4"/>
			<circle id="XMLID_49064_" class="st0" cx="-321.6" cy="300.6" r="0.4"/>
			<circle id="XMLID_49063_" class="st0" cx="-324" cy="300.6" r="0.4"/>
			<circle id="XMLID_49062_" class="st0" cx="-326.5" cy="300.6" r="0.4"/>
			<circle id="XMLID_49061_" class="st0" cx="-328.9" cy="300.6" r="0.4"/>
			<circle id="XMLID_49060_" class="st0" cx="-331.4" cy="300.6" r="0.4"/>
			<circle id="XMLID_49059_" class="st0" cx="-333.8" cy="300.6" r="0.4"/>
			<circle id="XMLID_49058_" class="st0" cx="-336.2" cy="300.6" r="0.4"/>
			<circle id="XMLID_49057_" class="st0" cx="-338.7" cy="300.6" r="0.4"/>
			<circle id="XMLID_49056_" class="st0" cx="-316.7" cy="298.3" r="0.4"/>
			<circle id="XMLID_49055_" class="st0" cx="-319.1" cy="298.3" r="0.4"/>
			<circle id="XMLID_49054_" class="st0" cx="-321.6" cy="298.3" r="0.4"/>
			<circle id="XMLID_49053_" class="st0" cx="-324" cy="298.3" r="0.4"/>
			<circle id="XMLID_49052_" class="st0" cx="-326.5" cy="298.3" r="0.4"/>
			<circle id="XMLID_49051_" class="st0" cx="-328.9" cy="298.3" r="0.4"/>
			<circle id="XMLID_49050_" class="st0" cx="-331.4" cy="298.3" r="0.4"/>
			<circle id="XMLID_49049_" class="st0" cx="-333.8" cy="298.3" r="0.4"/>
			<circle id="XMLID_49048_" class="st0" cx="-336.2" cy="298.3" r="0.4"/>
			<circle id="XMLID_49047_" class="st0" cx="-338.7" cy="298.3" r="0.4"/>
			<circle id="XMLID_49046_" class="st0" cx="-316.7" cy="296" r="0.4"/>
			<circle id="XMLID_49045_" class="st0" cx="-319.1" cy="296" r="0.4"/>
			<circle id="XMLID_49044_" class="st0" cx="-321.6" cy="296" r="0.4"/>
			<circle id="XMLID_49043_" class="st0" cx="-324" cy="296" r="0.4"/>
			<circle id="XMLID_49042_" class="st0" cx="-326.5" cy="296" r="0.4"/>
			<circle id="XMLID_49041_" class="st0" cx="-328.9" cy="296" r="0.4"/>
			<circle id="XMLID_49040_" class="st0" cx="-331.4" cy="296" r="0.4"/>
			<circle id="XMLID_49039_" class="st0" cx="-333.8" cy="296" r="0.4"/>
			<circle id="XMLID_49038_" class="st0" cx="-336.2" cy="296" r="0.4"/>
			<circle id="XMLID_49037_" class="st0" cx="-338.7" cy="296" r="0.4"/>
			<circle id="XMLID_49036_" class="st0" cx="-316.7" cy="293.8" r="0.4"/>
			<circle id="XMLID_49035_" class="st0" cx="-319.1" cy="293.8" r="0.4"/>
			<circle id="XMLID_49034_" class="st0" cx="-321.6" cy="293.8" r="0.4"/>
			<circle id="XMLID_49033_" class="st0" cx="-324" cy="293.8" r="0.4"/>
			<circle id="XMLID_49032_" class="st0" cx="-326.5" cy="293.8" r="0.4"/>
			<circle id="XMLID_49031_" class="st0" cx="-328.9" cy="293.8" r="0.4"/>
			<circle id="XMLID_49030_" class="st0" cx="-331.4" cy="293.8" r="0.4"/>
			<circle id="XMLID_49029_" class="st0" cx="-333.8" cy="293.8" r="0.4"/>
			<circle id="XMLID_49028_" class="st0" cx="-336.2" cy="293.8" r="0.4"/>
			<circle id="XMLID_49027_" class="st0" cx="-338.7" cy="293.8" r="0.4"/>
			<circle id="XMLID_49026_" class="st0" cx="-316.7" cy="291.5" r="0.4"/>
			<circle id="XMLID_49025_" class="st0" cx="-319.1" cy="291.5" r="0.4"/>
			<circle id="XMLID_49024_" class="st0" cx="-321.6" cy="291.5" r="0.4"/>
			<circle id="XMLID_49023_" class="st0" cx="-324" cy="291.5" r="0.4"/>
			<circle id="XMLID_49022_" class="st0" cx="-326.5" cy="291.5" r="0.4"/>
			<circle id="XMLID_49021_" class="st0" cx="-328.9" cy="291.5" r="0.4"/>
			<circle id="XMLID_49020_" class="st0" cx="-331.4" cy="291.5" r="0.4"/>
			<circle id="XMLID_49019_" class="st0" cx="-333.8" cy="291.5" r="0.4"/>
			<circle id="XMLID_49018_" class="st0" cx="-336.2" cy="291.5" r="0.4"/>
			<circle id="XMLID_49017_" class="st0" cx="-338.7" cy="291.5" r="0.4"/>
			<circle id="XMLID_49016_" class="st0" cx="-316.7" cy="289.2" r="0.4"/>
			<circle id="XMLID_49015_" class="st0" cx="-319.1" cy="289.2" r="0.4"/>
			<circle id="XMLID_49014_" class="st0" cx="-321.6" cy="289.2" r="0.4"/>
			<circle id="XMLID_49013_" class="st0" cx="-324" cy="289.2" r="0.4"/>
			<circle id="XMLID_49012_" class="st0" cx="-326.5" cy="289.2" r="0.4"/>
			<circle id="XMLID_49011_" class="st0" cx="-328.9" cy="289.2" r="0.4"/>
			<circle id="XMLID_49010_" class="st0" cx="-331.4" cy="289.2" r="0.4"/>
			<circle id="XMLID_49009_" class="st0" cx="-333.8" cy="289.2" r="0.4"/>
			<circle id="XMLID_49008_" class="st0" cx="-336.2" cy="289.2" r="0.4"/>
			<circle id="XMLID_49007_" class="st0" cx="-338.7" cy="289.2" r="0.4"/>
			<circle id="XMLID_49006_" class="st0" cx="-316.7" cy="286.9" r="0.4"/>
			<circle id="XMLID_49005_" class="st0" cx="-319.1" cy="286.9" r="0.4"/>
			<circle id="XMLID_49004_" class="st0" cx="-321.6" cy="286.9" r="0.4"/>
			<circle id="XMLID_49003_" class="st0" cx="-324" cy="286.9" r="0.4"/>
			<circle id="XMLID_49002_" class="st0" cx="-326.5" cy="286.9" r="0.4"/>
			<circle id="XMLID_49001_" class="st0" cx="-328.9" cy="286.9" r="0.4"/>
			<circle id="XMLID_49000_" class="st0" cx="-331.4" cy="286.9" r="0.4"/>
			<circle id="XMLID_48999_" class="st0" cx="-333.8" cy="286.9" r="0.4"/>
			<circle id="XMLID_48998_" class="st0" cx="-336.2" cy="286.9" r="0.4"/>
			<circle id="XMLID_48997_" class="st0" cx="-338.7" cy="286.9" r="0.4"/>
			<path id="XMLID_48996_" class="st0" d="M-317.1,284.6c0-0.2,0.2-0.4,0.4-0.4c0.2,0,0.4,0.2,0.4,0.4s-0.2,0.4-0.4,0.4
				C-316.9,285-317.1,284.9-317.1,284.6z"/>
			<path id="XMLID_48995_" class="st0" d="M-319.5,284.6c0-0.2,0.2-0.4,0.4-0.4c0.2,0,0.4,0.2,0.4,0.4s-0.2,0.4-0.4,0.4
				C-319.4,285-319.5,284.9-319.5,284.6z"/>
			<path id="XMLID_48994_" class="st0" d="M-322,284.6c0-0.2,0.2-0.4,0.4-0.4c0.2,0,0.4,0.2,0.4,0.4s-0.2,0.4-0.4,0.4
				C-321.8,285-322,284.9-322,284.6z"/>
			<path id="XMLID_48993_" class="st0" d="M-324.4,284.6c0-0.2,0.2-0.4,0.4-0.4s0.4,0.2,0.4,0.4s-0.2,0.4-0.4,0.4
				S-324.4,284.9-324.4,284.6z"/>
			<path id="XMLID_48992_" class="st0" d="M-326.9,284.6c0-0.2,0.2-0.4,0.4-0.4s0.4,0.2,0.4,0.4s-0.2,0.4-0.4,0.4
				S-326.9,284.9-326.9,284.6z"/>
			<path id="XMLID_48991_" class="st0" d="M-329.3,284.6c0-0.2,0.2-0.4,0.4-0.4c0.2,0,0.4,0.2,0.4,0.4s-0.2,0.4-0.4,0.4
				C-329.1,285-329.3,284.9-329.3,284.6z"/>
			<path id="XMLID_48990_" class="st0" d="M-331.7,284.6c0-0.2,0.2-0.4,0.4-0.4c0.2,0,0.4,0.2,0.4,0.4s-0.2,0.4-0.4,0.4
				C-331.6,285-331.7,284.9-331.7,284.6z"/>
			<path id="XMLID_48989_" class="st0" d="M-334.2,284.6c0-0.2,0.2-0.4,0.4-0.4c0.2,0,0.4,0.2,0.4,0.4s-0.2,0.4-0.4,0.4
				C-334,285-334.2,284.9-334.2,284.6z"/>
			<path id="XMLID_48988_" class="st0" d="M-336.6,284.6c0-0.2,0.2-0.4,0.4-0.4c0.2,0,0.4,0.2,0.4,0.4s-0.2,0.4-0.4,0.4
				C-336.5,285-336.6,284.9-336.6,284.6z"/>
			<path id="XMLID_48987_" class="st0" d="M-339.1,284.6c0-0.2,0.2-0.4,0.4-0.4c0.2,0,0.4,0.2,0.4,0.4s-0.2,0.4-0.4,0.4
				C-338.9,285-339.1,284.9-339.1,284.6z"/>
			<circle id="XMLID_48986_" class="st0" cx="-316.7" cy="282.4" r="0.4"/>
			<circle id="XMLID_48985_" class="st0" cx="-319.1" cy="282.4" r="0.4"/>
			<circle id="XMLID_48984_" class="st0" cx="-321.6" cy="282.4" r="0.4"/>
			<circle id="XMLID_48983_" class="st0" cx="-324" cy="282.4" r="0.4"/>
			<circle id="XMLID_48982_" class="st0" cx="-326.5" cy="282.4" r="0.4"/>
			<circle id="XMLID_48981_" class="st0" cx="-328.9" cy="282.4" r="0.4"/>
			<circle id="XMLID_48980_" class="st0" cx="-331.4" cy="282.4" r="0.4"/>
			<circle id="XMLID_48979_" class="st0" cx="-333.8" cy="282.4" r="0.4"/>
			<circle id="XMLID_48978_" class="st0" cx="-336.2" cy="282.4" r="0.4"/>
			<circle id="XMLID_48977_" class="st0" cx="-338.7" cy="282.4" r="0.4"/>
			<circle id="XMLID_48976_" class="st0" cx="-316.7" cy="280.1" r="0.4"/>
			<circle id="XMLID_48975_" class="st0" cx="-319.1" cy="280.1" r="0.4"/>
			<circle id="XMLID_48974_" class="st0" cx="-321.6" cy="280.1" r="0.4"/>
			<circle id="XMLID_48973_" class="st0" cx="-324" cy="280.1" r="0.4"/>
			<circle id="XMLID_48972_" class="st0" cx="-326.5" cy="280.1" r="0.4"/>
			<circle id="XMLID_48971_" class="st0" cx="-328.9" cy="280.1" r="0.4"/>
			<circle id="XMLID_48970_" class="st0" cx="-331.4" cy="280.1" r="0.4"/>
			<circle id="XMLID_48969_" class="st0" cx="-333.8" cy="280.1" r="0.4"/>
			<circle id="XMLID_48968_" class="st0" cx="-336.2" cy="280.1" r="0.4"/>
			<circle id="XMLID_48967_" class="st0" cx="-338.7" cy="280.1" r="0.4"/>
			<path id="XMLID_48966_" class="st0" d="M-304.9,321.1c0-0.2,0.2-0.4,0.4-0.4s0.4,0.2,0.4,0.4s-0.2,0.4-0.4,0.4
				S-304.9,321.3-304.9,321.1z"/>
			<path id="XMLID_48965_" class="st0" d="M-307.3,321.1c0-0.2,0.2-0.4,0.4-0.4c0.2,0,0.4,0.2,0.4,0.4s-0.2,0.4-0.4,0.4
				C-307.2,321.5-307.3,321.3-307.3,321.1z"/>
			<path id="XMLID_48964_" class="st0" d="M-309.8,321.1c0-0.2,0.2-0.4,0.4-0.4c0.2,0,0.4,0.2,0.4,0.4s-0.2,0.4-0.4,0.4
				C-309.6,321.5-309.8,321.3-309.8,321.1z"/>
			<path id="XMLID_48963_" class="st0" d="M-312.2,321.1c0-0.2,0.2-0.4,0.4-0.4c0.2,0,0.4,0.2,0.4,0.4s-0.2,0.4-0.4,0.4
				S-312.2,321.3-312.2,321.1z"/>
			<path id="XMLID_48962_" class="st0" d="M-314.7,321.1c0-0.2,0.2-0.4,0.4-0.4c0.2,0,0.4,0.2,0.4,0.4s-0.2,0.4-0.4,0.4
				C-314.5,321.5-314.7,321.3-314.7,321.1z"/>
			<circle id="XMLID_48961_" class="st0" cx="-304.5" cy="318.8" r="0.4"/>
			<circle id="XMLID_48960_" class="st0" cx="-306.9" cy="318.8" r="0.4"/>
			<circle id="XMLID_48959_" class="st0" cx="-309.4" cy="318.8" r="0.4"/>
			<circle id="XMLID_48958_" class="st0" cx="-311.8" cy="318.8" r="0.4"/>
			<circle id="XMLID_48957_" class="st0" cx="-314.3" cy="318.8" r="0.4"/>
			<path id="XMLID_48956_" class="st0" d="M-304.9,316.6c0-0.2,0.2-0.4,0.4-0.4s0.4,0.2,0.4,0.4s-0.2,0.4-0.4,0.4
				C-304.7,316.9-304.9,316.8-304.9,316.6z"/>
			<path id="XMLID_48955_" class="st0" d="M-307.3,316.6c0-0.2,0.2-0.4,0.4-0.4c0.2,0,0.4,0.2,0.4,0.4s-0.2,0.4-0.4,0.4
				C-307.2,316.9-307.3,316.8-307.3,316.6z"/>
			<path id="XMLID_48954_" class="st0" d="M-309.8,316.6c0-0.2,0.2-0.4,0.4-0.4c0.2,0,0.4,0.2,0.4,0.4s-0.2,0.4-0.4,0.4
				C-309.6,316.9-309.8,316.8-309.8,316.6z"/>
			<path id="XMLID_48953_" class="st0" d="M-312.2,316.6c0-0.2,0.2-0.4,0.4-0.4c0.2,0,0.4,0.2,0.4,0.4s-0.2,0.4-0.4,0.4
				C-312,316.9-312.2,316.8-312.2,316.6z"/>
			<path id="XMLID_48952_" class="st0" d="M-314.7,316.6c0-0.2,0.2-0.4,0.4-0.4c0.2,0,0.4,0.2,0.4,0.4s-0.2,0.4-0.4,0.4
				C-314.5,316.9-314.7,316.8-314.7,316.6z"/>
			<path id="XMLID_48951_" class="st0" d="M-304.9,314.3c0-0.2,0.2-0.4,0.4-0.4s0.4,0.2,0.4,0.4c0,0.2-0.2,0.4-0.4,0.4
				S-304.9,314.5-304.9,314.3z"/>
			<path id="XMLID_48950_" class="st0" d="M-307.3,314.3c0-0.2,0.2-0.4,0.4-0.4c0.2,0,0.4,0.2,0.4,0.4c0,0.2-0.2,0.4-0.4,0.4
				C-307.2,314.7-307.3,314.5-307.3,314.3z"/>
			<path id="XMLID_48949_" class="st0" d="M-309.8,314.3c0-0.2,0.2-0.4,0.4-0.4c0.2,0,0.4,0.2,0.4,0.4c0,0.2-0.2,0.4-0.4,0.4
				C-309.6,314.7-309.8,314.5-309.8,314.3z"/>
			<path id="XMLID_48948_" class="st0" d="M-312.2,314.3c0-0.2,0.2-0.4,0.4-0.4c0.2,0,0.4,0.2,0.4,0.4c0,0.2-0.2,0.4-0.4,0.4
				S-312.2,314.5-312.2,314.3z"/>
			<path id="XMLID_48947_" class="st0" d="M-314.7,314.3c0-0.2,0.2-0.4,0.4-0.4c0.2,0,0.4,0.2,0.4,0.4c0,0.2-0.2,0.4-0.4,0.4
				C-314.5,314.7-314.7,314.5-314.7,314.3z"/>
			<circle id="XMLID_48946_" class="st0" cx="-304.5" cy="312" r="0.4"/>
			<circle id="XMLID_48945_" class="st0" cx="-306.9" cy="312" r="0.4"/>
			<circle id="XMLID_48944_" class="st0" cx="-309.4" cy="312" r="0.4"/>
			<circle id="XMLID_48943_" class="st0" cx="-311.8" cy="312" r="0.4"/>
			<circle id="XMLID_48942_" class="st0" cx="-314.3" cy="312" r="0.4"/>
			<circle id="XMLID_48941_" class="st0" cx="-304.5" cy="309.7" r="0.4"/>
			<circle id="XMLID_48940_" class="st0" cx="-306.9" cy="309.7" r="0.4"/>
			<circle id="XMLID_48939_" class="st0" cx="-309.4" cy="309.7" r="0.4"/>
			<circle id="XMLID_48938_" class="st0" cx="-311.8" cy="309.7" r="0.4"/>
			<circle id="XMLID_48937_" class="st0" cx="-314.3" cy="309.7" r="0.4"/>
			<circle id="XMLID_48936_" class="st0" cx="-304.5" cy="307.4" r="0.4"/>
			<circle id="XMLID_48935_" class="st0" cx="-306.9" cy="307.4" r="0.4"/>
			<circle id="XMLID_48934_" class="st0" cx="-309.4" cy="307.4" r="0.4"/>
			<circle id="XMLID_48933_" class="st0" cx="-311.8" cy="307.4" r="0.4"/>
			<circle id="XMLID_48932_" class="st0" cx="-314.3" cy="307.4" r="0.4"/>
			<circle id="XMLID_48931_" class="st0" cx="-304.5" cy="305.2" r="0.4"/>
			<circle id="XMLID_48930_" class="st0" cx="-306.9" cy="305.2" r="0.4"/>
			<circle id="XMLID_48929_" class="st0" cx="-309.4" cy="305.2" r="0.4"/>
			<circle id="XMLID_48927_" class="st0" cx="-311.8" cy="305.2" r="0.4"/>
			<circle id="XMLID_48925_" class="st0" cx="-314.3" cy="305.2" r="0.4"/>
			<circle id="XMLID_48923_" class="st0" cx="-304.5" cy="302.9" r="0.4"/>
			<circle id="XMLID_48922_" class="st0" cx="-306.9" cy="302.9" r="0.4"/>
			<circle id="XMLID_48921_" class="st0" cx="-309.4" cy="302.9" r="0.4"/>
			<circle id="XMLID_48920_" class="st0" cx="-311.8" cy="302.9" r="0.4"/>
			<circle id="XMLID_48919_" class="st0" cx="-314.3" cy="302.9" r="0.4"/>
			<circle id="XMLID_48918_" class="st0" cx="-304.5" cy="300.6" r="0.4"/>
			<circle id="XMLID_48917_" class="st0" cx="-306.9" cy="300.6" r="0.4"/>
			<circle id="XMLID_48916_" class="st0" cx="-309.4" cy="300.6" r="0.4"/>
			<circle id="XMLID_48915_" class="st0" cx="-311.8" cy="300.6" r="0.4"/>
			<circle id="XMLID_48914_" class="st0" cx="-314.3" cy="300.6" r="0.4"/>
			<circle id="XMLID_48913_" class="st0" cx="-304.5" cy="298.3" r="0.4"/>
			<circle id="XMLID_48912_" class="st0" cx="-306.9" cy="298.3" r="0.4"/>
			<circle id="XMLID_48911_" class="st0" cx="-309.4" cy="298.3" r="0.4"/>
			<circle id="XMLID_48910_" class="st0" cx="-311.8" cy="298.3" r="0.4"/>
			<circle id="XMLID_48909_" class="st0" cx="-314.3" cy="298.3" r="0.4"/>
			<circle id="XMLID_48908_" class="st0" cx="-304.5" cy="296" r="0.4"/>
			<circle id="XMLID_48907_" class="st0" cx="-306.9" cy="296" r="0.4"/>
			<circle id="XMLID_48906_" class="st0" cx="-309.4" cy="296" r="0.4"/>
			<circle id="XMLID_48905_" class="st0" cx="-311.8" cy="296" r="0.4"/>
			<circle id="XMLID_48904_" class="st0" cx="-314.3" cy="296" r="0.4"/>
			<circle id="XMLID_48903_" class="st0" cx="-304.5" cy="293.8" r="0.4"/>
			<circle id="XMLID_48902_" class="st0" cx="-306.9" cy="293.8" r="0.4"/>
			<circle id="XMLID_48901_" class="st0" cx="-309.4" cy="293.8" r="0.4"/>
			<circle id="XMLID_48900_" class="st0" cx="-311.8" cy="293.8" r="0.4"/>
			<circle id="XMLID_48899_" class="st0" cx="-314.3" cy="293.8" r="0.4"/>
			<circle id="XMLID_48898_" class="st0" cx="-304.5" cy="291.5" r="0.4"/>
			<circle id="XMLID_48897_" class="st0" cx="-306.9" cy="291.5" r="0.4"/>
			<circle id="XMLID_48896_" class="st0" cx="-309.4" cy="291.5" r="0.4"/>
			<circle id="XMLID_48895_" class="st0" cx="-311.8" cy="291.5" r="0.4"/>
			<circle id="XMLID_48894_" class="st0" cx="-314.3" cy="291.5" r="0.4"/>
			<circle id="XMLID_48893_" class="st0" cx="-304.5" cy="289.2" r="0.4"/>
			<circle id="XMLID_48892_" class="st0" cx="-306.9" cy="289.2" r="0.4"/>
			<circle id="XMLID_48891_" class="st0" cx="-309.4" cy="289.2" r="0.4"/>
			<circle id="XMLID_48890_" class="st0" cx="-311.8" cy="289.2" r="0.4"/>
			<circle id="XMLID_48889_" class="st0" cx="-314.3" cy="289.2" r="0.4"/>
			<circle id="XMLID_48888_" class="st0" cx="-304.5" cy="286.9" r="0.4"/>
			<circle id="XMLID_48887_" class="st0" cx="-306.9" cy="286.9" r="0.4"/>
			<circle id="XMLID_48886_" class="st0" cx="-309.4" cy="286.9" r="0.4"/>
			<circle id="XMLID_48885_" class="st0" cx="-311.8" cy="286.9" r="0.4"/>
			<circle id="XMLID_48884_" class="st0" cx="-314.3" cy="286.9" r="0.4"/>
			<path id="XMLID_48883_" class="st0" d="M-304.9,284.6c0-0.2,0.2-0.4,0.4-0.4s0.4,0.2,0.4,0.4s-0.2,0.4-0.4,0.4
				S-304.9,284.9-304.9,284.6z"/>
			<path id="XMLID_48882_" class="st0" d="M-307.3,284.6c0-0.2,0.2-0.4,0.4-0.4c0.2,0,0.4,0.2,0.4,0.4s-0.2,0.4-0.4,0.4
				C-307.2,285-307.3,284.9-307.3,284.6z"/>
			<path id="XMLID_48881_" class="st0" d="M-309.8,284.6c0-0.2,0.2-0.4,0.4-0.4c0.2,0,0.4,0.2,0.4,0.4s-0.2,0.4-0.4,0.4
				C-309.6,285-309.8,284.9-309.8,284.6z"/>
			<path id="XMLID_48880_" class="st0" d="M-312.2,284.6c0-0.2,0.2-0.4,0.4-0.4c0.2,0,0.4,0.2,0.4,0.4s-0.2,0.4-0.4,0.4
				S-312.2,284.9-312.2,284.6z"/>
			<path id="XMLID_48879_" class="st0" d="M-314.7,284.6c0-0.2,0.2-0.4,0.4-0.4c0.2,0,0.4,0.2,0.4,0.4s-0.2,0.4-0.4,0.4
				C-314.5,285-314.7,284.9-314.7,284.6z"/>
			<circle id="XMLID_48878_" class="st0" cx="-304.5" cy="282.4" r="0.4"/>
			<circle id="XMLID_48877_" class="st0" cx="-306.9" cy="282.4" r="0.4"/>
			<circle id="XMLID_48876_" class="st0" cx="-309.4" cy="282.4" r="0.4"/>
			<circle id="XMLID_48875_" class="st0" cx="-311.8" cy="282.4" r="0.4"/>
			<circle id="XMLID_48874_" class="st0" cx="-314.3" cy="282.4" r="0.4"/>
			<circle id="XMLID_48873_" class="st0" cx="-304.5" cy="280.1" r="0.4"/>
			<circle id="XMLID_48872_" class="st0" cx="-306.9" cy="280.1" r="0.4"/>
			<circle id="XMLID_48871_" class="st0" cx="-309.4" cy="280.1" r="0.4"/>
			<circle id="XMLID_48870_" class="st0" cx="-311.8" cy="280.1" r="0.4"/>
			<circle id="XMLID_48869_" class="st0" cx="-314.3" cy="280.1" r="0.4"/>
		</g>
		<rect id="XMLID_48867_" x="-360.1" y="272" class="st1" width="60" height="44.1"/>
		<path id="XMLID_48866_" class="st2" d="M-346.5,290.5h-1.7c-1.6,0-2.9-1.3-2.9-2.9v-1.7c0-1.6,1.3-2.9,2.9-2.9h1.7
			c1.6,0,2.9,1.3,2.9,2.9v1.7C-343.6,289.1-344.9,290.5-346.5,290.5z"/>
		<polygon id="XMLID_10262_" class="st0" points="-355.5,286.8 -354,284.9 -352.6,282.9 -352.6,286.8 -352.6,290.6 -354,288.7 		"/>
	</g>
	<g id="XMLID_28_">
		<rect id="XMLID_43_" x="-318.3" y="304.8" class="st2" width="1" height="7.2"/>
		<rect id="XMLID_42_" x="-314.4" y="304.8" class="st2" width="1" height="7.2"/>
		<rect id="XMLID_41_" x="-312.1" y="304.8" class="st2" width="1" height="7.2"/>
		<rect id="XMLID_40_" x="-308.1" y="304.8" class="st2" width="1" height="7.2"/>
		<rect id="XMLID_39_" x="-316.5" y="304.8" class="st2" width="0.3" height="7.2"/>
		<rect id="XMLID_38_" x="-312.9" y="304.8" class="st2" width="0.3" height="7.2"/>
		<rect id="XMLID_37_" x="-305.3" y="304.8" class="st2" width="1" height="7.2"/>
		<rect id="XMLID_36_" x="-306" y="304.8" class="st2" width="0.3" height="7.2"/>
		<rect id="XMLID_35_" x="-309.4" y="304.8" class="st2" width="0.3" height="7.2"/>
		<rect id="XMLID_34_" x="-308.8" y="304.8" class="st2" width="0.3" height="7.2"/>
		<rect id="XMLID_33_" x="-306.7" y="304.8" class="st2" width="0.3" height="7.2"/>
		<rect id="XMLID_32_" x="-320.8" y="304.8" class="st2" width="1" height="7.2"/>
		<rect id="XMLID_31_" x="-321.6" y="304.8" class="st2" width="0.3" height="7.2"/>
		<rect id="XMLID_30_" x="-322.2" y="304.8" class="st2" width="0.3" height="7.2"/>
	</g>
</g>
</svg>
