<svg id="Layer_1" data-name="Layer 1" xmlns="http://www.w3.org/2000/svg" viewBox="0 0 297.35 6.43"><defs><style>.cls-1{fill:none;stroke:#207fc3;stroke-miterlimit:10;stroke-width:1.61px;}</style></defs><title>br</title><path class="cls-1" d="M0,0.8c3.72,0,3.72,4.82,7.43,4.82S11.15,0.8,14.86.8s3.72,4.82,7.43,4.82S26,0.8,29.73.8s3.72,4.82,7.43,4.82S40.88,0.8,44.59.8,48.31,5.63,52,5.63,55.74,0.8,59.46.8s3.72,4.82,7.43,4.82S70.61,0.8,74.32.8,78,5.63,81.76,5.63,85.47,0.8,89.19.8s3.71,4.82,7.43,4.82S100.33,0.8,104,.8s3.72,4.82,7.43,4.82S115.19,0.8,118.91.8s3.72,4.82,7.43,4.82S130.05,0.8,133.77.8s3.71,4.82,7.43,4.82S144.92,0.8,148.63.8s3.72,4.82,7.43,4.82S159.78,0.8,163.5.8s3.72,4.82,7.43,4.82S174.65,0.8,178.36.8s3.72,4.82,7.43,4.82S189.51,0.8,193.23.8s3.72,4.82,7.44,4.82S204.38,0.8,208.1.8s3.72,4.82,7.43,4.82S219.25,0.8,223,.8s3.72,4.82,7.44,4.82S234.12,0.8,237.84.8s3.72,4.82,7.44,4.82S249,0.8,252.71.8s3.72,4.82,7.44,4.82S263.86,0.8,267.58.8,271.3,5.63,275,5.63,278.74,0.8,282.46.8s3.72,4.82,7.44,4.82S293.62,0.8,297.35.8"/></svg>