<svg id="status-icon" data-name="圖層 10" xmlns="http://www.w3.org/2000/svg" xmlns:xlink="http://www.w3.org/1999/xlink" viewBox="0 0 111.23 107.67"><defs><style>.cls-1,.cls-3{fill:none;}.cls-2{fill:#0080cf;}.cls-3,.cls-4,.cls-5,.cls-6{stroke:#0080cf;stroke-miterlimit:10;}.cls-3{stroke-width:0.96px;}.cls-4,.cls-5,.cls-6{fill:#fff;}.cls-4{stroke-width:0.78px;}.cls-5{stroke-width:0.95px;}.cls-6{stroke-width:0.88px;}.cls-7,.cls-8{fill:#ff780f;}.cls-8{font-size:8px;font-family:TBChibiRGothicPlusK Pro;}.cls-9{clip-path:url(#clip-path);}</style><clipPath id="clip-path"><rect id="_Rectangle_" data-name="&lt;Rectangle&gt;" class="cls-1" x="34.53" y="33.31" width="20.89" height="20.89"/></clipPath></defs><title>中區國稅局_icon</title><g id="_Group_" data-name="&lt;Group&gt;"><circle id="_Path_" data-name="&lt;Path&gt;" class="cls-2" cx="55.61" cy="53.83" r="49.54"/><circle id="_Path_2" data-name="&lt;Path&gt;" class="cls-3" cx="55.62" cy="53.83" r="53.08"/><g id="_Group_2" data-name="&lt;Group&gt;"><rect id="_Rectangle_2" data-name="&lt;Rectangle&gt;" class="cls-4" x="30.13" y="18.87" width="48.97" height="70.67"/><g id="_Group_3" data-name="&lt;Group&gt;"><g id="_Group_4" data-name="&lt;Group&gt;"><rect id="_Rectangle_3" data-name="&lt;Rectangle&gt;" class="cls-5" x="94.39" y="55.14" width="2.57" height="26.98" transform="translate(-17.37 101.58) rotate(-51.91)"/><rect id="_Rectangle_4" data-name="&lt;Rectangle&gt;" class="cls-6" x="87.43" y="61.59" width="4.07" height="4.65" transform="translate(-16.03 94.89) rotate(-51.91)"/><circle id="_Path_3" data-name="&lt;Path&gt;" class="cls-5" cx="79.1" cy="55.79" r="11" transform="translate(-13.61 83.62) rotate(-51.91)"/><circle id="_Path_4" data-name="&lt;Path&gt;" class="cls-5" cx="79.1" cy="55.79" r="9.06" transform="translate(-13.61 83.62) rotate(-51.91)"/><g id="_Group_5" data-name="&lt;Group&gt;"><rect id="_Rectangle_5" data-name="&lt;Rectangle&gt;" class="cls-7" x="75.29" y="55.26" width="7.62" height="1.08" transform="translate(-13.61 83.62) rotate(-51.91)"/><rect id="_Rectangle_6" data-name="&lt;Rectangle&gt;" class="cls-7" x="75.29" y="55.26" width="7.62" height="1.08" transform="translate(106.93 148.5) rotate(-141.91)"/></g></g></g><rect id="_Rectangle_7" data-name="&lt;Rectangle&gt;" class="cls-7" x="34.53" y="23.78" width="40.18" height="1.21"/><rect id="_Rectangle_8" data-name="&lt;Rectangle&gt;" class="cls-7" x="34.53" y="27.89" width="30.21" height="1.21"/><text class="cls-8" transform="translate(42.7 66.95)">O</text><text class="cls-8" transform="translate(58.83 66.95)">X</text><g id="_Clip_Group_" data-name="&lt;Clip Group&gt;"><g class="cls-9"><g id="_Group_6" data-name="&lt;Group&gt;"><circle id="_Path_5" data-name="&lt;Path&gt;" class="cls-2" cx="46.31" cy="25.7" r="0.37"/><circle id="_Path_6" data-name="&lt;Path&gt;" class="cls-2" cx="43.93" cy="25.7" r="0.37"/><circle id="_Path_7" data-name="&lt;Path&gt;" class="cls-2" cx="41.56" cy="25.7" r="0.37"/><circle id="_Path_8" data-name="&lt;Path&gt;" class="cls-2" cx="39.18" cy="25.7" r="0.37"/><circle id="_Path_9" data-name="&lt;Path&gt;" class="cls-2" cx="36.81" cy="25.7" r="0.37"/><circle id="_Path_10" data-name="&lt;Path&gt;" class="cls-2" cx="34.43" cy="25.7" r="0.37"/><circle id="_Path_11" data-name="&lt;Path&gt;" class="cls-2" cx="32.06" cy="25.7" r="0.37"/><circle id="_Path_12" data-name="&lt;Path&gt;" class="cls-2" cx="29.69" cy="25.7" r="0.37"/><circle id="_Path_13" data-name="&lt;Path&gt;" class="cls-2" cx="27.31" cy="25.7" r="0.37"/><circle id="_Path_14" data-name="&lt;Path&gt;" class="cls-2" cx="24.94" cy="25.7" r="0.37"/><circle id="_Path_15" data-name="&lt;Path&gt;" class="cls-2" cx="46.31" cy="23.48" r="0.37"/><circle id="_Path_16" data-name="&lt;Path&gt;" class="cls-2" cx="43.93" cy="23.48" r="0.37"/><circle id="_Path_17" data-name="&lt;Path&gt;" class="cls-2" cx="41.56" cy="23.48" r="0.37"/><circle id="_Path_18" data-name="&lt;Path&gt;" class="cls-2" cx="39.18" cy="23.48" r="0.37"/><circle id="_Path_19" data-name="&lt;Path&gt;" class="cls-2" cx="36.81" cy="23.48" r="0.37"/><circle id="_Path_20" data-name="&lt;Path&gt;" class="cls-2" cx="34.43" cy="23.48" r="0.37"/><circle id="_Path_21" data-name="&lt;Path&gt;" class="cls-2" cx="32.06" cy="23.48" r="0.37"/><circle id="_Path_22" data-name="&lt;Path&gt;" class="cls-2" cx="29.69" cy="23.48" r="0.37"/><circle id="_Path_23" data-name="&lt;Path&gt;" class="cls-2" cx="27.31" cy="23.48" r="0.37"/><circle id="_Path_24" data-name="&lt;Path&gt;" class="cls-2" cx="24.94" cy="23.48" r="0.37"/><circle id="_Path_25" data-name="&lt;Path&gt;" class="cls-2" cx="46.31" cy="41.54" r="0.37"/><circle id="_Path_26" data-name="&lt;Path&gt;" class="cls-2" cx="43.93" cy="41.54" r="0.37"/><circle id="_Path_27" data-name="&lt;Path&gt;" class="cls-2" cx="41.56" cy="41.54" r="0.37"/><circle id="_Path_28" data-name="&lt;Path&gt;" class="cls-2" cx="39.18" cy="41.54" r="0.37"/><circle id="_Path_29" data-name="&lt;Path&gt;" class="cls-2" cx="36.81" cy="41.54" r="0.37"/><circle id="_Path_30" data-name="&lt;Path&gt;" class="cls-2" cx="34.43" cy="41.54" r="0.37"/><circle id="_Path_31" data-name="&lt;Path&gt;" class="cls-2" cx="32.06" cy="41.54" r="0.37"/><circle id="_Path_32" data-name="&lt;Path&gt;" class="cls-2" cx="29.69" cy="41.54" r="0.37"/><circle id="_Path_33" data-name="&lt;Path&gt;" class="cls-2" cx="27.31" cy="41.54" r="0.37"/><circle id="_Path_34" data-name="&lt;Path&gt;" class="cls-2" cx="24.94" cy="41.54" r="0.37"/><circle id="_Path_35" data-name="&lt;Path&gt;" class="cls-2" cx="46.31" cy="39.33" r="0.37"/><circle id="_Path_36" data-name="&lt;Path&gt;" class="cls-2" cx="43.93" cy="39.33" r="0.37"/><circle id="_Path_37" data-name="&lt;Path&gt;" class="cls-2" cx="41.56" cy="39.33" r="0.37"/><circle id="_Path_38" data-name="&lt;Path&gt;" class="cls-2" cx="39.18" cy="39.33" r="0.37"/><circle id="_Path_39" data-name="&lt;Path&gt;" class="cls-2" cx="36.81" cy="39.33" r="0.37"/><circle id="_Path_40" data-name="&lt;Path&gt;" class="cls-2" cx="34.43" cy="39.33" r="0.37"/><circle id="_Path_41" data-name="&lt;Path&gt;" class="cls-2" cx="32.06" cy="39.33" r="0.37"/><circle id="_Path_42" data-name="&lt;Path&gt;" class="cls-2" cx="29.69" cy="39.33" r="0.37"/><circle id="_Path_43" data-name="&lt;Path&gt;" class="cls-2" cx="27.31" cy="39.33" r="0.37"/><circle id="_Path_44" data-name="&lt;Path&gt;" class="cls-2" cx="24.94" cy="39.33" r="0.37"/><circle id="_Path_45" data-name="&lt;Path&gt;" class="cls-2" cx="46.31" cy="37.11" r="0.37"/><circle id="_Path_46" data-name="&lt;Path&gt;" class="cls-2" cx="43.93" cy="37.11" r="0.37"/><circle id="_Path_47" data-name="&lt;Path&gt;" class="cls-2" cx="41.56" cy="37.11" r="0.37"/><circle id="_Path_48" data-name="&lt;Path&gt;" class="cls-2" cx="39.18" cy="37.11" r="0.37"/><circle id="_Path_49" data-name="&lt;Path&gt;" class="cls-2" cx="36.81" cy="37.11" r="0.37"/><circle id="_Path_50" data-name="&lt;Path&gt;" class="cls-2" cx="34.43" cy="37.11" r="0.37"/><circle id="_Path_51" data-name="&lt;Path&gt;" class="cls-2" cx="32.06" cy="37.11" r="0.37"/><circle id="_Path_52" data-name="&lt;Path&gt;" class="cls-2" cx="29.69" cy="37.11" r="0.37"/><circle id="_Path_53" data-name="&lt;Path&gt;" class="cls-2" cx="27.31" cy="37.11" r="0.37"/><circle id="_Path_54" data-name="&lt;Path&gt;" class="cls-2" cx="24.94" cy="37.11" r="0.37"/><circle id="_Path_55" data-name="&lt;Path&gt;" class="cls-2" cx="46.31" cy="34.9" r="0.37"/><circle id="_Path_56" data-name="&lt;Path&gt;" class="cls-2" cx="43.93" cy="34.9" r="0.37"/><circle id="_Path_57" data-name="&lt;Path&gt;" class="cls-2" cx="41.56" cy="34.9" r="0.37"/><circle id="_Path_58" data-name="&lt;Path&gt;" class="cls-2" cx="39.18" cy="34.9" r="0.37"/><circle id="_Path_59" data-name="&lt;Path&gt;" class="cls-2" cx="36.81" cy="34.9" r="0.37"/><circle id="_Path_60" data-name="&lt;Path&gt;" class="cls-2" cx="34.43" cy="34.9" r="0.37"/><circle id="_Path_61" data-name="&lt;Path&gt;" class="cls-2" cx="32.06" cy="34.9" r="0.37"/><circle id="_Path_62" data-name="&lt;Path&gt;" class="cls-2" cx="29.69" cy="34.9" r="0.37"/><circle id="_Path_63" data-name="&lt;Path&gt;" class="cls-2" cx="27.31" cy="34.9" r="0.37"/><circle id="_Path_64" data-name="&lt;Path&gt;" class="cls-2" cx="24.94" cy="34.9" r="0.37"/><circle id="_Path_65" data-name="&lt;Path&gt;" class="cls-2" cx="46.31" cy="32.68" r="0.37"/><circle id="_Path_66" data-name="&lt;Path&gt;" class="cls-2" cx="43.93" cy="32.68" r="0.37"/><circle id="_Path_67" data-name="&lt;Path&gt;" class="cls-2" cx="41.56" cy="32.68" r="0.37"/><circle id="_Path_68" data-name="&lt;Path&gt;" class="cls-2" cx="39.18" cy="32.68" r="0.37"/><circle id="_Path_69" data-name="&lt;Path&gt;" class="cls-2" cx="36.81" cy="32.68" r="0.37"/><circle id="_Path_70" data-name="&lt;Path&gt;" class="cls-2" cx="34.43" cy="32.68" r="0.37"/><circle id="_Path_71" data-name="&lt;Path&gt;" class="cls-2" cx="32.06" cy="32.68" r="0.37"/><circle id="_Path_72" data-name="&lt;Path&gt;" class="cls-2" cx="29.69" cy="32.68" r="0.37"/><circle id="_Path_73" data-name="&lt;Path&gt;" class="cls-2" cx="27.31" cy="32.68" r="0.37"/><circle id="_Path_74" data-name="&lt;Path&gt;" class="cls-2" cx="24.94" cy="32.68" r="0.37"/><circle id="_Path_75" data-name="&lt;Path&gt;" class="cls-2" cx="46.31" cy="30.47" r="0.37"/><circle id="_Path_76" data-name="&lt;Path&gt;" class="cls-2" cx="43.93" cy="30.47" r="0.37"/><circle id="_Path_77" data-name="&lt;Path&gt;" class="cls-2" cx="41.56" cy="30.47" r="0.37"/><circle id="_Path_78" data-name="&lt;Path&gt;" class="cls-2" cx="39.18" cy="30.47" r="0.37"/><circle id="_Path_79" data-name="&lt;Path&gt;" class="cls-2" cx="36.81" cy="30.47" r="0.37"/><circle id="_Path_80" data-name="&lt;Path&gt;" class="cls-2" cx="34.43" cy="30.47" r="0.37"/><circle id="_Path_81" data-name="&lt;Path&gt;" class="cls-2" cx="32.06" cy="30.47" r="0.37"/><circle id="_Path_82" data-name="&lt;Path&gt;" class="cls-2" cx="29.69" cy="30.47" r="0.37"/><circle id="_Path_83" data-name="&lt;Path&gt;" class="cls-2" cx="27.31" cy="30.47" r="0.37"/><circle id="_Path_84" data-name="&lt;Path&gt;" class="cls-2" cx="24.94" cy="30.47" r="0.37"/><circle id="_Path_85" data-name="&lt;Path&gt;" class="cls-2" cx="46.31" cy="28.25" r="0.37"/><circle id="_Path_86" data-name="&lt;Path&gt;" class="cls-2" cx="43.93" cy="28.25" r="0.37"/><circle id="_Path_87" data-name="&lt;Path&gt;" class="cls-2" cx="41.56" cy="28.25" r="0.37"/><circle id="_Path_88" data-name="&lt;Path&gt;" class="cls-2" cx="39.18" cy="28.25" r="0.37"/><circle id="_Path_89" data-name="&lt;Path&gt;" class="cls-2" cx="36.81" cy="28.25" r="0.37"/><circle id="_Path_90" data-name="&lt;Path&gt;" class="cls-2" cx="34.43" cy="28.25" r="0.37"/><circle id="_Path_91" data-name="&lt;Path&gt;" class="cls-2" cx="32.06" cy="28.25" r="0.37"/><circle id="_Path_92" data-name="&lt;Path&gt;" class="cls-2" cx="29.69" cy="28.25" r="0.37"/><circle id="_Path_93" data-name="&lt;Path&gt;" class="cls-2" cx="27.31" cy="28.25" r="0.37"/><circle id="_Path_94" data-name="&lt;Path&gt;" class="cls-2" cx="24.94" cy="28.25" r="0.37"/><circle id="_Path_95" data-name="&lt;Path&gt;" class="cls-2" cx="70.04" cy="25.7" r="0.37"/><circle id="_Path_96" data-name="&lt;Path&gt;" class="cls-2" cx="67.67" cy="25.7" r="0.37"/><circle id="_Path_97" data-name="&lt;Path&gt;" class="cls-2" cx="65.29" cy="25.7" r="0.37"/><circle id="_Path_98" data-name="&lt;Path&gt;" class="cls-2" cx="62.92" cy="25.7" r="0.37"/><circle id="_Path_99" data-name="&lt;Path&gt;" class="cls-2" cx="60.54" cy="25.7" r="0.37"/><circle id="_Path_100" data-name="&lt;Path&gt;" class="cls-2" cx="58.17" cy="25.7" r="0.37"/><circle id="_Path_101" data-name="&lt;Path&gt;" class="cls-2" cx="55.79" cy="25.7" r="0.37"/><circle id="_Path_102" data-name="&lt;Path&gt;" class="cls-2" cx="53.42" cy="25.7" r="0.37"/><circle id="_Path_103" data-name="&lt;Path&gt;" class="cls-2" cx="51.05" cy="25.7" r="0.37"/><circle id="_Path_104" data-name="&lt;Path&gt;" class="cls-2" cx="48.67" cy="25.7" r="0.37"/><circle id="_Path_105" data-name="&lt;Path&gt;" class="cls-2" cx="70.04" cy="23.48" r="0.37"/><circle id="_Path_106" data-name="&lt;Path&gt;" class="cls-2" cx="67.67" cy="23.48" r="0.37"/><circle id="_Path_107" data-name="&lt;Path&gt;" class="cls-2" cx="65.29" cy="23.48" r="0.37"/><circle id="_Path_108" data-name="&lt;Path&gt;" class="cls-2" cx="62.92" cy="23.48" r="0.37"/><circle id="_Path_109" data-name="&lt;Path&gt;" class="cls-2" cx="60.54" cy="23.48" r="0.37"/><circle id="_Path_110" data-name="&lt;Path&gt;" class="cls-2" cx="58.17" cy="23.48" r="0.37"/><circle id="_Path_111" data-name="&lt;Path&gt;" class="cls-2" cx="55.79" cy="23.48" r="0.37"/><circle id="_Path_112" data-name="&lt;Path&gt;" class="cls-2" cx="53.42" cy="23.48" r="0.37"/><circle id="_Path_113" data-name="&lt;Path&gt;" class="cls-2" cx="51.05" cy="23.48" r="0.37"/><circle id="_Path_114" data-name="&lt;Path&gt;" class="cls-2" cx="48.67" cy="23.48" r="0.37"/><circle id="_Path_115" data-name="&lt;Path&gt;" class="cls-2" cx="70.04" cy="41.54" r="0.37"/><circle id="_Path_116" data-name="&lt;Path&gt;" class="cls-2" cx="67.67" cy="41.54" r="0.37"/><circle id="_Path_117" data-name="&lt;Path&gt;" class="cls-2" cx="65.29" cy="41.54" r="0.37"/><circle id="_Path_118" data-name="&lt;Path&gt;" class="cls-2" cx="62.92" cy="41.54" r="0.37"/><circle id="_Path_119" data-name="&lt;Path&gt;" class="cls-2" cx="60.54" cy="41.54" r="0.37"/><circle id="_Path_120" data-name="&lt;Path&gt;" class="cls-2" cx="58.17" cy="41.54" r="0.37"/><circle id="_Path_121" data-name="&lt;Path&gt;" class="cls-2" cx="55.79" cy="41.54" r="0.37"/><circle id="_Path_122" data-name="&lt;Path&gt;" class="cls-2" cx="53.42" cy="41.54" r="0.37"/><circle id="_Path_123" data-name="&lt;Path&gt;" class="cls-2" cx="51.05" cy="41.54" r="0.37"/><circle id="_Path_124" data-name="&lt;Path&gt;" class="cls-2" cx="48.67" cy="41.54" r="0.37"/><circle id="_Path_125" data-name="&lt;Path&gt;" class="cls-2" cx="70.04" cy="39.33" r="0.37"/><circle id="_Path_126" data-name="&lt;Path&gt;" class="cls-2" cx="67.67" cy="39.33" r="0.37"/><circle id="_Path_127" data-name="&lt;Path&gt;" class="cls-2" cx="65.29" cy="39.33" r="0.37"/><circle id="_Path_128" data-name="&lt;Path&gt;" class="cls-2" cx="62.92" cy="39.33" r="0.37"/><circle id="_Path_129" data-name="&lt;Path&gt;" class="cls-2" cx="60.54" cy="39.33" r="0.37"/><circle id="_Path_130" data-name="&lt;Path&gt;" class="cls-2" cx="58.17" cy="39.33" r="0.37"/><circle id="_Path_131" data-name="&lt;Path&gt;" class="cls-2" cx="55.79" cy="39.33" r="0.37"/><circle id="_Path_132" data-name="&lt;Path&gt;" class="cls-2" cx="53.42" cy="39.33" r="0.37"/><circle id="_Path_133" data-name="&lt;Path&gt;" class="cls-2" cx="51.05" cy="39.33" r="0.37"/><circle id="_Path_134" data-name="&lt;Path&gt;" class="cls-2" cx="48.67" cy="39.33" r="0.37"/><circle id="_Path_135" data-name="&lt;Path&gt;" class="cls-2" cx="70.04" cy="37.11" r="0.37"/><circle id="_Path_136" data-name="&lt;Path&gt;" class="cls-2" cx="67.67" cy="37.11" r="0.37"/><circle id="_Path_137" data-name="&lt;Path&gt;" class="cls-2" cx="65.29" cy="37.11" r="0.37"/><circle id="_Path_138" data-name="&lt;Path&gt;" class="cls-2" cx="62.92" cy="37.11" r="0.37"/><circle id="_Path_139" data-name="&lt;Path&gt;" class="cls-2" cx="60.54" cy="37.11" r="0.37"/><circle id="_Path_140" data-name="&lt;Path&gt;" class="cls-2" cx="58.17" cy="37.11" r="0.37"/><circle id="_Path_141" data-name="&lt;Path&gt;" class="cls-2" cx="55.79" cy="37.11" r="0.37"/><circle id="_Path_142" data-name="&lt;Path&gt;" class="cls-2" cx="53.42" cy="37.11" r="0.37"/><circle id="_Path_143" data-name="&lt;Path&gt;" class="cls-2" cx="51.05" cy="37.11" r="0.37"/><circle id="_Path_144" data-name="&lt;Path&gt;" class="cls-2" cx="48.67" cy="37.11" r="0.37"/><circle id="_Path_145" data-name="&lt;Path&gt;" class="cls-2" cx="70.04" cy="34.9" r="0.37"/><circle id="_Path_146" data-name="&lt;Path&gt;" class="cls-2" cx="67.67" cy="34.9" r="0.37"/><circle id="_Path_147" data-name="&lt;Path&gt;" class="cls-2" cx="65.29" cy="34.9" r="0.37"/><circle id="_Path_148" data-name="&lt;Path&gt;" class="cls-2" cx="62.92" cy="34.9" r="0.37"/><circle id="_Path_149" data-name="&lt;Path&gt;" class="cls-2" cx="60.54" cy="34.9" r="0.37"/><circle id="_Path_150" data-name="&lt;Path&gt;" class="cls-2" cx="58.17" cy="34.9" r="0.37"/><circle id="_Path_151" data-name="&lt;Path&gt;" class="cls-2" cx="55.79" cy="34.9" r="0.37"/><circle id="_Path_152" data-name="&lt;Path&gt;" class="cls-2" cx="53.42" cy="34.9" r="0.37"/><circle id="_Path_153" data-name="&lt;Path&gt;" class="cls-2" cx="51.05" cy="34.9" r="0.37"/><circle id="_Path_154" data-name="&lt;Path&gt;" class="cls-2" cx="48.67" cy="34.9" r="0.37"/><circle id="_Path_155" data-name="&lt;Path&gt;" class="cls-2" cx="70.04" cy="32.68" r="0.37"/><circle id="_Path_156" data-name="&lt;Path&gt;" class="cls-2" cx="67.67" cy="32.68" r="0.37"/><circle id="_Path_157" data-name="&lt;Path&gt;" class="cls-2" cx="65.29" cy="32.68" r="0.37"/><circle id="_Path_158" data-name="&lt;Path&gt;" class="cls-2" cx="62.92" cy="32.68" r="0.37"/><circle id="_Path_159" data-name="&lt;Path&gt;" class="cls-2" cx="60.54" cy="32.68" r="0.37"/><circle id="_Path_160" data-name="&lt;Path&gt;" class="cls-2" cx="58.17" cy="32.68" r="0.37"/><circle id="_Path_161" data-name="&lt;Path&gt;" class="cls-2" cx="55.79" cy="32.68" r="0.37"/><circle id="_Path_162" data-name="&lt;Path&gt;" class="cls-2" cx="53.42" cy="32.68" r="0.37"/><circle id="_Path_163" data-name="&lt;Path&gt;" class="cls-2" cx="51.05" cy="32.68" r="0.37"/><circle id="_Path_164" data-name="&lt;Path&gt;" class="cls-2" cx="48.67" cy="32.68" r="0.37"/><circle id="_Path_165" data-name="&lt;Path&gt;" class="cls-2" cx="70.04" cy="30.47" r="0.37"/><circle id="_Path_166" data-name="&lt;Path&gt;" class="cls-2" cx="67.67" cy="30.47" r="0.37"/><circle id="_Path_167" data-name="&lt;Path&gt;" class="cls-2" cx="65.29" cy="30.47" r="0.37"/><circle id="_Path_168" data-name="&lt;Path&gt;" class="cls-2" cx="62.92" cy="30.47" r="0.37"/><circle id="_Path_169" data-name="&lt;Path&gt;" class="cls-2" cx="60.54" cy="30.47" r="0.37"/><circle id="_Path_170" data-name="&lt;Path&gt;" class="cls-2" cx="58.17" cy="30.47" r="0.37"/><circle id="_Path_171" data-name="&lt;Path&gt;" class="cls-2" cx="55.79" cy="30.47" r="0.37"/><circle id="_Path_172" data-name="&lt;Path&gt;" class="cls-2" cx="53.42" cy="30.47" r="0.37"/><circle id="_Path_173" data-name="&lt;Path&gt;" class="cls-2" cx="51.05" cy="30.47" r="0.37"/><circle id="_Path_174" data-name="&lt;Path&gt;" class="cls-2" cx="48.67" cy="30.47" r="0.37"/><circle id="_Path_175" data-name="&lt;Path&gt;" class="cls-2" cx="70.04" cy="28.25" r="0.37"/><circle id="_Path_176" data-name="&lt;Path&gt;" class="cls-2" cx="67.67" cy="28.25" r="0.37"/><circle id="_Path_177" data-name="&lt;Path&gt;" class="cls-2" cx="65.29" cy="28.25" r="0.37"/><circle id="_Path_178" data-name="&lt;Path&gt;" class="cls-2" cx="62.92" cy="28.25" r="0.37"/><circle id="_Path_179" data-name="&lt;Path&gt;" class="cls-2" cx="60.54" cy="28.25" r="0.37"/><circle id="_Path_180" data-name="&lt;Path&gt;" class="cls-2" cx="58.17" cy="28.25" r="0.37"/><circle id="_Path_181" data-name="&lt;Path&gt;" class="cls-2" cx="55.79" cy="28.25" r="0.37"/><circle id="_Path_182" data-name="&lt;Path&gt;" class="cls-2" cx="53.42" cy="28.25" r="0.37"/><circle id="_Path_183" data-name="&lt;Path&gt;" class="cls-2" cx="51.05" cy="28.25" r="0.37"/><circle id="_Path_184" data-name="&lt;Path&gt;" class="cls-2" cx="48.67" cy="28.25" r="0.37"/><circle id="_Path_185" data-name="&lt;Path&gt;" class="cls-2" cx="46.31" cy="69.96" r="0.37"/><circle id="_Path_186" data-name="&lt;Path&gt;" class="cls-2" cx="43.93" cy="69.96" r="0.37"/><circle id="_Path_187" data-name="&lt;Path&gt;" class="cls-2" cx="41.56" cy="69.96" r="0.37"/><circle id="_Path_188" data-name="&lt;Path&gt;" class="cls-2" cx="39.18" cy="69.96" r="0.37"/><circle id="_Path_189" data-name="&lt;Path&gt;" class="cls-2" cx="36.81" cy="69.96" r="0.37"/><circle id="_Path_190" data-name="&lt;Path&gt;" class="cls-2" cx="34.43" cy="69.96" r="0.37"/><circle id="_Path_191" data-name="&lt;Path&gt;" class="cls-2" cx="32.06" cy="69.96" r="0.37"/><circle id="_Path_192" data-name="&lt;Path&gt;" class="cls-2" cx="29.69" cy="69.96" r="0.37"/><circle id="_Path_193" data-name="&lt;Path&gt;" class="cls-2" cx="27.31" cy="69.96" r="0.37"/><circle id="_Path_194" data-name="&lt;Path&gt;" class="cls-2" cx="24.94" cy="69.96" r="0.37"/><circle id="_Path_195" data-name="&lt;Path&gt;" class="cls-2" cx="46.31" cy="67.75" r="0.37"/><circle id="_Path_196" data-name="&lt;Path&gt;" class="cls-2" cx="43.93" cy="67.75" r="0.37"/><circle id="_Path_197" data-name="&lt;Path&gt;" class="cls-2" cx="41.56" cy="67.75" r="0.37"/><circle id="_Path_198" data-name="&lt;Path&gt;" class="cls-2" cx="39.18" cy="67.75" r="0.37"/><circle id="_Path_199" data-name="&lt;Path&gt;" class="cls-2" cx="36.81" cy="67.75" r="0.37"/><circle id="_Path_200" data-name="&lt;Path&gt;" class="cls-2" cx="34.43" cy="67.75" r="0.37"/><circle id="_Path_201" data-name="&lt;Path&gt;" class="cls-2" cx="32.06" cy="67.75" r="0.37"/><circle id="_Path_202" data-name="&lt;Path&gt;" class="cls-2" cx="29.69" cy="67.75" r="0.37"/><circle id="_Path_203" data-name="&lt;Path&gt;" class="cls-2" cx="27.31" cy="67.75" r="0.37"/><circle id="_Path_204" data-name="&lt;Path&gt;" class="cls-2" cx="24.94" cy="67.75" r="0.37"/><circle id="_Path_205" data-name="&lt;Path&gt;" class="cls-2" cx="46.31" cy="65.53" r="0.37"/><circle id="_Path_206" data-name="&lt;Path&gt;" class="cls-2" cx="43.93" cy="65.53" r="0.37"/><circle id="_Path_207" data-name="&lt;Path&gt;" class="cls-2" cx="41.56" cy="65.53" r="0.37"/><circle id="_Path_208" data-name="&lt;Path&gt;" class="cls-2" cx="39.18" cy="65.53" r="0.37"/><circle id="_Path_209" data-name="&lt;Path&gt;" class="cls-2" cx="36.81" cy="65.53" r="0.37"/><circle id="_Path_210" data-name="&lt;Path&gt;" class="cls-2" cx="34.43" cy="65.53" r="0.37"/><circle id="_Path_211" data-name="&lt;Path&gt;" class="cls-2" cx="32.06" cy="65.53" r="0.37"/><circle id="_Path_212" data-name="&lt;Path&gt;" class="cls-2" cx="29.69" cy="65.53" r="0.37"/><circle id="_Path_213" data-name="&lt;Path&gt;" class="cls-2" cx="27.31" cy="65.53" r="0.37"/><circle id="_Path_214" data-name="&lt;Path&gt;" class="cls-2" cx="24.94" cy="65.53" r="0.37"/><circle id="_Path_215" data-name="&lt;Path&gt;" class="cls-2" cx="46.31" cy="63.31" r="0.37"/><circle id="_Path_216" data-name="&lt;Path&gt;" class="cls-2" cx="43.93" cy="63.31" r="0.37"/><circle id="_Path_217" data-name="&lt;Path&gt;" class="cls-2" cx="41.56" cy="63.31" r="0.37"/><circle id="_Path_218" data-name="&lt;Path&gt;" class="cls-2" cx="39.18" cy="63.31" r="0.37"/><circle id="_Path_219" data-name="&lt;Path&gt;" class="cls-2" cx="36.81" cy="63.31" r="0.37"/><circle id="_Path_220" data-name="&lt;Path&gt;" class="cls-2" cx="34.43" cy="63.31" r="0.37"/><circle id="_Path_221" data-name="&lt;Path&gt;" class="cls-2" cx="32.06" cy="63.31" r="0.37"/><circle id="_Path_222" data-name="&lt;Path&gt;" class="cls-2" cx="29.69" cy="63.31" r="0.37"/><circle id="_Path_223" data-name="&lt;Path&gt;" class="cls-2" cx="27.31" cy="63.31" r="0.37"/><circle id="_Path_224" data-name="&lt;Path&gt;" class="cls-2" cx="24.94" cy="63.31" r="0.37"/><circle id="_Path_225" data-name="&lt;Path&gt;" class="cls-2" cx="46.31" cy="61.1" r="0.37"/><circle id="_Path_226" data-name="&lt;Path&gt;" class="cls-2" cx="43.93" cy="61.1" r="0.37"/><circle id="_Path_227" data-name="&lt;Path&gt;" class="cls-2" cx="41.56" cy="61.1" r="0.37"/><circle id="_Path_228" data-name="&lt;Path&gt;" class="cls-2" cx="39.18" cy="61.1" r="0.37"/><circle id="_Path_229" data-name="&lt;Path&gt;" class="cls-2" cx="36.81" cy="61.1" r="0.37"/><circle id="_Path_230" data-name="&lt;Path&gt;" class="cls-2" cx="34.43" cy="61.1" r="0.37"/><circle id="_Path_231" data-name="&lt;Path&gt;" class="cls-2" cx="32.06" cy="61.1" r="0.37"/><circle id="_Path_232" data-name="&lt;Path&gt;" class="cls-2" cx="29.69" cy="61.1" r="0.37"/><circle id="_Path_233" data-name="&lt;Path&gt;" class="cls-2" cx="27.31" cy="61.1" r="0.37"/><circle id="_Path_234" data-name="&lt;Path&gt;" class="cls-2" cx="24.94" cy="61.1" r="0.37"/><circle id="_Path_235" data-name="&lt;Path&gt;" class="cls-2" cx="46.31" cy="58.88" r="0.37"/><circle id="_Path_236" data-name="&lt;Path&gt;" class="cls-2" cx="43.93" cy="58.88" r="0.37"/><circle id="_Path_237" data-name="&lt;Path&gt;" class="cls-2" cx="41.56" cy="58.88" r="0.37"/><circle id="_Path_238" data-name="&lt;Path&gt;" class="cls-2" cx="39.18" cy="58.88" r="0.37"/><circle id="_Path_239" data-name="&lt;Path&gt;" class="cls-2" cx="36.81" cy="58.88" r="0.37"/><circle id="_Path_240" data-name="&lt;Path&gt;" class="cls-2" cx="34.43" cy="58.88" r="0.37"/><circle id="_Path_241" data-name="&lt;Path&gt;" class="cls-2" cx="32.06" cy="58.88" r="0.37"/><circle id="_Path_242" data-name="&lt;Path&gt;" class="cls-2" cx="29.69" cy="58.88" r="0.37"/><circle id="_Path_243" data-name="&lt;Path&gt;" class="cls-2" cx="27.31" cy="58.88" r="0.37"/><circle id="_Path_244" data-name="&lt;Path&gt;" class="cls-2" cx="24.94" cy="58.88" r="0.37"/><circle id="_Path_245" data-name="&lt;Path&gt;" class="cls-2" cx="46.31" cy="56.67" r="0.37"/><circle id="_Path_246" data-name="&lt;Path&gt;" class="cls-2" cx="43.93" cy="56.67" r="0.37"/><circle id="_Path_247" data-name="&lt;Path&gt;" class="cls-2" cx="41.56" cy="56.67" r="0.37"/><circle id="_Path_248" data-name="&lt;Path&gt;" class="cls-2" cx="39.18" cy="56.67" r="0.37"/><circle id="_Path_249" data-name="&lt;Path&gt;" class="cls-2" cx="36.81" cy="56.67" r="0.37"/><circle id="_Path_250" data-name="&lt;Path&gt;" class="cls-2" cx="34.43" cy="56.67" r="0.37"/><circle id="_Path_251" data-name="&lt;Path&gt;" class="cls-2" cx="32.06" cy="56.67" r="0.37"/><circle id="_Path_252" data-name="&lt;Path&gt;" class="cls-2" cx="29.69" cy="56.67" r="0.37"/><circle id="_Path_253" data-name="&lt;Path&gt;" class="cls-2" cx="27.31" cy="56.67" r="0.37"/><circle id="_Path_254" data-name="&lt;Path&gt;" class="cls-2" cx="24.94" cy="56.67" r="0.37"/><circle id="_Path_255" data-name="&lt;Path&gt;" class="cls-2" cx="46.31" cy="54.45" r="0.37"/><circle id="_Path_256" data-name="&lt;Path&gt;" class="cls-2" cx="43.93" cy="54.45" r="0.37"/><circle id="_Path_257" data-name="&lt;Path&gt;" class="cls-2" cx="41.56" cy="54.45" r="0.37"/><circle id="_Path_258" data-name="&lt;Path&gt;" class="cls-2" cx="39.18" cy="54.45" r="0.37"/><circle id="_Path_259" data-name="&lt;Path&gt;" class="cls-2" cx="36.81" cy="54.45" r="0.37"/><circle id="_Path_260" data-name="&lt;Path&gt;" class="cls-2" cx="34.43" cy="54.45" r="0.37"/><circle id="_Path_261" data-name="&lt;Path&gt;" class="cls-2" cx="32.06" cy="54.45" r="0.37"/><circle id="_Path_262" data-name="&lt;Path&gt;" class="cls-2" cx="29.69" cy="54.45" r="0.37"/><circle id="_Path_263" data-name="&lt;Path&gt;" class="cls-2" cx="27.31" cy="54.45" r="0.37"/><circle id="_Path_264" data-name="&lt;Path&gt;" class="cls-2" cx="24.94" cy="54.45" r="0.37"/><circle id="_Path_265" data-name="&lt;Path&gt;" class="cls-2" cx="46.31" cy="52.24" r="0.37"/><circle id="_Path_266" data-name="&lt;Path&gt;" class="cls-2" cx="43.93" cy="52.24" r="0.37"/><circle id="_Path_267" data-name="&lt;Path&gt;" class="cls-2" cx="41.56" cy="52.24" r="0.37"/><circle id="_Path_268" data-name="&lt;Path&gt;" class="cls-2" cx="39.18" cy="52.24" r="0.37"/><circle id="_Path_269" data-name="&lt;Path&gt;" class="cls-2" cx="36.81" cy="52.24" r="0.37"/><circle id="_Path_270" data-name="&lt;Path&gt;" class="cls-2" cx="34.43" cy="52.24" r="0.37"/><circle id="_Path_271" data-name="&lt;Path&gt;" class="cls-2" cx="32.06" cy="52.24" r="0.37"/><circle id="_Path_272" data-name="&lt;Path&gt;" class="cls-2" cx="29.69" cy="52.24" r="0.37"/><circle id="_Path_273" data-name="&lt;Path&gt;" class="cls-2" cx="27.31" cy="52.24" r="0.37"/><circle id="_Path_274" data-name="&lt;Path&gt;" class="cls-2" cx="24.94" cy="52.24" r="0.37"/><circle id="_Path_275" data-name="&lt;Path&gt;" class="cls-2" cx="46.31" cy="50.02" r="0.37"/><circle id="_Path_276" data-name="&lt;Path&gt;" class="cls-2" cx="43.93" cy="50.02" r="0.37"/><circle id="_Path_277" data-name="&lt;Path&gt;" class="cls-2" cx="41.56" cy="50.02" r="0.37"/><circle id="_Path_278" data-name="&lt;Path&gt;" class="cls-2" cx="39.18" cy="50.02" r="0.37"/><circle id="_Path_279" data-name="&lt;Path&gt;" class="cls-2" cx="36.81" cy="50.02" r="0.37"/><circle id="_Path_280" data-name="&lt;Path&gt;" class="cls-2" cx="34.43" cy="50.02" r="0.37"/><circle id="_Path_281" data-name="&lt;Path&gt;" class="cls-2" cx="32.06" cy="50.02" r="0.37"/><circle id="_Path_282" data-name="&lt;Path&gt;" class="cls-2" cx="29.69" cy="50.02" r="0.37"/><circle id="_Path_283" data-name="&lt;Path&gt;" class="cls-2" cx="27.31" cy="50.02" r="0.37"/><circle id="_Path_284" data-name="&lt;Path&gt;" class="cls-2" cx="24.94" cy="50.02" r="0.37"/><circle id="_Path_285" data-name="&lt;Path&gt;" class="cls-2" cx="46.31" cy="47.81" r="0.37"/><circle id="_Path_286" data-name="&lt;Path&gt;" class="cls-2" cx="43.93" cy="47.81" r="0.37"/><circle id="_Path_287" data-name="&lt;Path&gt;" class="cls-2" cx="41.56" cy="47.81" r="0.37"/><circle id="_Path_288" data-name="&lt;Path&gt;" class="cls-2" cx="39.18" cy="47.81" r="0.37"/><circle id="_Path_289" data-name="&lt;Path&gt;" class="cls-2" cx="36.81" cy="47.81" r="0.37"/><circle id="_Path_290" data-name="&lt;Path&gt;" class="cls-2" cx="34.43" cy="47.81" r="0.37"/><circle id="_Path_291" data-name="&lt;Path&gt;" class="cls-2" cx="32.06" cy="47.81" r="0.37"/><circle id="_Path_292" data-name="&lt;Path&gt;" class="cls-2" cx="29.69" cy="47.81" r="0.37"/><circle id="_Path_293" data-name="&lt;Path&gt;" class="cls-2" cx="27.31" cy="47.81" r="0.37"/><circle id="_Path_294" data-name="&lt;Path&gt;" class="cls-2" cx="24.94" cy="47.81" r="0.37"/><circle id="_Path_295" data-name="&lt;Path&gt;" class="cls-2" cx="46.31" cy="45.59" r="0.37"/><circle id="_Path_296" data-name="&lt;Path&gt;" class="cls-2" cx="43.93" cy="45.59" r="0.37"/><circle id="_Path_297" data-name="&lt;Path&gt;" class="cls-2" cx="41.56" cy="45.59" r="0.37"/><circle id="_Path_298" data-name="&lt;Path&gt;" class="cls-2" cx="39.18" cy="45.59" r="0.37"/><circle id="_Path_299" data-name="&lt;Path&gt;" class="cls-2" cx="36.81" cy="45.59" r="0.37"/><circle id="_Path_300" data-name="&lt;Path&gt;" class="cls-2" cx="34.43" cy="45.59" r="0.37"/><circle id="_Path_301" data-name="&lt;Path&gt;" class="cls-2" cx="32.06" cy="45.59" r="0.37"/><circle id="_Path_302" data-name="&lt;Path&gt;" class="cls-2" cx="29.69" cy="45.59" r="0.37"/><circle id="_Path_303" data-name="&lt;Path&gt;" class="cls-2" cx="27.31" cy="45.59" r="0.37"/><circle id="_Path_304" data-name="&lt;Path&gt;" class="cls-2" cx="24.94" cy="45.59" r="0.37"/><circle id="_Path_305" data-name="&lt;Path&gt;" class="cls-2" cx="46.31" cy="43.38" r="0.37"/><circle id="_Path_306" data-name="&lt;Path&gt;" class="cls-2" cx="43.93" cy="43.38" r="0.37"/><circle id="_Path_307" data-name="&lt;Path&gt;" class="cls-2" cx="41.56" cy="43.38" r="0.37"/><circle id="_Path_308" data-name="&lt;Path&gt;" class="cls-2" cx="39.18" cy="43.38" r="0.37"/><circle id="_Path_309" data-name="&lt;Path&gt;" class="cls-2" cx="36.81" cy="43.38" r="0.37"/><circle id="_Path_310" data-name="&lt;Path&gt;" class="cls-2" cx="34.43" cy="43.38" r="0.37"/><circle id="_Path_311" data-name="&lt;Path&gt;" class="cls-2" cx="32.06" cy="43.38" r="0.37"/><circle id="_Path_312" data-name="&lt;Path&gt;" class="cls-2" cx="29.69" cy="43.38" r="0.37"/><circle id="_Path_313" data-name="&lt;Path&gt;" class="cls-2" cx="27.31" cy="43.38" r="0.37"/><circle id="_Path_314" data-name="&lt;Path&gt;" class="cls-2" cx="24.94" cy="43.38" r="0.37"/><circle id="_Path_315" data-name="&lt;Path&gt;" class="cls-2" cx="70.04" cy="69.96" r="0.37"/><circle id="_Path_316" data-name="&lt;Path&gt;" class="cls-2" cx="67.67" cy="69.96" r="0.37"/><circle id="_Path_317" data-name="&lt;Path&gt;" class="cls-2" cx="65.29" cy="69.96" r="0.37"/><circle id="_Path_318" data-name="&lt;Path&gt;" class="cls-2" cx="62.92" cy="69.96" r="0.37"/><circle id="_Path_319" data-name="&lt;Path&gt;" class="cls-2" cx="60.54" cy="69.96" r="0.37"/><circle id="_Path_320" data-name="&lt;Path&gt;" class="cls-2" cx="58.17" cy="69.96" r="0.37"/><circle id="_Path_321" data-name="&lt;Path&gt;" class="cls-2" cx="55.79" cy="69.96" r="0.37"/><circle id="_Path_322" data-name="&lt;Path&gt;" class="cls-2" cx="53.42" cy="69.96" r="0.37"/><circle id="_Path_323" data-name="&lt;Path&gt;" class="cls-2" cx="51.05" cy="69.96" r="0.37"/><circle id="_Path_324" data-name="&lt;Path&gt;" class="cls-2" cx="48.67" cy="69.96" r="0.37"/><circle id="_Path_325" data-name="&lt;Path&gt;" class="cls-2" cx="70.04" cy="67.75" r="0.37"/><circle id="_Path_326" data-name="&lt;Path&gt;" class="cls-2" cx="67.67" cy="67.75" r="0.37"/><circle id="_Path_327" data-name="&lt;Path&gt;" class="cls-2" cx="65.29" cy="67.75" r="0.37"/><circle id="_Path_328" data-name="&lt;Path&gt;" class="cls-2" cx="62.92" cy="67.75" r="0.37"/><circle id="_Path_329" data-name="&lt;Path&gt;" class="cls-2" cx="60.54" cy="67.75" r="0.37"/><circle id="_Path_330" data-name="&lt;Path&gt;" class="cls-2" cx="58.17" cy="67.75" r="0.37"/><circle id="_Path_331" data-name="&lt;Path&gt;" class="cls-2" cx="55.79" cy="67.75" r="0.37"/><circle id="_Path_332" data-name="&lt;Path&gt;" class="cls-2" cx="53.42" cy="67.75" r="0.37"/><circle id="_Path_333" data-name="&lt;Path&gt;" class="cls-2" cx="51.05" cy="67.75" r="0.37"/><circle id="_Path_334" data-name="&lt;Path&gt;" class="cls-2" cx="48.67" cy="67.75" r="0.37"/><circle id="_Path_335" data-name="&lt;Path&gt;" class="cls-2" cx="70.04" cy="65.53" r="0.37"/><circle id="_Path_336" data-name="&lt;Path&gt;" class="cls-2" cx="67.67" cy="65.53" r="0.37"/><circle id="_Path_337" data-name="&lt;Path&gt;" class="cls-2" cx="65.29" cy="65.53" r="0.37"/><circle id="_Path_338" data-name="&lt;Path&gt;" class="cls-2" cx="62.92" cy="65.53" r="0.37"/><circle id="_Path_339" data-name="&lt;Path&gt;" class="cls-2" cx="60.54" cy="65.53" r="0.37"/><circle id="_Path_340" data-name="&lt;Path&gt;" class="cls-2" cx="58.17" cy="65.53" r="0.37"/><circle id="_Path_341" data-name="&lt;Path&gt;" class="cls-2" cx="55.79" cy="65.53" r="0.37"/><circle id="_Path_342" data-name="&lt;Path&gt;" class="cls-2" cx="53.42" cy="65.53" r="0.37"/><circle id="_Path_343" data-name="&lt;Path&gt;" class="cls-2" cx="51.05" cy="65.53" r="0.37"/><circle id="_Path_344" data-name="&lt;Path&gt;" class="cls-2" cx="48.67" cy="65.53" r="0.37"/><circle id="_Path_345" data-name="&lt;Path&gt;" class="cls-2" cx="70.04" cy="63.31" r="0.37"/><circle id="_Path_346" data-name="&lt;Path&gt;" class="cls-2" cx="67.67" cy="63.31" r="0.37"/><circle id="_Path_347" data-name="&lt;Path&gt;" class="cls-2" cx="65.29" cy="63.31" r="0.37"/><circle id="_Path_348" data-name="&lt;Path&gt;" class="cls-2" cx="62.92" cy="63.31" r="0.37"/><circle id="_Path_349" data-name="&lt;Path&gt;" class="cls-2" cx="60.54" cy="63.31" r="0.37"/><circle id="_Path_350" data-name="&lt;Path&gt;" class="cls-2" cx="58.17" cy="63.31" r="0.37"/><circle id="_Path_351" data-name="&lt;Path&gt;" class="cls-2" cx="55.79" cy="63.31" r="0.37"/><circle id="_Path_352" data-name="&lt;Path&gt;" class="cls-2" cx="53.42" cy="63.31" r="0.37"/><circle id="_Path_353" data-name="&lt;Path&gt;" class="cls-2" cx="51.05" cy="63.31" r="0.37"/><circle id="_Path_354" data-name="&lt;Path&gt;" class="cls-2" cx="48.67" cy="63.31" r="0.37"/><circle id="_Path_355" data-name="&lt;Path&gt;" class="cls-2" cx="70.04" cy="61.1" r="0.37"/><circle id="_Path_356" data-name="&lt;Path&gt;" class="cls-2" cx="67.67" cy="61.1" r="0.37"/><circle id="_Path_357" data-name="&lt;Path&gt;" class="cls-2" cx="65.29" cy="61.1" r="0.37"/><circle id="_Path_358" data-name="&lt;Path&gt;" class="cls-2" cx="62.92" cy="61.1" r="0.37"/><circle id="_Path_359" data-name="&lt;Path&gt;" class="cls-2" cx="60.54" cy="61.1" r="0.37"/><circle id="_Path_360" data-name="&lt;Path&gt;" class="cls-2" cx="58.17" cy="61.1" r="0.37"/><circle id="_Path_361" data-name="&lt;Path&gt;" class="cls-2" cx="55.79" cy="61.1" r="0.37"/><circle id="_Path_362" data-name="&lt;Path&gt;" class="cls-2" cx="53.42" cy="61.1" r="0.37"/><circle id="_Path_363" data-name="&lt;Path&gt;" class="cls-2" cx="51.05" cy="61.1" r="0.37"/><circle id="_Path_364" data-name="&lt;Path&gt;" class="cls-2" cx="48.67" cy="61.1" r="0.37"/><circle id="_Path_365" data-name="&lt;Path&gt;" class="cls-2" cx="70.04" cy="58.88" r="0.37"/><circle id="_Path_366" data-name="&lt;Path&gt;" class="cls-2" cx="67.67" cy="58.88" r="0.37"/><circle id="_Path_367" data-name="&lt;Path&gt;" class="cls-2" cx="65.29" cy="58.88" r="0.37"/><circle id="_Path_368" data-name="&lt;Path&gt;" class="cls-2" cx="62.92" cy="58.88" r="0.37"/><circle id="_Path_369" data-name="&lt;Path&gt;" class="cls-2" cx="60.54" cy="58.88" r="0.37"/><circle id="_Path_370" data-name="&lt;Path&gt;" class="cls-2" cx="58.17" cy="58.88" r="0.37"/><circle id="_Path_371" data-name="&lt;Path&gt;" class="cls-2" cx="55.79" cy="58.88" r="0.37"/><circle id="_Path_372" data-name="&lt;Path&gt;" class="cls-2" cx="53.42" cy="58.88" r="0.37"/><circle id="_Path_373" data-name="&lt;Path&gt;" class="cls-2" cx="51.05" cy="58.88" r="0.37"/><circle id="_Path_374" data-name="&lt;Path&gt;" class="cls-2" cx="48.67" cy="58.88" r="0.37"/><circle id="_Path_375" data-name="&lt;Path&gt;" class="cls-2" cx="70.04" cy="56.67" r="0.37"/><circle id="_Path_376" data-name="&lt;Path&gt;" class="cls-2" cx="67.67" cy="56.67" r="0.37"/><circle id="_Path_377" data-name="&lt;Path&gt;" class="cls-2" cx="65.29" cy="56.67" r="0.37"/><circle id="_Path_378" data-name="&lt;Path&gt;" class="cls-2" cx="62.92" cy="56.67" r="0.37"/><circle id="_Path_379" data-name="&lt;Path&gt;" class="cls-2" cx="60.54" cy="56.67" r="0.37"/><circle id="_Path_380" data-name="&lt;Path&gt;" class="cls-2" cx="58.17" cy="56.67" r="0.37"/><circle id="_Path_381" data-name="&lt;Path&gt;" class="cls-2" cx="55.79" cy="56.67" r="0.37"/><circle id="_Path_382" data-name="&lt;Path&gt;" class="cls-2" cx="53.42" cy="56.67" r="0.37"/><circle id="_Path_383" data-name="&lt;Path&gt;" class="cls-2" cx="51.05" cy="56.67" r="0.37"/><circle id="_Path_384" data-name="&lt;Path&gt;" class="cls-2" cx="48.67" cy="56.67" r="0.37"/><circle id="_Path_385" data-name="&lt;Path&gt;" class="cls-2" cx="70.04" cy="54.45" r="0.37"/><circle id="_Path_386" data-name="&lt;Path&gt;" class="cls-2" cx="67.67" cy="54.45" r="0.37"/><circle id="_Path_387" data-name="&lt;Path&gt;" class="cls-2" cx="65.29" cy="54.45" r="0.37"/><circle id="_Path_388" data-name="&lt;Path&gt;" class="cls-2" cx="62.92" cy="54.45" r="0.37"/><circle id="_Path_389" data-name="&lt;Path&gt;" class="cls-2" cx="60.54" cy="54.45" r="0.37"/><circle id="_Path_390" data-name="&lt;Path&gt;" class="cls-2" cx="58.17" cy="54.45" r="0.37"/><circle id="_Path_391" data-name="&lt;Path&gt;" class="cls-2" cx="55.79" cy="54.45" r="0.37"/><circle id="_Path_392" data-name="&lt;Path&gt;" class="cls-2" cx="53.42" cy="54.45" r="0.37"/><circle id="_Path_393" data-name="&lt;Path&gt;" class="cls-2" cx="51.05" cy="54.45" r="0.37"/><circle id="_Path_394" data-name="&lt;Path&gt;" class="cls-2" cx="48.67" cy="54.45" r="0.37"/><circle id="_Path_395" data-name="&lt;Path&gt;" class="cls-2" cx="70.04" cy="52.24" r="0.37"/><circle id="_Path_396" data-name="&lt;Path&gt;" class="cls-2" cx="67.67" cy="52.24" r="0.37"/><circle id="_Path_397" data-name="&lt;Path&gt;" class="cls-2" cx="65.29" cy="52.24" r="0.37"/><circle id="_Path_398" data-name="&lt;Path&gt;" class="cls-2" cx="62.92" cy="52.24" r="0.37"/><circle id="_Path_399" data-name="&lt;Path&gt;" class="cls-2" cx="60.54" cy="52.24" r="0.37"/><circle id="_Path_400" data-name="&lt;Path&gt;" class="cls-2" cx="58.17" cy="52.24" r="0.37"/><circle id="_Path_401" data-name="&lt;Path&gt;" class="cls-2" cx="55.79" cy="52.24" r="0.37"/><circle id="_Path_402" data-name="&lt;Path&gt;" class="cls-2" cx="53.42" cy="52.24" r="0.37"/><circle id="_Path_403" data-name="&lt;Path&gt;" class="cls-2" cx="51.05" cy="52.24" r="0.37"/><circle id="_Path_404" data-name="&lt;Path&gt;" class="cls-2" cx="48.67" cy="52.24" r="0.37"/><circle id="_Path_405" data-name="&lt;Path&gt;" class="cls-2" cx="70.04" cy="50.02" r="0.37"/><circle id="_Path_406" data-name="&lt;Path&gt;" class="cls-2" cx="67.67" cy="50.02" r="0.37"/><circle id="_Path_407" data-name="&lt;Path&gt;" class="cls-2" cx="65.29" cy="50.02" r="0.37"/><circle id="_Path_408" data-name="&lt;Path&gt;" class="cls-2" cx="62.92" cy="50.02" r="0.37"/><circle id="_Path_409" data-name="&lt;Path&gt;" class="cls-2" cx="60.54" cy="50.02" r="0.37"/><circle id="_Path_410" data-name="&lt;Path&gt;" class="cls-2" cx="58.17" cy="50.02" r="0.37"/><circle id="_Path_411" data-name="&lt;Path&gt;" class="cls-2" cx="55.79" cy="50.02" r="0.37"/><circle id="_Path_412" data-name="&lt;Path&gt;" class="cls-2" cx="53.42" cy="50.02" r="0.37"/><circle id="_Path_413" data-name="&lt;Path&gt;" class="cls-2" cx="51.05" cy="50.02" r="0.37"/><circle id="_Path_414" data-name="&lt;Path&gt;" class="cls-2" cx="48.67" cy="50.02" r="0.37"/><circle id="_Path_415" data-name="&lt;Path&gt;" class="cls-2" cx="70.04" cy="47.81" r="0.37"/><circle id="_Path_416" data-name="&lt;Path&gt;" class="cls-2" cx="67.67" cy="47.81" r="0.37"/><circle id="_Path_417" data-name="&lt;Path&gt;" class="cls-2" cx="65.29" cy="47.81" r="0.37"/><circle id="_Path_418" data-name="&lt;Path&gt;" class="cls-2" cx="62.92" cy="47.81" r="0.37"/><circle id="_Path_419" data-name="&lt;Path&gt;" class="cls-2" cx="60.54" cy="47.81" r="0.37"/><circle id="_Path_420" data-name="&lt;Path&gt;" class="cls-2" cx="58.17" cy="47.81" r="0.37"/><circle id="_Path_421" data-name="&lt;Path&gt;" class="cls-2" cx="55.79" cy="47.81" r="0.37"/><circle id="_Path_422" data-name="&lt;Path&gt;" class="cls-2" cx="53.42" cy="47.81" r="0.37"/><circle id="_Path_423" data-name="&lt;Path&gt;" class="cls-2" cx="51.05" cy="47.81" r="0.37"/><circle id="_Path_424" data-name="&lt;Path&gt;" class="cls-2" cx="48.67" cy="47.81" r="0.37"/><circle id="_Path_425" data-name="&lt;Path&gt;" class="cls-2" cx="70.04" cy="45.59" r="0.37"/><circle id="_Path_426" data-name="&lt;Path&gt;" class="cls-2" cx="67.67" cy="45.59" r="0.37"/><circle id="_Path_427" data-name="&lt;Path&gt;" class="cls-2" cx="65.29" cy="45.59" r="0.37"/><circle id="_Path_428" data-name="&lt;Path&gt;" class="cls-2" cx="62.92" cy="45.59" r="0.37"/><circle id="_Path_429" data-name="&lt;Path&gt;" class="cls-2" cx="60.54" cy="45.59" r="0.37"/><circle id="_Path_430" data-name="&lt;Path&gt;" class="cls-2" cx="58.17" cy="45.59" r="0.37"/><circle id="_Path_431" data-name="&lt;Path&gt;" class="cls-2" cx="55.79" cy="45.59" r="0.37"/><circle id="_Path_432" data-name="&lt;Path&gt;" class="cls-2" cx="53.42" cy="45.59" r="0.37"/><circle id="_Path_433" data-name="&lt;Path&gt;" class="cls-2" cx="51.05" cy="45.59" r="0.37"/><circle id="_Path_434" data-name="&lt;Path&gt;" class="cls-2" cx="48.67" cy="45.59" r="0.37"/><circle id="_Path_435" data-name="&lt;Path&gt;" class="cls-2" cx="70.04" cy="43.38" r="0.37"/><circle id="_Path_436" data-name="&lt;Path&gt;" class="cls-2" cx="67.67" cy="43.38" r="0.37"/><circle id="_Path_437" data-name="&lt;Path&gt;" class="cls-2" cx="65.29" cy="43.38" r="0.37"/><circle id="_Path_438" data-name="&lt;Path&gt;" class="cls-2" cx="62.92" cy="43.38" r="0.37"/><circle id="_Path_439" data-name="&lt;Path&gt;" class="cls-2" cx="60.54" cy="43.38" r="0.37"/><circle id="_Path_440" data-name="&lt;Path&gt;" class="cls-2" cx="58.17" cy="43.38" r="0.37"/><circle id="_Path_441" data-name="&lt;Path&gt;" class="cls-2" cx="55.79" cy="43.38" r="0.37"/><circle id="_Path_442" data-name="&lt;Path&gt;" class="cls-2" cx="53.42" cy="43.38" r="0.37"/><circle id="_Path_443" data-name="&lt;Path&gt;" class="cls-2" cx="51.05" cy="43.38" r="0.37"/><circle id="_Path_444" data-name="&lt;Path&gt;" class="cls-2" cx="48.67" cy="43.38" r="0.37"/></g></g></g></g></g></svg>