<svg id="Layer_1" data-name="Layer 1" xmlns="http://www.w3.org/2000/svg" viewBox="0 0 54.73 54.73"><defs><style>.cls-1,.cls-3{fill:#fff;}.cls-1{stroke:#207fc3;stroke-miterlimit:10;stroke-width:0.78px;}.cls-2{fill:#207fc3;}</style></defs><title>exclamation</title><polygon id="_Path_" data-name="&lt;Path&gt;" class="cls-1" points="27.37 0.64 32.66 7.61 40.73 4.22 41.83 12.91 50.51 14.01 47.12 22.07 54.09 27.37 47.12 32.66 50.51 40.73 41.83 41.83 40.73 50.51 32.66 47.12 27.37 54.09 22.07 47.12 14.01 50.51 12.91 41.83 4.22 40.73 7.61 32.66 0.64 27.37 7.61 22.07 4.22 14.01 12.91 12.91 14.01 4.22 22.07 7.61 27.37 0.64"/><polygon id="_Path_2" data-name="&lt;Path&gt;" class="cls-2" points="27.37 3.55 32.08 9.77 39.27 6.74 40.25 14.48 47.99 15.46 44.97 22.65 51.18 27.37 44.97 32.08 47.99 39.27 40.25 40.25 39.27 47.99 32.08 44.97 27.37 51.18 22.65 44.97 15.46 47.99 14.48 40.25 6.74 39.27 9.77 32.08 3.55 27.37 9.77 22.65 6.74 15.46 14.48 14.48 15.46 6.74 22.65 9.77 27.37 3.55"/><g id="_Group_" data-name="&lt;Group&gt;"><path class="cls-3" d="M29.35,40a2.1,2.1,0,1,1-2.1-2.1A2.16,2.16,0,0,1,29.35,40ZM25.59,18.6a1.46,1.46,0,0,1,1.66-1.66,1.46,1.46,0,0,1,1.67,1.66L28.15,34.5a0.9,0.9,0,0,1-1.79,0Z"/></g></svg>