<svg id="Layer_1" data-name="Layer 1" xmlns="http://www.w3.org/2000/svg" viewBox="0 0 52.01 52.01"><defs><style>.cls-1,.cls-3,.cls-4{fill:#fff;}.cls-1,.cls-3,.cls-4,.cls-5{stroke:#207fc3;}.cls-1,.cls-3,.cls-4,.cls-5,.cls-6{stroke-miterlimit:10;}.cls-1{stroke-width:0.78px;}.cls-2{fill:#207fc3;}.cls-3,.cls-5{stroke-width:0.51px;}.cls-4{stroke-width:0.49px;}.cls-5,.cls-6{fill:none;}.cls-6{stroke:#fff;stroke-linecap:round;stroke-width:0.71px;}</style></defs><title>light</title><circle class="cls-1" cx="26.01" cy="26.01" r="25.62"/><circle class="cls-2" cx="26.01" cy="26.01" r="22.97"/><path class="cls-3" d="M22.27,37.44h7.31a0,0,0,0,1,0,0v3.77a3.66,3.66,0,0,1-3.66,3.66h0a3.66,3.66,0,0,1-3.66-3.66V37.44a0,0,0,0,1,0,0Z"/><path class="cls-4" d="M32.68,22.82s-2-4.51-6.76-4.58-6.76,4.58-6.76,4.58c-2.3,5.86,2.77,11.09,2.77,11.09a5.08,5.08,0,0,1,.68,3.52h6.62a5.08,5.08,0,0,1,.68-3.52S35,28.68,32.68,22.82Z"/><polygon class="cls-3" points="26.8 37.44 28.65 30.86 26.8 31.76 25.9 30.86 25.18 31.72 23.51 30.64 24.82 37.44 26.8 37.44"/><line class="cls-5" x1="29.58" y1="39.52" x2="22.27" y2="39.52"/><line class="cls-5" x1="29.58" y1="41.15" x2="22.27" y2="41.15"/><line class="cls-5" x1="29.31" y1="42.4" x2="22.54" y2="42.4"/><line class="cls-6" x1="26.08" y1="10.28" x2="26.08" y2="13.29"/><line class="cls-6" x1="20.01" y1="11.03" x2="20.79" y2="13.93"/><line class="cls-6" x1="14.35" y1="13.32" x2="15.85" y2="15.93"/><line class="cls-6" x1="9.47" y1="17.01" x2="11.6" y2="19.13"/><line class="cls-6" x1="42.58" y1="17.26" x2="40.46" y2="19.39"/><line class="cls-6" x1="37.76" y1="13.5" x2="36.26" y2="16.11"/><line class="cls-6" x1="32.13" y1="11.12" x2="31.36" y2="14.03"/></svg>