<svg id="Layer_1" data-name="Layer 1" xmlns="http://www.w3.org/2000/svg" viewBox="0 0 13.7 13.7"><defs><style>.cls-1{fill:none;stroke:#f47821;stroke-miterlimit:10;}</style></defs><title>link</title><circle class="cls-1" cx="6.85" cy="6.85" r="6.35"/><line class="cls-1" x1="0.5" y1="6.85" x2="13.2" y2="6.85"/><path class="cls-1" d="M12.08,3.25a15.06,15.06,0,0,1-5.23.85,15.06,15.06,0,0,1-5.23-.85"/><path class="cls-1" d="M6.92,0.53a18.21,18.21,0,0,1,1,6.32,18.21,18.21,0,0,1-1,6.32"/><path class="cls-1" d="M6.68,0.53a18.21,18.21,0,0,0-1,6.32,18.21,18.21,0,0,0,1,6.32"/><path class="cls-1" d="M12.08,10.45A15.06,15.06,0,0,0,6.85,9.6a15.06,15.06,0,0,0-5.23.85"/></svg>