<svg id="Layer_1" data-name="Layer 1" xmlns="http://www.w3.org/2000/svg" viewBox="0 0 32.7 32.7"><defs><style>.cls-1{fill:#207fc3;}.cls-2{fill:none;stroke:#207fc3;stroke-miterlimit:10;stroke-width:0.37px;}.cls-3{fill:#fff;}</style></defs><title>Untitled-6</title><circle class="cls-1" cx="16.35" cy="16.35" r="14.61"/><circle class="cls-2" cx="16.35" cy="16.35" r="16.17"/><path class="cls-3" d="M12,19.09A7.73,7.73,0,0,1,11,14.92c0-3.87,2.08-6.37,5.3-6.37s5.3,2.5,5.3,6.35a7.79,7.79,0,0,1-1.13,4.28,4.57,4.57,0,0,1-3.25,2c0.16,1.11.65,1.64,1.53,1.64a1.94,1.94,0,0,0,1.42-.56,0.79,0.79,0,0,1,.51-0.23,0.75,0.75,0,0,1,.7.74c0,0.74-1.27,1.41-2.62,1.41a2.66,2.66,0,0,1-2.22-.92,3.89,3.89,0,0,1-.84-2A4.58,4.58,0,0,1,12,19.09Zm0.62-4.19c0,3,1.44,5,3.61,5s3.61-2,3.61-5-1.41-5-3.62-5S12.66,11.84,12.66,14.9Z"/></svg>