<svg id="Layer_1" data-name="Layer 1" xmlns="http://www.w3.org/2000/svg" viewBox="0 0 52.01 52.01"><defs><style>.cls-1,.cls-3{fill:#fff;}.cls-1{stroke:#207fc3;stroke-miterlimit:10;stroke-width:0.78px;}.cls-2{fill:#207fc3;}</style></defs><title>question</title><circle class="cls-1" cx="26.01" cy="26.01" r="25.62"/><circle class="cls-2" cx="26.01" cy="26.01" r="22.97"/><g id="_Group_" data-name="&lt;Group&gt;"><path class="cls-3" d="M33.72,20.56c0,2.53-1.29,4.53-4,6.17a5.87,5.87,0,0,0-3.3,4.84,0.88,0.88,0,0,1-.92,1,0.92,0.92,0,0,1-.92-1.11c0-2.5,1.17-4.53,3.58-6.23a5.42,5.42,0,0,0,2.65-4.5c0-2.47-1.94-4.13-4.78-4.13a4.84,4.84,0,0,0-5,4.1,1.35,1.35,0,0,1-2.68-.15,6.93,6.93,0,0,1,1.94-4.07,8.1,8.1,0,0,1,5.83-2.25C30.67,14.18,33.72,16.74,33.72,20.56Zm-6.1,16.68a2.1,2.1,0,1,1-2.1-2.1A2.16,2.16,0,0,1,27.62,37.24Z"/></g></svg>