<?xml version="1.0" encoding="utf-8"?>
<!-- Generator: Adobe Illustrator 21.1.0, SVG Export Plug-In . SVG Version: 6.00 Build 0)  -->
<svg version="1.1" id="圖層_1" xmlns="http://www.w3.org/2000/svg" xmlns:xlink="http://www.w3.org/1999/xlink" x="0px" y="0px"
	 viewBox="0 0 262.3 106.9" style="enable-background:new 0 0 262.3 106.9;" xml:space="preserve">
<style type="text/css">
	.st0{fill:#0080CF;stroke:#0080CF;stroke-width:1.5339;stroke-miterlimit:10;}
	.st1{fill:none;stroke:#0080CF;stroke-width:1.5339;stroke-miterlimit:10;}
	.st2{fill:#FFFFFF;stroke:#0080CF;stroke-width:1.2823;stroke-miterlimit:10;}
	.st3{fill:none;stroke:#0080CF;stroke-width:1.2823;stroke-miterlimit:10;}
	.st4{fill:#0CA64C;}
	.st5{fill:#FFD110;}
	.st6{fill:#FF780F;}
	.st7{fill:none;stroke:#FF780F;stroke-width:0.8823;stroke-linecap:round;stroke-miterlimit:10;}
	.st8{fill:#FFFFFF;stroke:#0080CF;stroke-width:0.6915;stroke-miterlimit:10;}
	.st9{fill:#FFFFFF;stroke:#0080CF;stroke-width:0.8594;stroke-miterlimit:10;}
</style>
<g id="XMLID_23_">
	<polygon id="XMLID_101323_" class="st0" points="41.7,29.2 133.7,5.1 225.7,29.2 225.7,77.6 133.7,101.8 41.7,77.6 	"/>
	<polygon id="XMLID_107_" class="st1" points="37.5,80.8 37.5,26.1 133.7,0.8 229.9,26.1 229.9,80.8 133.7,106.1 	"/>
	<polygon id="XMLID_101322_" class="st0" points="41.7,29.2 133.7,5.1 225.7,29.2 225.7,77.6 133.7,101.8 41.7,77.6 	"/>
	<g id="XMLID_58_">
		<g id="XMLID_120324_">
			<rect id="XMLID_120329_" x="27.8" y="56.9" class="st2" width="49.5" height="32.8"/>
			<line id="XMLID_120328_" class="st3" x1="27.9" y1="62.2" x2="77.3" y2="62.2"/>
			<circle id="XMLID_120327_" class="st4" cx="35.9" cy="59.7" r="0.5"/>
			<circle id="XMLID_120326_" class="st5" cx="33.1" cy="59.7" r="0.5"/>
			<circle id="XMLID_120325_" class="st6" cx="30.4" cy="59.7" r="0.5"/>
			<g id="XMLID_95_">
				<path id="XMLID_53_" class="st7" d="M30.9,67c3,0,3,2.4,6.1,2.4c3,0,3-2.4,6.1-2.4c3,0,3,2.4,6.1,2.4c3,0,3-2.4,6.1-2.4
					c3,0,3,2.4,6.1,2.4c3,0,3-2.4,6.1-2.4s3,2.4,6.1,2.4"/>
			</g>
			<g id="XMLID_92_">
				<path id="XMLID_51_" class="st7" d="M30.9,71.6c3,0,3,2.4,6.1,2.4c3,0,3-2.4,6.1-2.4c3,0,3,2.4,6.1,2.4c3,0,3-2.4,6.1-2.4
					c3,0,3,2.4,6.1,2.4c3,0,3-2.4,6.1-2.4s3,2.4,6.1,2.4"/>
			</g>
			<g id="XMLID_89_">
				<path id="XMLID_54_" class="st7" d="M30.9,76.2c3,0,3,2.4,6.1,2.4c3,0,3-2.4,6.1-2.4c3,0,3,2.4,6.1,2.4c3,0,3-2.4,6.1-2.4
					c3,0,3,2.4,6.1,2.4c3,0,3-2.4,6.1-2.4s3,2.4,6.1,2.4"/>
			</g>
			<g id="XMLID_86_">
				<path id="XMLID_56_" class="st7" d="M30.9,80.9c3,0,3,2.4,6.1,2.4c3,0,3-2.4,6.1-2.4c3,0,3,2.4,6.1,2.4c3,0,3-2.4,6.1-2.4
					c3,0,3,2.4,6.1,2.4c3,0,3-2.4,6.1-2.4s3,2.4,6.1,2.4"/>
			</g>
		</g>
		<g id="XMLID_31543_">
			<rect id="XMLID_120323_" x="42.6" y="82.3" class="st8" width="20.7" height="12.5"/>
			<rect id="XMLID_120322_" x="44.5" y="83.9" class="st6" width="4.7" height="4.5"/>
		</g>
	</g>
	<g id="XMLID_24_">
		<path id="XMLID_66854_" class="st9" d="M232.2,99.5l-11.3,3c-0.1,0-0.2,0-0.3-0.2l-5.5-20.7c0-0.1,0-0.2,0.2-0.3l11.3-3
			c0.1,0,0.2,0,0.3,0.2l5.5,20.7C232.4,99.4,232.3,99.5,232.2,99.5z"/>
		<path id="XMLID_66853_" class="st9" d="M217.5,94.1l-0.1-0.2c-0.1-0.4,0.1-0.8,0.5-0.9l12-3.1c0.4-0.1,0.8,0.1,0.9,0.5l0.1,0.2
			c0.1,0.4-0.1,0.8-0.5,0.9l-12,3.1C218,94.8,217.6,94.5,217.5,94.1z"/>
		<path id="XMLID_66852_" class="st9" d="M231.1,86.8l-3.9-13.7c0,0,0,0,0-0.1l-3.5-12.2c-0.3-0.9-1.2-1.4-2.1-1.2s-1.4,1.2-1.2,2.1
			l2.9,9.9l-0.9,0.3l-3.7-12.8c-0.3-0.9-1.2-1.4-2.1-1.2c-0.9,0.3-1.4,1.2-1.2,2.1l3.7,12.8l-0.9,0.3l-3.5-12
			c-0.3-0.9-1.2-1.4-2.1-1.2l0,0c-0.9,0.3-1.4,1.2-1.2,2.1l3.5,11.9l-0.9,0.3l-2.9-10c-0.3-0.9-1.2-1.4-2.1-1.2l0,0
			c-0.9,0.3-1.4,1.2-1.2,2.1l3.4,11.8c0,0.2,0,0.4,0.1,0.6l3.9,13.7c0.4,1.3,1.7,2.1,3,1.7l11.3-3.2
			C230.7,89.5,231.5,88.1,231.1,86.8z"/>
		
			<ellipse id="XMLID_66851_" transform="matrix(0.9667 -0.2561 0.2561 0.9667 -18.4091 61.4122)" class="st9" cx="226.6" cy="101.4" rx="6.1" ry="1"/>
		<g id="XMLID_66846_">
			
				<rect id="XMLID_66848_" x="212.7" y="67.7" transform="matrix(0.9625 -0.2712 0.2712 0.9625 -11.6961 63.2638)" class="st8" width="20.7" height="12.5"/>
			
				<rect id="XMLID_66847_" x="214.2" y="70.9" transform="matrix(0.9625 -0.2712 0.2712 0.9625 -11.7231 61.4664)" class="st6" width="4.7" height="4.5"/>
		</g>
		<path id="XMLID_66845_" class="st9" d="M233.8,87.5l-0.2-1l-1-4.7l-2-9.3c-0.3-1.5-1.8-2.4-3.3-2.1s-2.4,1.8-2.1,3.3l1.6,7.4
			c-2,0.9-3.3,3.1-2.8,5.4l0.7,3.1c0.2,1.1,1.3,1.8,2.4,1.5l5.1-1.1C233.3,89.6,234,88.5,233.8,87.5z"/>
	</g>
</g>
</svg>
