<?xml version="1.0" encoding="utf-8"?>
<!-- Generator: Adobe Illustrator 21.1.0, SVG Export Plug-In . SVG Version: 6.00 Build 0)  -->
<svg version="1.1" id="圖層_1" xmlns="http://www.w3.org/2000/svg" xmlns:xlink="http://www.w3.org/1999/xlink" x="0px" y="0px"
	 viewBox="0 0 262.3 106.9" style="enable-background:new 0 0 262.3 106.9;" xml:space="preserve">
<style type="text/css">
	.st0{fill:#0080CF;stroke:#0080CF;stroke-width:1.5339;stroke-miterlimit:10;}
	.st1{fill:none;stroke:#0080CF;stroke-width:1.5339;stroke-miterlimit:10;}
	.st2{fill:#FFFFFF;stroke:#0080CF;stroke-width:0.7448;stroke-miterlimit:10;}
	.st3{fill:none;stroke:#0080CF;stroke-width:0.7448;stroke-miterlimit:10;}
	.st4{fill:#0080CF;}
	.st5{fill:#FFFFFF;stroke:#0080CF;stroke-width:0.7419;stroke-miterlimit:10;}
	.st6{fill:#FFFFFF;stroke:#0080CF;stroke-width:0.6263;stroke-miterlimit:10;}
	.st7{fill:#FF780F;}
</style>
<g id="XMLID_11_">
	<polygon id="XMLID_83484_" class="st0" points="42,29.6 134,5.4 226.1,29.6 226.1,78 134,102.1 42,78 	"/>
	<polygon id="XMLID_157_" class="st1" points="37.9,81.1 37.9,26.4 134,1.1 230.2,26.4 230.2,81.1 134,106.4 	"/>
	<polygon id="XMLID_83483_" class="st0" points="42,29.6 134,5.4 226.1,29.6 226.1,78 134,102.1 42,78 	"/>
	<g id="XMLID_143_">
		<circle id="XMLID_152_" class="st2" cx="39.1" cy="69.9" r="17.6"/>
		<circle id="XMLID_151_" class="st3" cx="39.1" cy="69.9" r="15.3"/>
		<g id="XMLID_144_">
			<path id="XMLID_150_" class="st4" d="M37.1,79.2V68.5c0-2-1.6-3.7-3.7-3.7l0,0c-2,0-3.7,1.6-3.7,3.7v10.7H37.1z"/>
			<path id="XMLID_149_" class="st4" d="M48.4,79.2V68.5c0-2-1.6-3.7-3.7-3.7l0,0c-2,0-3.7,1.6-3.7,3.7v10.7H48.4z"/>
			<rect id="XMLID_148_" x="36.5" y="68.6" class="st4" width="5.7" height="3.7"/>
			<circle id="XMLID_147_" class="st4" cx="44.7" cy="62.1" r="2.6"/>
			<circle id="XMLID_146_" class="st4" cx="33.4" cy="62.1" r="2.6"/>
			<rect id="XMLID_145_" x="30.8" y="62.1" class="st4" width="5.2" height="2.6"/>
		</g>
	</g>
	<g id="XMLID_132_">
		<path id="XMLID_83477_" class="st5" d="M24.5,90.1l-9.9-1.9c-0.1,0-0.2-0.1-0.2-0.3l3.4-18.1c0-0.1,0.1-0.2,0.3-0.2l9.9,1.9
			c0.1,0,0.2,0.1,0.2,0.3l-3.4,18.1C24.7,90,24.6,90.1,24.5,90.1z"/>
		<path id="XMLID_83476_" class="st5" d="M15.1,80.3L15.1,80.3c0.1-0.4,0.5-0.7,0.9-0.6l10.3,2c0.4,0.1,0.7,0.5,0.6,0.9l0,0
			c-0.1,0.4-0.5,0.7-0.9,0.6l-10.3-2C15.3,81.1,15,80.7,15.1,80.3z"/>
		<path id="XMLID_83475_" class="st5" d="M28.4,79.8l2.1-12.1c0,0,0,0,0-0.1l1.8-10.8c0.1-0.8-0.4-1.6-1.2-1.7
			c-0.8-0.1-1.6,0.4-1.7,1.2l-1.5,8.8L27.1,65l1.8-11.4c0.1-0.8-0.4-1.6-1.2-1.7c-0.8-0.1-1.6,0.4-1.7,1.2l-1.9,11.4l-0.8-0.1
			l1.8-10.6c0.1-0.8-0.4-1.6-1.2-1.7l0,0c-0.8-0.1-1.6,0.4-1.7,1.2l-1.8,10.6l-0.8-0.1l1.5-8.9c0.1-0.8-0.4-1.6-1.2-1.7l0,0
			c-0.8-0.1-1.6,0.4-1.7,1.2l-1.7,10.5c-0.1,0.1-0.1,0.3-0.1,0.5l-2.1,12.1c-0.2,1.2,0.6,2.3,1.7,2.4l10,1.7
			C27.1,81.7,28.2,80.9,28.4,79.8z"/>
		
			<ellipse id="XMLID_83474_" transform="matrix(0.1856 -0.9826 0.9826 0.1856 -72.1248 91.961)" class="st5" cx="19.4" cy="89.5" rx="0.9" ry="5.2"/>
		<g id="XMLID_83460_">
			
				<rect id="XMLID_83473_" x="21.6" y="59.7" transform="matrix(0.176 -0.9844 0.9844 0.176 -43.9955 82.7247)" class="st6" width="11.7" height="15.9"/>
			<path id="XMLID_83472_" class="st7" d="M23.1,65.9L23.1,65.9c-0.5-0.1-0.9-0.6-0.8-1.2l0,0c0.1-0.5,0.6-0.9,1.2-0.8l0,0
				c0.5,0.1,0.9,0.6,0.8,1.2l0,0C24.2,65.7,23.6,66,23.1,65.9z"/>
			<polygon id="XMLID_83471_" class="st4" points="21.2,64.6 21.6,64.2 22.1,63.7 21.9,64.7 21.7,65.7 21.4,65.2 			"/>
			
				<rect id="XMLID_83462_" x="29" y="66.1" transform="matrix(0.176 -0.9844 0.9844 0.176 -41.0581 87.4648)" class="st7" width="5.5" height="4.4"/>
		</g>
		<path id="XMLID_83445_" class="st5" d="M30.2,81.3l0.2-0.9l0.9-4l1.9-8c0.3-1.3-0.5-2.5-1.8-2.8c-1.3-0.3-2.5,0.5-2.8,1.8
			l-1.5,6.3c-1.9-0.1-3.7,1.2-4.1,3.2l-0.6,2.6c-0.2,0.9,0.4,1.9,1.3,2.1l4.4,1C29.1,82.8,30,82.2,30.2,81.3z"/>
	</g>
	<g id="XMLID_64_">
		<path id="XMLID_83444_" class="st5" d="M223.9,94.7l9.8-2.4c0.1,0,0.2-0.2,0.2-0.3l-4.5-17.9c0-0.1-0.2-0.2-0.3-0.2l-9.8,2.4
			c-0.1,0-0.2,0.2-0.2,0.3l4.5,17.9C223.6,94.7,223.8,94.8,223.9,94.7z"/>
		<path id="XMLID_83443_" class="st5" d="M232.7,84.4L232.7,84.4c-0.1-0.4-0.5-0.6-0.9-0.5l-10.2,2.6c-0.4,0.1-0.6,0.5-0.5,0.9l0,0
			c0.1,0.4,0.5,0.6,0.9,0.5l10.2-2.6C232.5,85.2,232.8,84.8,232.7,84.4z"/>
		<path id="XMLID_83442_" class="st5" d="M219.3,84.7l-2.8-11.9c0,0,0,0,0-0.1L214.2,62c-0.2-0.8,0.3-1.6,1.1-1.8s1.6,0.3,1.8,1.1
			l2,8.7l0.8-0.2l-2.5-11.2c-0.2-0.8,0.3-1.6,1.1-1.8s1.6,0.3,1.8,1.1l2.5,11.2l0.8-0.2l-2.4-10.5c-0.2-0.8,0.3-1.6,1.1-1.8l0,0
			c0.8-0.2,1.6,0.3,1.8,1.1l2.4,10.5l0.8-0.2l-2-8.8c-0.2-0.8,0.3-1.6,1.1-1.8l0,0c0.8-0.2,1.6,0.3,1.8,1.1l2.3,10.4
			c0.1,0.1,0.1,0.3,0.2,0.5l2.8,11.9c0.3,1.1-0.5,2.3-1.6,2.5l-9.9,2.3C220.8,86.5,219.6,85.8,219.3,84.7z"/>
		
			<ellipse id="XMLID_82788_" transform="matrix(0.9703 -0.2421 0.2421 0.9703 -15.9176 58.192)" class="st5" cx="228.8" cy="93.9" rx="5.2" ry="0.9"/>
		<g id="XMLID_82783_">
			
				<rect id="XMLID_82787_" x="211.7" y="66.7" transform="matrix(0.9726 -0.2326 0.2326 0.9726 -10.8394 53.0769)" class="st6" width="15.9" height="11.7"/>
			<path id="XMLID_82786_" class="st7" d="M223.8,70.5L223.8,70.5c0.5-0.1,0.9-0.7,0.7-1.2l0,0c-0.1-0.5-0.7-0.9-1.2-0.7l0,0
				c-0.5,0.1-0.9,0.7-0.7,1.2l0,0C222.8,70.3,223.3,70.7,223.8,70.5z"/>
			<polygon id="XMLID_82785_" class="st4" points="225.7,69.1 225.2,68.7 224.7,68.3 225,69.3 225.2,70.2 225.4,69.7 			"/>
			
				<rect id="XMLID_82784_" x="213.3" y="70.5" transform="matrix(0.9726 -0.2326 0.2326 0.9726 -11.1397 52.1233)" class="st7" width="4.4" height="5.5"/>
		</g>
		<path id="XMLID_82782_" class="st5" d="M217.6,86.3l-0.2-0.8l-1.2-4l-2.3-7.8c-0.4-1.2,0.4-2.6,1.6-2.9c1.2-0.4,2.6,0.4,2.9,1.6
			l1.8,6.2c1.9-0.2,3.8,1,4.3,2.9l0.8,2.6c0.3,0.9-0.3,1.9-1.2,2.2l-4.4,1.3C218.9,87.7,217.9,87.2,217.6,86.3z"/>
	</g>
</g>
</svg>
