<?xml version="1.0" encoding="utf-8"?>
<!-- Generator: Adobe Illustrator 21.1.0, SVG Export Plug-In . SVG Version: 6.00 Build 0)  -->
<svg version="1.1" id="圖層_1" xmlns="http://www.w3.org/2000/svg" xmlns:xlink="http://www.w3.org/1999/xlink" x="0px" y="0px"
	 viewBox="0 0 262.3 106.9" style="enable-background:new 0 0 262.3 106.9;" xml:space="preserve">
<style type="text/css">
	.st0{fill:#0080CF;stroke:#0080CF;stroke-width:1.5339;stroke-miterlimit:10;}
	.st1{fill:none;stroke:#0080CF;stroke-width:1.5339;stroke-miterlimit:10;}
	.st2{fill:#FFFFFF;stroke:#0080CF;stroke-width:1.3191;stroke-miterlimit:10;}
	.st3{fill:#0080CF;}
	.st4{fill:#FF780F;}
	.st5{fill:#FFFFFF;stroke:#0080CF;stroke-width:0.8655;stroke-miterlimit:10;}
	.st6{fill:#FFFFFF;stroke:#0080CF;stroke-width:0.7521;stroke-miterlimit:10;}
	.st7{fill:#FFFFFF;stroke:#FF780F;stroke-width:1.0028;stroke-miterlimit:10;}
</style>
<g id="XMLID_22_">
	<polygon id="XMLID_122883_" class="st0" points="40.6,29.2 132.7,5.1 224.7,29.2 224.7,77.6 132.7,101.8 40.6,77.6 	"/>
	<polygon id="XMLID_82_" class="st1" points="36.5,80.8 36.5,26.1 132.7,0.8 228.8,26.1 228.8,80.8 132.7,106.1 	"/>
	<g id="XMLID_61_">
		<rect id="XMLID_80_" x="198.1" y="75.7" class="st2" width="37.6" height="23.2"/>
		<g id="XMLID_77_">
			<circle id="XMLID_79_" class="st3" cx="226.5" cy="84.6" r="2.5"/>
			<path id="XMLID_78_" class="st3" d="M223.6,92.9v-2.8c0-1.6,1.3-2.8,2.8-2.8l0,0c1.6,0,2.8,1.3,2.8,2.8v2.8H223.6z"/>
		</g>
		<rect id="XMLID_76_" x="202.1" y="82.1" class="st4" width="10.9" height="1.3"/>
		<rect id="XMLID_67_" x="202.1" y="84.2" class="st4" width="14.8" height="1.3"/>
	</g>
	<g id="XMLID_4014_">
		<path id="XMLID_66844_" class="st5" d="M42.3,96.6l-11.8-0.2c-0.1,0-0.2-0.1-0.2-0.2l0.3-21.6c0-0.1,0.1-0.2,0.2-0.2l11.8,0.2
			c0.1,0,0.2,0.1,0.2,0.2l-0.3,21.6C42.5,96.5,42.4,96.6,42.3,96.6z"/>
		<path id="XMLID_66841_" class="st5" d="M29.5,87.3L29.5,87.3c0-0.5,0.4-0.8,0.9-0.8l12.2,0.3c0.5,0,0.8,0.4,0.8,0.9l0,0
			c0,0.5-0.4,0.8-0.9,0.8l-12.2-0.3C29.9,88.1,29.5,87.7,29.5,87.3z"/>
		<path id="XMLID_66840_" class="st5" d="M44.7,84V69.7c0,0,0,0,0-0.1l-0.1-12.8c0-1-0.8-1.7-1.7-1.7c-1,0-1.7,0.8-1.7,1.7l0.1,10.4
			h-1l-0.1-13.4c0-1-0.8-1.7-1.7-1.7c-1,0-1.7,0.8-1.7,1.7l0.1,13.4h-1l-0.1-12.5c0-1-0.8-1.7-1.7-1.7l0,0c-1,0-1.7,0.8-1.7,1.7
			l0.1,12.5h-1l-0.1-10.5c0-1-0.8-1.7-1.7-1.7l0,0c-1,0-1.7,0.8-1.7,1.7l0.1,12.4c0,0.2-0.1,0.4-0.1,0.6V84c0,1.4,1.1,2.5,2.5,2.5
			h11.9C43.6,86.5,44.7,85.4,44.7,84z"/>
		
			<ellipse id="XMLID_66838_" transform="matrix(1.570605e-02 -0.9999 0.9999 1.570605e-02 -61.1589 131.6765)" class="st5" cx="36.3" cy="96.9" rx="1" ry="6.1"/>
		<g id="XMLID_66833_">
			
				<rect id="XMLID_66837_" x="35.1" y="50.2" transform="matrix(1.079934e-02 -0.9999 0.9999 1.079934e-02 -20.4018 103.6712)" class="st6" width="14.1" height="23.8"/>
			
				<rect id="XMLID_66834_" x="46.7" y="57.3" transform="matrix(1.069535e-02 -0.9999 0.9999 1.069535e-02 -10.3821 109.3019)" class="st4" width="6.6" height="5.1"/>
		</g>
		<g id="XMLID_66819_">
			<rect id="XMLID_66829_" x="20.3" y="57.6" class="st6" width="35" height="15.9"/>
			<rect id="XMLID_66828_" x="24.6" y="60.6" class="st7" width="9.8" height="9.8"/>
			<rect id="XMLID_66823_" x="37.9" y="63.3" class="st3" width="2.3" height="2.3"/>
			<rect id="XMLID_66822_" x="41.9" y="63.3" class="st3" width="2.3" height="2.3"/>
			<rect id="XMLID_66821_" x="45.9" y="63.3" class="st3" width="2.3" height="2.3"/>
			<rect id="XMLID_66820_" x="49.9" y="63.3" class="st3" width="2.3" height="2.3"/>
		</g>
		<path id="XMLID_66818_" class="st5" d="M47.1,85.3l0.1-1l0.3-4.8L48,70c0.1-1.5-1.1-2.8-2.6-2.9s-2.8,1.1-2.9,2.6l-0.4,7.6
			c-2.2,0.3-4,2.1-4.1,4.4l-0.2,3.1c-0.1,1.1,0.8,2.1,1.9,2.2l5.3,0.3C46.1,87.3,47.1,86.5,47.1,85.3z"/>
	</g>
</g>
</svg>
