<?xml version="1.0" encoding="utf-8"?>
<!-- Generator: Adobe Illustrator 21.1.0, SVG Export Plug-In . SVG Version: 6.00 Build 0)  -->
<svg version="1.1" id="圖層_1" xmlns="http://www.w3.org/2000/svg" xmlns:xlink="http://www.w3.org/1999/xlink" x="0px" y="0px"
	 viewBox="0 0 262.3 106.9" style="enable-background:new 0 0 262.3 106.9;" xml:space="preserve">
<style type="text/css">
	.st0{fill:#0080CF;stroke:#0080CF;stroke-width:1.5339;stroke-miterlimit:10;}
	.st1{fill:none;stroke:#0080CF;stroke-width:1.5339;stroke-miterlimit:10;}
	.st2{fill:#FFFFFF;stroke:#0080CF;stroke-width:1.1667;stroke-miterlimit:10;}
	.st3{fill:none;stroke:#0080CF;stroke-width:1.0084;stroke-linecap:round;stroke-miterlimit:10;}
	.st4{fill:#FF780F;}
	.st5{fill:#FFFFFF;stroke:#0080CF;stroke-width:0.7089;stroke-miterlimit:10;}
	.st6{fill:#FB6210;}
	.st7{fill:#0080CF;}
</style>
<g>
	<polygon id="XMLID_82771_" class="st0" points="39.1,29.1 131.1,4.9 223.2,29.1 223.2,77.5 131.1,101.7 39.1,77.5 	"/>
	<polygon id="XMLID_60_" class="st1" points="35,80.7 35,25.9 131.1,0.7 227.3,25.9 227.3,80.7 131.1,105.9 	"/>
	<polygon id="XMLID_82769_" class="st0" points="39.1,29.1 131.1,4.9 223.2,29.1 223.2,77.5 131.1,101.7 39.1,77.5 	"/>
	<g id="XMLID_82750_">
		<path id="XMLID_82754_" class="st2" d="M75.2,71.3c0-3.9-6-5.6-13.5-5.6s-13.5,1.8-13.5,5.6c0,0.1,0,0.1,0,0.2v0.1V96
			c0,0.3,0.3,0.6,0.6,0.6h25.7c0.3,0,0.6-0.3,0.6-0.6V71.6v-0.1C75.1,71.4,75.2,71.3,75.2,71.3z"/>
		<path id="XMLID_82753_" class="st3" d="M55.2,69.9c1.9-0.4,4.2-0.5,6.5-0.5c2.4,0,4.6,0.2,6.5,0.5"/>
		<ellipse id="XMLID_82752_" class="st4" cx="61.9" cy="93.1" rx="4.4" ry="1"/>
	</g>
	<g id="XMLID_81659_">
		<path id="XMLID_81663_" class="st2" d="M214.9,71.3c0-3.9-6-5.6-13.5-5.6c-7.4,0-13.5,1.8-13.5,5.6c0,0.1,0,0.1,0,0.2v0.1V96
			c0,0.3,0.3,0.6,0.6,0.6h25.7c0.3,0,0.6-0.3,0.6-0.6V71.6v-0.1C214.9,71.4,214.9,71.3,214.9,71.3z"/>
		<path id="XMLID_81662_" class="st3" d="M194.9,69.9c1.9-0.4,4.2-0.5,6.5-0.5s4.6,0.2,6.5,0.5"/>
		<ellipse id="XMLID_81661_" class="st4" cx="201.7" cy="93.1" rx="4.4" ry="1"/>
	</g>
	<g id="XMLID_25_">
		<rect id="XMLID_92128_" x="193.4" y="37.7" class="st5" width="15.8" height="21.5"/>
		<path id="XMLID_92127_" class="st6" d="M200,54.6L200,54.6c0,0.7-0.6,1.3-1.3,1.3l0,0c-0.7,0-1.3-0.6-1.3-1.3l0,0
			c0-0.7,0.6-1.3,1.3-1.3l0,0C199.4,53.3,200,53.9,200,54.6z"/>
		<polygon id="XMLID_76833_" class="st7" points="198.7,57.5 198,57 197.3,56.5 198.7,56.5 200.1,56.5 199.4,57 		"/>
		<g id="XMLID_26_">
			<rect id="XMLID_40_" x="205.2" y="43.8" class="st6" width="2.6" height="0.4"/>
			<rect id="XMLID_39_" x="205.2" y="42.4" class="st6" width="2.6" height="0.4"/>
			<rect id="XMLID_38_" x="205.2" y="41.6" class="st6" width="2.6" height="0.4"/>
			<rect id="XMLID_37_" x="205.2" y="40.2" class="st6" width="2.6" height="0.4"/>
			<rect id="XMLID_36_" x="205.2" y="43.4" class="st6" width="2.6" height="0.1"/>
			<rect id="XMLID_35_" x="205.2" y="42.1" class="st6" width="2.6" height="0.1"/>
			<rect id="XMLID_34_" x="205.2" y="39.1" class="st6" width="2.6" height="0.4"/>
			<rect id="XMLID_33_" x="205.2" y="39.7" class="st6" width="2.6" height="0.1"/>
			<rect id="XMLID_32_" x="205.2" y="40.9" class="st6" width="2.6" height="0.1"/>
			<rect id="XMLID_31_" x="205.2" y="40.7" class="st6" width="2.6" height="0.1"/>
			<rect id="XMLID_30_" x="205.2" y="39.9" class="st6" width="2.6" height="0.1"/>
			<rect id="XMLID_29_" x="205.2" y="44.7" class="st6" width="2.6" height="0.4"/>
			<rect id="XMLID_28_" x="205.2" y="45.3" class="st6" width="2.6" height="0.1"/>
			<rect id="XMLID_27_" x="205.2" y="45.5" class="st6" width="2.6" height="0.1"/>
		</g>
	</g>
	<g id="XMLID_3_">
		<rect id="XMLID_81667_" x="53.2" y="37.7" class="st5" width="15.8" height="21.5"/>
		<path id="XMLID_81666_" class="st6" d="M59.8,54.6L59.8,54.6c0,0.7-0.6,1.3-1.3,1.3l0,0c-0.7,0-1.3-0.6-1.3-1.3l0,0
			c0-0.7,0.6-1.3,1.3-1.3l0,0C59.2,53.3,59.8,53.9,59.8,54.6z"/>
		<polygon id="XMLID_81665_" class="st7" points="58.5,57.5 57.8,57 57.1,56.5 58.5,56.5 59.9,56.5 59.2,57 		"/>
		<g id="XMLID_4_">
			<rect id="XMLID_21_" x="64.9" y="43.8" class="st6" width="2.6" height="0.4"/>
			<rect id="XMLID_20_" x="64.9" y="42.4" class="st6" width="2.6" height="0.4"/>
			<rect id="XMLID_19_" x="64.9" y="41.6" class="st6" width="2.6" height="0.4"/>
			<rect id="XMLID_18_" x="64.9" y="40.2" class="st6" width="2.6" height="0.4"/>
			<rect id="XMLID_17_" x="64.9" y="43.4" class="st6" width="2.6" height="0.1"/>
			<rect id="XMLID_15_" x="64.9" y="42.1" class="st6" width="2.6" height="0.1"/>
			<rect id="XMLID_14_" x="64.9" y="39.1" class="st6" width="2.6" height="0.4"/>
			<rect id="XMLID_12_" x="64.9" y="39.7" class="st6" width="2.6" height="0.1"/>
			<rect id="XMLID_10_" x="64.9" y="40.9" class="st6" width="2.6" height="0.1"/>
			<rect id="XMLID_9_" x="64.9" y="40.7" class="st6" width="2.6" height="0.1"/>
			<rect id="XMLID_8_" x="64.9" y="39.9" class="st6" width="2.6" height="0.1"/>
			<rect id="XMLID_7_" x="64.9" y="44.7" class="st6" width="2.6" height="0.4"/>
			<rect id="XMLID_6_" x="64.9" y="45.3" class="st6" width="2.6" height="0.1"/>
			<rect id="XMLID_5_" x="64.9" y="45.5" class="st6" width="2.6" height="0.1"/>
		</g>
	</g>
</g>
</svg>
