<svg id="Layer_1" data-name="Layer 1" xmlns="http://www.w3.org/2000/svg" viewBox="0 0 62.22 54.59"><defs><style>.cls-1{fill:#207fc3;}</style></defs><title>Untitled-9</title><circle id="_Path_" data-name="&lt;Path&gt;" class="cls-1" cx="51.82" cy="53.7" r="0.89"/><circle id="_Path_2" data-name="&lt;Path&gt;" class="cls-1" cx="46.16" cy="53.7" r="0.89"/><circle id="_Path_3" data-name="&lt;Path&gt;" class="cls-1" cx="40.5" cy="53.7" r="0.89"/><circle id="_Path_4" data-name="&lt;Path&gt;" class="cls-1" cx="34.85" cy="53.7" r="0.89"/><circle id="_Path_5" data-name="&lt;Path&gt;" class="cls-1" cx="29.19" cy="53.7" r="0.89"/><circle id="_Path_6" data-name="&lt;Path&gt;" class="cls-1" cx="23.53" cy="53.7" r="0.89"/><circle id="_Path_7" data-name="&lt;Path&gt;" class="cls-1" cx="17.87" cy="53.7" r="0.89"/><circle id="_Path_8" data-name="&lt;Path&gt;" class="cls-1" cx="12.21" cy="53.7" r="0.89"/><circle id="_Path_9" data-name="&lt;Path&gt;" class="cls-1" cx="6.55" cy="53.7" r="0.89"/><circle id="_Path_10" data-name="&lt;Path&gt;" class="cls-1" cx="0.89" cy="53.7" r="0.89"/><circle id="_Path_11" data-name="&lt;Path&gt;" class="cls-1" cx="51.82" cy="48.42" r="0.89"/><circle id="_Path_12" data-name="&lt;Path&gt;" class="cls-1" cx="46.16" cy="48.42" r="0.89"/><circle id="_Path_13" data-name="&lt;Path&gt;" class="cls-1" cx="40.5" cy="48.42" r="0.89"/><circle id="_Path_14" data-name="&lt;Path&gt;" class="cls-1" cx="34.85" cy="48.42" r="0.89"/><circle id="_Path_15" data-name="&lt;Path&gt;" class="cls-1" cx="29.19" cy="48.42" r="0.89"/><circle id="_Path_16" data-name="&lt;Path&gt;" class="cls-1" cx="23.53" cy="48.42" r="0.89"/><circle id="_Path_17" data-name="&lt;Path&gt;" class="cls-1" cx="17.87" cy="48.42" r="0.89"/><circle id="_Path_18" data-name="&lt;Path&gt;" class="cls-1" cx="12.21" cy="48.42" r="0.89"/><circle id="_Path_19" data-name="&lt;Path&gt;" class="cls-1" cx="6.55" cy="48.42" r="0.89"/><circle id="_Path_20" data-name="&lt;Path&gt;" class="cls-1" cx="0.89" cy="48.42" r="0.89"/><circle id="_Path_21" data-name="&lt;Path&gt;" class="cls-1" cx="51.82" cy="43.13" r="0.89"/><circle id="_Path_22" data-name="&lt;Path&gt;" class="cls-1" cx="46.16" cy="43.13" r="0.89"/><circle id="_Path_23" data-name="&lt;Path&gt;" class="cls-1" cx="40.5" cy="43.13" r="0.89"/><circle id="_Path_24" data-name="&lt;Path&gt;" class="cls-1" cx="34.85" cy="43.13" r="0.89"/><circle id="_Path_25" data-name="&lt;Path&gt;" class="cls-1" cx="29.19" cy="43.13" r="0.89"/><circle id="_Path_26" data-name="&lt;Path&gt;" class="cls-1" cx="23.53" cy="43.13" r="0.89"/><circle id="_Path_27" data-name="&lt;Path&gt;" class="cls-1" cx="17.87" cy="43.13" r="0.89"/><circle id="_Path_28" data-name="&lt;Path&gt;" class="cls-1" cx="12.21" cy="43.13" r="0.89"/><circle id="_Path_29" data-name="&lt;Path&gt;" class="cls-1" cx="6.55" cy="43.13" r="0.89"/><circle id="_Path_30" data-name="&lt;Path&gt;" class="cls-1" cx="0.89" cy="43.13" r="0.89"/><circle id="_Path_31" data-name="&lt;Path&gt;" class="cls-1" cx="51.82" cy="37.85" r="0.89"/><circle id="_Path_32" data-name="&lt;Path&gt;" class="cls-1" cx="46.16" cy="37.85" r="0.89"/><circle id="_Path_33" data-name="&lt;Path&gt;" class="cls-1" cx="40.5" cy="37.85" r="0.89"/><circle id="_Path_34" data-name="&lt;Path&gt;" class="cls-1" cx="34.85" cy="37.85" r="0.89"/><circle id="_Path_35" data-name="&lt;Path&gt;" class="cls-1" cx="29.19" cy="37.85" r="0.89"/><circle id="_Path_36" data-name="&lt;Path&gt;" class="cls-1" cx="23.53" cy="37.85" r="0.89"/><circle id="_Path_37" data-name="&lt;Path&gt;" class="cls-1" cx="17.87" cy="37.85" r="0.89"/><circle id="_Path_38" data-name="&lt;Path&gt;" class="cls-1" cx="12.21" cy="37.85" r="0.89"/><circle id="_Path_39" data-name="&lt;Path&gt;" class="cls-1" cx="6.55" cy="37.85" r="0.89"/><circle id="_Path_40" data-name="&lt;Path&gt;" class="cls-1" cx="0.89" cy="37.85" r="0.89"/><circle id="_Path_41" data-name="&lt;Path&gt;" class="cls-1" cx="51.82" cy="32.57" r="0.89"/><circle id="_Path_42" data-name="&lt;Path&gt;" class="cls-1" cx="46.16" cy="32.57" r="0.89"/><circle id="_Path_43" data-name="&lt;Path&gt;" class="cls-1" cx="40.5" cy="32.57" r="0.89"/><circle id="_Path_44" data-name="&lt;Path&gt;" class="cls-1" cx="34.85" cy="32.57" r="0.89"/><circle id="_Path_45" data-name="&lt;Path&gt;" class="cls-1" cx="29.19" cy="32.57" r="0.89"/><circle id="_Path_46" data-name="&lt;Path&gt;" class="cls-1" cx="23.53" cy="32.57" r="0.89"/><circle id="_Path_47" data-name="&lt;Path&gt;" class="cls-1" cx="17.87" cy="32.57" r="0.89"/><circle id="_Path_48" data-name="&lt;Path&gt;" class="cls-1" cx="12.21" cy="32.57" r="0.89"/><circle id="_Path_49" data-name="&lt;Path&gt;" class="cls-1" cx="6.55" cy="32.57" r="0.89"/><circle id="_Path_50" data-name="&lt;Path&gt;" class="cls-1" cx="0.89" cy="32.57" r="0.89"/><circle id="_Path_51" data-name="&lt;Path&gt;" class="cls-1" cx="51.82" cy="27.29" r="0.89"/><circle id="_Path_52" data-name="&lt;Path&gt;" class="cls-1" cx="46.16" cy="27.29" r="0.89"/><circle id="_Path_53" data-name="&lt;Path&gt;" class="cls-1" cx="40.5" cy="27.29" r="0.89"/><circle id="_Path_54" data-name="&lt;Path&gt;" class="cls-1" cx="34.85" cy="27.29" r="0.89"/><circle id="_Path_55" data-name="&lt;Path&gt;" class="cls-1" cx="29.19" cy="27.29" r="0.89"/><circle id="_Path_56" data-name="&lt;Path&gt;" class="cls-1" cx="23.53" cy="27.29" r="0.89"/><circle id="_Path_57" data-name="&lt;Path&gt;" class="cls-1" cx="17.87" cy="27.29" r="0.89"/><circle id="_Path_58" data-name="&lt;Path&gt;" class="cls-1" cx="12.21" cy="27.29" r="0.89"/><circle id="_Path_59" data-name="&lt;Path&gt;" class="cls-1" cx="6.55" cy="27.29" r="0.89"/><circle id="_Path_60" data-name="&lt;Path&gt;" class="cls-1" cx="0.89" cy="27.29" r="0.89"/><circle id="_Path_61" data-name="&lt;Path&gt;" class="cls-1" cx="51.82" cy="22.01" r="0.89"/><circle id="_Path_62" data-name="&lt;Path&gt;" class="cls-1" cx="46.16" cy="22.01" r="0.89"/><circle id="_Path_63" data-name="&lt;Path&gt;" class="cls-1" cx="40.5" cy="22.01" r="0.89"/><circle id="_Path_64" data-name="&lt;Path&gt;" class="cls-1" cx="34.85" cy="22.01" r="0.89"/><circle id="_Path_65" data-name="&lt;Path&gt;" class="cls-1" cx="29.19" cy="22.01" r="0.89"/><circle id="_Path_66" data-name="&lt;Path&gt;" class="cls-1" cx="23.53" cy="22.01" r="0.89"/><circle id="_Path_67" data-name="&lt;Path&gt;" class="cls-1" cx="17.87" cy="22.01" r="0.89"/><circle id="_Path_68" data-name="&lt;Path&gt;" class="cls-1" cx="12.21" cy="22.01" r="0.89"/><circle id="_Path_69" data-name="&lt;Path&gt;" class="cls-1" cx="6.55" cy="22.01" r="0.89"/><circle id="_Path_70" data-name="&lt;Path&gt;" class="cls-1" cx="0.89" cy="22.01" r="0.89"/><circle id="_Path_71" data-name="&lt;Path&gt;" class="cls-1" cx="57.46" cy="37.85" r="0.89"/><circle id="_Path_72" data-name="&lt;Path&gt;" class="cls-1" cx="57.46" cy="32.57" r="0.89"/><circle id="_Path_73" data-name="&lt;Path&gt;" class="cls-1" cx="57.46" cy="27.29" r="0.89"/><circle id="_Path_74" data-name="&lt;Path&gt;" class="cls-1" cx="57.46" cy="22.01" r="0.89"/><circle id="_Path_75" data-name="&lt;Path&gt;" class="cls-1" cx="51.82" cy="16.73" r="0.89"/><circle id="_Path_76" data-name="&lt;Path&gt;" class="cls-1" cx="46.16" cy="16.73" r="0.89"/><circle id="_Path_77" data-name="&lt;Path&gt;" class="cls-1" cx="40.5" cy="16.73" r="0.89"/><circle id="_Path_78" data-name="&lt;Path&gt;" class="cls-1" cx="34.85" cy="16.73" r="0.89"/><circle id="_Path_79" data-name="&lt;Path&gt;" class="cls-1" cx="29.19" cy="16.73" r="0.89"/><circle id="_Path_80" data-name="&lt;Path&gt;" class="cls-1" cx="23.53" cy="16.73" r="0.89"/><circle id="_Path_81" data-name="&lt;Path&gt;" class="cls-1" cx="17.87" cy="16.73" r="0.89"/><circle id="_Path_82" data-name="&lt;Path&gt;" class="cls-1" cx="12.21" cy="16.73" r="0.89"/><circle id="_Path_83" data-name="&lt;Path&gt;" class="cls-1" cx="6.55" cy="16.73" r="0.89"/><circle id="_Path_84" data-name="&lt;Path&gt;" class="cls-1" cx="0.89" cy="16.73" r="0.89"/><circle id="_Path_85" data-name="&lt;Path&gt;" class="cls-1" cx="51.82" cy="11.45" r="0.89"/><circle id="_Path_86" data-name="&lt;Path&gt;" class="cls-1" cx="46.16" cy="11.45" r="0.89"/><circle id="_Path_87" data-name="&lt;Path&gt;" class="cls-1" cx="40.5" cy="11.45" r="0.89"/><circle id="_Path_88" data-name="&lt;Path&gt;" class="cls-1" cx="34.85" cy="11.45" r="0.89"/><circle id="_Path_89" data-name="&lt;Path&gt;" class="cls-1" cx="29.19" cy="11.45" r="0.89"/><circle id="_Path_90" data-name="&lt;Path&gt;" class="cls-1" cx="23.53" cy="11.45" r="0.89"/><circle id="_Path_91" data-name="&lt;Path&gt;" class="cls-1" cx="17.87" cy="11.45" r="0.89"/><circle id="_Path_92" data-name="&lt;Path&gt;" class="cls-1" cx="12.21" cy="11.45" r="0.89"/><circle id="_Path_93" data-name="&lt;Path&gt;" class="cls-1" cx="6.55" cy="11.45" r="0.89"/><circle id="_Path_94" data-name="&lt;Path&gt;" class="cls-1" cx="0.89" cy="11.45" r="0.89"/><circle id="_Path_95" data-name="&lt;Path&gt;" class="cls-1" cx="51.82" cy="6.17" r="0.89"/><circle id="_Path_96" data-name="&lt;Path&gt;" class="cls-1" cx="46.16" cy="6.17" r="0.89"/><circle id="_Path_97" data-name="&lt;Path&gt;" class="cls-1" cx="40.5" cy="6.17" r="0.89"/><circle id="_Path_98" data-name="&lt;Path&gt;" class="cls-1" cx="34.85" cy="6.17" r="0.89"/><circle id="_Path_99" data-name="&lt;Path&gt;" class="cls-1" cx="29.19" cy="6.17" r="0.89"/><circle id="_Path_100" data-name="&lt;Path&gt;" class="cls-1" cx="23.53" cy="6.17" r="0.89"/><circle id="_Path_101" data-name="&lt;Path&gt;" class="cls-1" cx="17.87" cy="6.17" r="0.89"/><circle id="_Path_102" data-name="&lt;Path&gt;" class="cls-1" cx="12.21" cy="6.17" r="0.89"/><circle id="_Path_103" data-name="&lt;Path&gt;" class="cls-1" cx="6.55" cy="6.17" r="0.89"/><circle id="_Path_104" data-name="&lt;Path&gt;" class="cls-1" cx="0.89" cy="6.17" r="0.89"/><circle id="_Path_105" data-name="&lt;Path&gt;" class="cls-1" cx="51.82" cy="0.89" r="0.89"/><circle id="_Path_106" data-name="&lt;Path&gt;" class="cls-1" cx="46.16" cy="0.89" r="0.89"/><circle id="_Path_107" data-name="&lt;Path&gt;" class="cls-1" cx="40.5" cy="0.89" r="0.89"/><circle id="_Path_108" data-name="&lt;Path&gt;" class="cls-1" cx="34.85" cy="0.89" r="0.89"/><circle id="_Path_109" data-name="&lt;Path&gt;" class="cls-1" cx="29.19" cy="0.89" r="0.89"/><circle id="_Path_110" data-name="&lt;Path&gt;" class="cls-1" cx="23.53" cy="0.89" r="0.89"/><circle id="_Path_111" data-name="&lt;Path&gt;" class="cls-1" cx="17.87" cy="0.89" r="0.89"/><circle id="_Path_112" data-name="&lt;Path&gt;" class="cls-1" cx="12.21" cy="0.89" r="0.89"/><circle id="_Path_113" data-name="&lt;Path&gt;" class="cls-1" cx="6.55" cy="0.89" r="0.89"/><circle id="_Path_114" data-name="&lt;Path&gt;" class="cls-1" cx="0.89" cy="0.89" r="0.89"/><circle id="_Path_115" data-name="&lt;Path&gt;" class="cls-1" cx="57.46" cy="53.7" r="0.89"/><circle id="_Path_116" data-name="&lt;Path&gt;" class="cls-1" cx="57.46" cy="48.42" r="0.89"/><circle id="_Path_117" data-name="&lt;Path&gt;" class="cls-1" cx="57.46" cy="43.13" r="0.89"/><circle id="_Path_118" data-name="&lt;Path&gt;" class="cls-1" cx="57.46" cy="16.73" r="0.89"/><circle id="_Path_119" data-name="&lt;Path&gt;" class="cls-1" cx="57.46" cy="11.45" r="0.89"/><circle id="_Path_120" data-name="&lt;Path&gt;" class="cls-1" cx="57.46" cy="6.17" r="0.89"/><circle id="_Path_121" data-name="&lt;Path&gt;" class="cls-1" cx="57.46" cy="0.89" r="0.89"/></svg>