<svg id="Layer_1" data-name="Layer 1" xmlns="http://www.w3.org/2000/svg" viewBox="0 0 55.91 66.27"><defs><style>.cls-1,.cls-2{fill:#fff;stroke:#1f7fc2;stroke-miterlimit:10;}.cls-1{stroke-width:1.95px;}.cls-2{stroke-width:1.61px;}.cls-3{fill:#f16322;}</style></defs><title>card-reader</title><path id="_Path_" data-name="&lt;Path&gt;" class="cls-1" d="M49.46,24.53c0-6.17-9.63-9-21.5-9s-21.5,2.81-21.5,9c0,0.11,0,.21,0,0.32a1,1,0,0,0,0,.22V64.13a1,1,0,0,0,1,1H48.49a1,1,0,0,0,1-1V25.07a0.84,0.84,0,0,0,0-.17C49.45,24.78,49.46,24.66,49.46,24.53Z"/><path id="_Path_2" data-name="&lt;Path&gt;" class="cls-2" d="M38.38,22.35V1.17H17.53V22.35A56.49,56.49,0,0,1,28,21.47,56.46,56.46,0,0,1,38.38,22.35Z"/><ellipse id="_Path_3" data-name="&lt;Path&gt;" class="cls-3" cx="28.32" cy="59.45" rx="7.11" ry="1.64"/><rect id="_Rectangle_" data-name="&lt;Rectangle&gt;" class="cls-3" x="20.48" y="4.78" width="15.49" height="1.28"/></svg>