<?xml version="1.0" encoding="utf-8"?>
<!-- Generator: Adobe Illustrator 19.0.0, SVG Export Plug-In . SVG Version: 6.00 Build 0)  -->
<svg version="1.1" id="圖層_1" xmlns="http://www.w3.org/2000/svg" xmlns:xlink="http://www.w3.org/1999/xlink" x="0px" y="0px"
	 viewBox="-398 273.1 43.6 49.2" style="enable-background:new -398 273.1 43.6 49.2;" xml:space="preserve">
<style type="text/css">
	.st0{fill:#FFFFFF;stroke:#0080CF;stroke-width:1.0065;stroke-miterlimit:10;}
	.st1{fill:none;stroke:#0080CF;stroke-width:1.0065;stroke-miterlimit:10;}
	.st2{fill:#0CA64C;}
	.st3{fill:#FFD110;}
	.st4{fill:#FF780F;}
	.st5{fill:none;stroke:#FF780F;stroke-width:0.6925;stroke-linecap:round;stroke-miterlimit:10;}
	.st6{fill:#FFFFFF;stroke:#0080CF;stroke-width:0.5427;stroke-miterlimit:10;}
</style>
<g id="XMLID_118_">
	<g id="XMLID_74697_">
		<rect id="XMLID_74702_" x="-395.6" y="282.9" class="st0" width="38.8" height="25.7"/>
		<line id="XMLID_74701_" class="st1" x1="-395.5" y1="287" x2="-356.8" y2="287"/>
		<circle id="XMLID_74700_" class="st2" cx="-389.3" cy="285.1" r="0.4"/>
		<circle id="XMLID_74699_" class="st3" cx="-391.5" cy="285.1" r="0.4"/>
		<circle id="XMLID_74698_" class="st4" cx="-393.6" cy="285.1" r="0.4"/>
		<g id="XMLID_132_">
			<path id="XMLID_205_" class="st5" d="M-393.2,290.8c2.4,0,2.4,1.8,4.8,1.8s2.4-1.8,4.8-1.8s2.4,1.8,4.8,1.8
				c2.4,0,2.4-1.8,4.8-1.8s2.4,1.8,4.8,1.8c2.4,0,2.4-1.8,4.8-1.8s2.4,1.8,4.8,1.8"/>
		</g>
		<g id="XMLID_129_">
			<path id="XMLID_207_" class="st5" d="M-393.2,294.4c2.4,0,2.4,1.8,4.8,1.8s2.4-1.8,4.8-1.8s2.4,1.8,4.8,1.8
				c2.4,0,2.4-1.8,4.8-1.8s2.4,1.8,4.8,1.8c2.4,0,2.4-1.8,4.8-1.8s2.4,1.8,4.8,1.8"/>
		</g>
		<g id="XMLID_126_">
			<path id="XMLID_209_" class="st5" d="M-393.2,298.1c2.4,0,2.4,1.8,4.8,1.8s2.4-1.8,4.8-1.8s2.4,1.8,4.8,1.8
				c2.4,0,2.4-1.8,4.8-1.8s2.4,1.8,4.8,1.8c2.4,0,2.4-1.8,4.8-1.8s2.4,1.8,4.8,1.8"/>
		</g>
		<g id="XMLID_123_">
			<path id="XMLID_211_" class="st5" d="M-393.2,301.7c2.4,0,2.4,1.8,4.8,1.8s2.4-1.8,4.8-1.8s2.4,1.8,4.8,1.8
				c2.4,0,2.4-1.8,4.8-1.8s2.4,1.8,4.8,1.8c2.4,0,2.4-1.8,4.8-1.8s2.4,1.8,4.8,1.8"/>
		</g>
	</g>
	<g id="XMLID_74694_">
		<rect id="XMLID_74696_" x="-384" y="302.9" class="st6" width="16.3" height="9.8"/>
		<rect id="XMLID_74695_" x="-382.5" y="304.1" class="st4" width="3.7" height="3.5"/>
	</g>
</g>
</svg>
