<?xml version="1.0" encoding="utf-8"?>
<!-- Generator: Adobe Illustrator 19.0.0, SVG Export Plug-In . SVG Version: 6.00 Build 0)  -->
<svg version="1.1" id="圖層_1" xmlns="http://www.w3.org/2000/svg" xmlns:xlink="http://www.w3.org/1999/xlink" x="0px" y="0px"
	 viewBox="-398 273.1 43.6 49.2" style="enable-background:new -398 273.1 43.6 49.2;" xml:space="preserve">
<style type="text/css">
	.st0{fill:#FFFFFF;stroke:#0080CF;stroke-width:1.1066;stroke-miterlimit:10;}
	.st1{fill:#FB6210;}
	.st2{fill:#0080CF;}
	.st3{fill:#FFFFFF;stroke:#0080CF;stroke-width:0.6422;stroke-miterlimit:10;}
	.st4{fill:none;stroke:#0080CF;stroke-width:0.6422;stroke-miterlimit:10;}
</style>
<g id="XMLID_234_">
	<g id="XMLID_85524_">
		<rect id="XMLID_85531_" x="-397.6" y="278.9" class="st0" width="33.6" height="24.7"/>
		<path id="XMLID_85530_" class="st1" d="M-390.2,289.2h-0.4c-1,0-1.9-0.9-1.9-1.9v-0.4c0-1,0.9-1.9,1.9-1.9h0.4
			c1,0,1.9,0.9,1.9,1.9v0.4C-388.3,288.4-389.2,289.2-390.2,289.2z"/>
		<polygon id="XMLID_85529_" class="st2" points="-395,287.1 -394.1,286.1 -393.3,285 -393.3,287.1 -393.3,289.3 -394.1,288.2 		"/>
		<rect id="XMLID_85528_" x="-376.4" y="285" class="st1" width="9.3" height="11.6"/>
	</g>
	<g id="XMLID_235_">
		<circle id="XMLID_244_" class="st3" cx="-369.8" cy="301.5" r="15.2"/>
		<circle id="XMLID_243_" class="st4" cx="-369.8" cy="301.5" r="13.2"/>
		<g id="XMLID_236_">
			<path id="XMLID_242_" class="st2" d="M-371.5,309.5v-9.2c0-1.7-1.4-3.2-3.2-3.2l0,0c-1.7,0-3.2,1.4-3.2,3.2v9.2H-371.5z"/>
			<path id="XMLID_241_" class="st2" d="M-361.8,309.5v-9.2c0-1.7-1.4-3.2-3.2-3.2l0,0c-1.7,0-3.2,1.4-3.2,3.2v9.2H-361.8z"/>
			<rect id="XMLID_240_" x="-372" y="300.4" class="st2" width="4.9" height="3.2"/>
			<circle id="XMLID_239_" class="st2" cx="-364.9" cy="294.7" r="2.3"/>
			<circle id="XMLID_238_" class="st2" cx="-374.7" cy="294.7" r="2.3"/>
			<rect id="XMLID_237_" x="-376.9" y="294.7" class="st2" width="4.5" height="2.3"/>
		</g>
	</g>
</g>
</svg>
