<svg id="Layer_1" data-name="Layer 1" xmlns="http://www.w3.org/2000/svg" viewBox="0 0 28.1 28.1"><defs><style>.cls-1{fill:#207fc3;}.cls-2{fill:#fff;}</style></defs><title>3</title><circle class="cls-1" cx="14.05" cy="14.05" r="6.79"/><path class="cls-2" d="M13.77,10.64a0.28,0.28,0,1,1,.55,0v0.43a2.27,2.27,0,0,1,1.07.38,0.78,0.78,0,0,1,.45.59,0.35,0.35,0,0,1-.35.35,0.3,0.3,0,0,1-.28-0.17A1.48,1.48,0,0,0,14,11.65a0.94,0.94,0,0,0-1,.9,0.71,0.71,0,0,0,.33.62,2.62,2.62,0,0,0,.87.41l0.28,0.1c1.11,0.42,1.57.9,1.57,1.65a1.43,1.43,0,0,1-.47,1.14,2,2,0,0,1-1.22.47v0.5a0.28,0.28,0,0,1-.55,0V16.95a2.24,2.24,0,0,1-1-.29,1.26,1.26,0,0,1-.69-0.75,0.36,0.36,0,0,1,.36-0.36,0.38,0.38,0,0,1,.31.19,1.71,1.71,0,0,0,1.35.62,1,1,0,0,0,1.13-.93c0-.51-0.41-0.88-1.39-1.23l-0.24-.09c-1-.35-1.39-0.78-1.39-1.48a1.55,1.55,0,0,1,1.55-1.55V10.64Z"/></svg>