<?xml version="1.0" encoding="utf-8"?>
<!-- Generator: Adobe Illustrator 19.0.0, SVG Export Plug-In . SVG Version: 6.00 Build 0)  -->
<svg version="1.1" id="圖層_1" xmlns="http://www.w3.org/2000/svg" xmlns:xlink="http://www.w3.org/1999/xlink" x="0px" y="0px"
	 viewBox="-398 273.1 43.6 49.2" style="enable-background:new -398 273.1 43.6 49.2;" xml:space="preserve">
<style type="text/css">
	.st0{fill:#FFFFFF;stroke:#0080CF;stroke-width:0.9451;stroke-miterlimit:10;}
	.st1{fill:#FF780F;}
	.st2{fill:#0080CF;}
	.st3{fill:none;stroke:#0080CF;stroke-width:0.8169;stroke-linecap:round;stroke-miterlimit:10;}
</style>
<g id="XMLID_188_">
	<g id="XMLID_90141_">
		<rect id="XMLID_90145_" x="-383.3" y="273.9" class="st0" width="13.8" height="18.7"/>
		<path id="XMLID_90144_" class="st1" d="M-377.5,288.5v0.2c0,0.6-0.5,1.1-1.1,1.1h-0.2c-0.6,0-1.1-0.5-1.1-1.1v-0.2
			c0-0.6,0.5-1.1,1.1-1.1h0.2C-378,287.4-377.5,287.9-377.5,288.5z"/>
		<polygon id="XMLID_90143_" class="st2" points="-378.7,291.1 -379.3,290.7 -379.9,290.2 -378.7,290.2 -377.5,290.2 -378.1,290.7 
					"/>
		<rect id="XMLID_90142_" x="-379.9" y="275.6" class="st1" width="6.5" height="5.2"/>
	</g>
	<g id="XMLID_90135_">
		<path id="XMLID_90139_" class="st0" d="M-365.3,300.9c0-3.1-4.9-4.6-10.9-4.6s-10.9,1.4-10.9,4.6c0,0.1,0,0.1,0,0.2v0.1V321
			c0,0.3,0.2,0.5,0.5,0.5h20.8c0.3,0,0.5-0.2,0.5-0.5v-19.8v-0.1C-365.3,301-365.3,301-365.3,300.9z"/>
		<path id="XMLID_90138_" class="st3" d="M-381.5,299.8c1.6-0.3,3.4-0.4,5.3-0.4c1.9,0,3.7,0.1,5.3,0.4"/>
		<ellipse id="XMLID_90137_" class="st1" cx="-376" cy="318.6" rx="3.6" ry="0.8"/>
	</g>
</g>
</svg>
