<svg id="Layer_1" data-name="Layer 1" xmlns="http://www.w3.org/2000/svg" viewBox="0 0 43.6 49.2"><defs><style>.cls-1{fill:#fff;}.cls-1,.cls-2{stroke:#207fc3;stroke-width:0.83px;}.cls-1,.cls-2,.cls-6{stroke-miterlimit:10;}.cls-2,.cls-6{fill:none;}.cls-3{fill:#12a64b;}.cls-4{fill:#ffd111;}.cls-5{fill:#f47821;}.cls-6{stroke:#f47821;stroke-linecap:round;stroke-width:0.57px;}</style></defs><title>internet</title><g id="_Group_" data-name="&lt;Group&gt;"><g id="_Group_2" data-name="&lt;Group&gt;"><rect id="_Path_" data-name="&lt;Path&gt;" class="cls-1" x="5.8" y="14" width="32" height="21.2"/><line id="_Path_2" data-name="&lt;Path&gt;" class="cls-2" x1="5.9" y1="17.4" x2="37.8" y2="17.4"/><circle id="_Path_3" data-name="&lt;Path&gt;" class="cls-3" cx="11" cy="15.8" r="0.4"/><circle id="_Path_4" data-name="&lt;Path&gt;" class="cls-4" cx="9.3" cy="15.8" r="0.4"/><circle id="_Path_5" data-name="&lt;Path&gt;" class="cls-5" cx="7.5" cy="15.8" r="0.4"/><g id="_Group_3" data-name="&lt;Group&gt;"><path id="_Path_6" data-name="&lt;Path&gt;" class="cls-6" d="M7.8,20.5c2,0,2,1.5,3.9,1.5s2-1.5,3.9-1.5,2,1.5,3.9,1.5,2-1.5,3.9-1.5,2,1.5,3.9,1.5,2-1.5,3.9-1.5,2,1.5,3.9,1.5"/></g><g id="_Group_4" data-name="&lt;Group&gt;"><path id="_Path_7" data-name="&lt;Path&gt;" class="cls-6" d="M7.8,23.5c2,0,2,1.5,3.9,1.5s2-1.5,3.9-1.5,2,1.5,3.9,1.5,2-1.5,3.9-1.5,2,1.5,3.9,1.5,2-1.5,3.9-1.5,2,1.5,3.9,1.5"/></g><g id="_Group_5" data-name="&lt;Group&gt;"><path id="_Path_8" data-name="&lt;Path&gt;" class="cls-6" d="M7.8,26.5c2,0,2,1.5,3.9,1.5s2-1.5,3.9-1.5,2,1.5,3.9,1.5,2-1.5,3.9-1.5,2,1.5,3.9,1.5,2-1.5,3.9-1.5,2,1.5,3.9,1.5"/></g><g id="_Group_6" data-name="&lt;Group&gt;"><path id="_Path_9" data-name="&lt;Path&gt;" class="cls-6" d="M7.8,29.5c2,0,2,1.5,3.9,1.5s2-1.5,3.9-1.5,2,1.5,3.9,1.5,2-1.5,3.9-1.5,2,1.5,3.9,1.5,2-1.5,3.9-1.5,2,1.5,3.9,1.5"/></g></g></g></svg>