<?xml version="1.0" encoding="utf-8"?>
<!-- Generator: Adobe Illustrator 19.0.0, SVG Export Plug-In . SVG Version: 6.00 Build 0)  -->
<svg version="1.1" id="圖層_1" xmlns="http://www.w3.org/2000/svg" xmlns:xlink="http://www.w3.org/1999/xlink" x="0px" y="0px"
	 viewBox="-402 277.1 36.8 42.2" style="enable-background:new -402 277.1 36.8 42.2;" xml:space="preserve">
<style type="text/css">
	.st0{fill:#FFFFFF;stroke:#0080CF;stroke-width:0.6842;stroke-miterlimit:10;}
	.st1{fill:#FFFFFF;stroke:#0080CF;stroke-width:0.7635;stroke-miterlimit:10;}
	.st2{fill:none;stroke:#FF780F;stroke-width:0.3716;stroke-linecap:round;stroke-miterlimit:10;}
</style>
<g id="XMLID_254_">
	<path id="XMLID_104283_" class="st0" d="M-386.5,318.5l-7.7-2.3c-0.1,0-0.1-0.1-0.1-0.2l4.3-14.1c0-0.1,0.1-0.1,0.2-0.1l7.7,2.3
		c0.1,0,0.1,0.1,0.1,0.2l-4.3,14.1C-386.3,318.5-386.4,318.6-386.5,318.5z"/>
	<path id="XMLID_104282_" class="st0" d="M-393.1,310L-393.1,310c0.1-0.3,0.4-0.5,0.7-0.4l8,2.5c0.3,0.1,0.5,0.4,0.4,0.7l0,0
		c-0.1,0.3-0.4,0.5-0.7,0.4l-8-2.5C-393,310.6-393.2,310.3-393.1,310z"/>
	<path id="XMLID_104281_" class="st0" d="M-382.5,310.7l2.7-9.4l0,0l2.3-8.4c0.2-0.6-0.2-1.3-0.8-1.5c-0.6-0.2-1.3,0.2-1.5,0.8
		l-1.9,6.8l-0.6-0.2l2.5-8.9c0.2-0.6-0.2-1.3-0.8-1.5c-0.6-0.2-1.3,0.2-1.5,0.8l-2.5,8.9l-0.6-0.2l2.3-8.3c0.2-0.6-0.2-1.3-0.8-1.5
		l0,0c-0.7,0-1.3,0.4-1.5,1l-2.3,8.3l-0.6-0.2l1.9-6.9c0.2-0.6-0.2-1.3-0.8-1.5l0,0c-0.6-0.2-1.3,0.2-1.5,0.8l-2.3,8.2
		c-0.1,0.1-0.1,0.2-0.2,0.4l-2.7,9.4c-0.3,0.9,0.3,1.8,1.2,2.1l7.8,2.2C-383.7,312.1-382.7,311.6-382.5,310.7z"/>
	
		<ellipse id="XMLID_104280_" transform="matrix(0.2886 -0.9574 0.9574 0.2886 -581.7928 -147.8539)" class="st0" cx="-390.4" cy="317.6" rx="0.7" ry="4.2"/>
	<g id="XMLID_256_">
		
			<rect id="XMLID_104279_" x="-391.4" y="279.5" transform="matrix(-0.9619 -0.2735 0.2735 -0.9619 -830.7774 466.7044)" class="st1" width="17.1" height="23.6"/>
		
			<rect id="XMLID_104278_" x="-393" y="280.4" transform="matrix(-0.9619 -0.2735 0.2735 -0.9619 -834.165 468.0386)" class="st1" width="17.1" height="23.6"/>
		<g id="XMLID_104276_">
			<path id="XMLID_229_" class="st2" d="M-389.4,283.2c0.6,0.2,0.4,0.6,1,0.8c0.6,0.2,0.7-0.3,1.3-0.2c0.6,0.2,0.4,0.6,1,0.8
				s0.7-0.3,1.3-0.2c0.6,0.2,0.4,0.6,1,0.8c0.6,0.2,0.7-0.3,1.3-0.2c0.6,0.2,0.4,0.6,1,0.8c0.6,0.2,0.7-0.3,1.3-0.2
				c0.6,0.2,0.4,0.6,1,0.8c0.6,0.2,0.7-0.3,1.3-0.2c0.6,0.2,0.4,0.6,1,0.8c0.6,0.2,0.7-0.3,1.3-0.2"/>
		</g>
		<g id="XMLID_104274_">
			<path id="XMLID_222_" class="st2" d="M-390.2,285.9c0.6,0.2,0.4,0.6,1,0.8c0.6,0.2,0.7-0.3,1.3-0.2c0.6,0.2,0.4,0.6,1,0.8
				c0.6,0.2,0.7-0.3,1.3-0.2c0.6,0.2,0.4,0.6,1,0.8c0.6,0.2,0.7-0.3,1.3-0.2c0.6,0.2,0.4,0.6,1,0.8c0.6,0.2,0.7-0.3,1.3-0.2
				c0.6,0.2,0.4,0.6,1,0.8c0.6,0.2,0.7-0.3,1.3-0.2c0.6,0.2,0.4,0.6,1,0.8c0.6,0.2,0.7-0.3,1.3-0.2"/>
		</g>
		<g id="XMLID_104272_">
			<path id="XMLID_262_" class="st2" d="M-390.9,288.5c0.6,0.2,0.4,0.6,1,0.8c0.6,0.2,0.7-0.3,1.3-0.2c0.6,0.2,0.4,0.6,1,0.8
				c0.6,0.2,0.7-0.3,1.3-0.2c0.6,0.2,0.4,0.6,1,0.8c0.6,0.2,0.7-0.3,1.3-0.2c0.6,0.2,0.4,0.6,1,0.8s0.7-0.3,1.3-0.2
				c0.6,0.2,0.4,0.6,1,0.8c0.6,0.2,0.7-0.3,1.3-0.2c0.6,0.2,0.4,0.6,1,0.8c0.6,0.2,0.7-0.3,1.3-0.2"/>
		</g>
		<g id="XMLID_104270_">
			<path id="XMLID_264_" class="st2" d="M-391.6,291.1c0.6,0.2,0.4,0.6,1,0.8c0.6,0.2,0.7-0.3,1.3-0.2c0.6,0.2,0.4,0.6,1,0.8
				c0.6,0.2,0.7-0.3,1.3-0.2c0.6,0.2,0.4,0.6,1,0.8s0.7-0.3,1.3-0.2c0.6,0.2,0.4,0.6,1,0.8c0.6,0.2,0.7-0.3,1.3-0.2
				c0.6,0.2,0.4,0.6,1,0.8c0.6,0.2,0.7-0.3,1.3-0.2c0.6,0.2,0.4,0.6,1,0.8c0.6,0.2,0.7-0.3,1.3-0.2"/>
		</g>
		<g id="XMLID_104268_">
			<path id="XMLID_320_" class="st2" d="M-392.4,293.7c0.6,0.2,0.4,0.6,1,0.8c0.6,0.2,0.7-0.3,1.3-0.2c0.6,0.2,0.4,0.6,1,0.8
				s0.7-0.3,1.3-0.2c0.6,0.2,0.4,0.6,1,0.8c0.6,0.2,0.7-0.3,1.3-0.2c0.6,0.2,0.4,0.6,1,0.8c0.6,0.2,0.7-0.3,1.3-0.2
				c0.6,0.2,0.4,0.6,1,0.8c0.6,0.2,0.7-0.3,1.3-0.2c0.6,0.2,0.4,0.6,1,0.8s0.7-0.3,1.3-0.2"/>
		</g>
		<g id="XMLID_104266_">
			<path id="XMLID_322_" class="st2" d="M-393.1,296.3c0.6,0.2,0.4,0.6,1,0.8s0.7-0.3,1.3-0.2c0.6,0.2,0.4,0.6,1,0.8
				c0.6,0.2,0.7-0.3,1.3-0.2c0.6,0.2,0.4,0.6,1,0.8c0.6,0.2,0.7-0.3,1.3-0.2c0.6,0.2,0.4,0.6,1,0.8c0.6,0.2,0.7-0.3,1.3-0.2
				c0.6,0.2,0.4,0.6,1,0.8s0.7-0.3,1.3-0.2c0.6,0.2,0.4,0.6,1,0.8c0.6,0.2,0.7-0.3,1.3-0.2"/>
		</g>
	</g>
	<path id="XMLID_104265_" class="st0" d="M-381.2,312l0.2-0.7l1.1-3.1l2.1-6.2c0.3-1-0.2-2.1-1.2-2.4s-2.1,0.2-2.4,1.2l-1.6,4.9
		c-1.5-0.2-3,0.7-3.6,2.2l-0.7,2c-0.3,0.7,0.1,1.5,0.9,1.8l3.4,1.2C-382.2,313.1-381.4,312.7-381.2,312z"/>
</g>
</svg>
