<?xml version="1.0" encoding="utf-8"?>
<!-- Generator: Adobe Illustrator 19.0.0, SVG Export Plug-In . SVG Version: 6.00 Build 0)  -->
<svg version="1.1" id="圖層_1" xmlns="http://www.w3.org/2000/svg" xmlns:xlink="http://www.w3.org/1999/xlink" x="0px" y="0px"
	 viewBox="-398 273.1 43.6 49.2" style="enable-background:new -398 273.1 43.6 49.2;" xml:space="preserve">
<style type="text/css">
	.st0{fill:#FFFFFF;stroke:#0080CF;stroke-width:0.9451;stroke-miterlimit:10;}
	.st1{fill:none;stroke:#0080CF;stroke-width:0.9451;stroke-miterlimit:10;}
	.st2{fill:#0CA64C;}
	.st3{fill:#FFD110;}
	.st4{fill:#FF780F;}
	.st5{fill:none;stroke:#FF780F;stroke-width:0.6845;stroke-linecap:round;stroke-miterlimit:10;}
	.st6{fill:#FFFFFF;}
	.st7{fill:none;stroke:#0080CF;stroke-width:1.0902;stroke-linecap:round;stroke-miterlimit:10;}
	.st8{fill:#0080CF;}
	.st9{font-family:'TBChibiRGoPlusKPro-Regular-83pv-RKSJ-H';}
	.st10{font-size:7.2681px;}
</style>
<g id="XMLID_8_">
	<g id="XMLID_159_">
		<g id="XMLID_90149_">
			<rect id="XMLID_90154_" x="-397.5" y="278.7" class="st0" width="38.4" height="25.4"/>
			<line id="XMLID_90153_" class="st1" x1="-397.4" y1="282.8" x2="-359.1" y2="282.8"/>
			<circle id="XMLID_90152_" class="st2" cx="-391.3" cy="280.9" r="0.4"/>
			<circle id="XMLID_90151_" class="st3" cx="-393.4" cy="280.9" r="0.4"/>
			<circle id="XMLID_90150_" class="st4" cx="-395.5" cy="280.9" r="0.4"/>
			<g id="XMLID_170_">
				<path id="XMLID_114_" class="st5" d="M-395.1,286.5c2.4,0,2.4,1.8,4.7,1.8c2.4,0,2.4-1.8,4.7-1.8c2.4,0,2.4,1.8,4.7,1.8
					c2.4,0,2.4-1.8,4.7-1.8c2.4,0,2.4,1.8,4.7,1.8c2.4,0,2.4-1.8,4.7-1.8c2.3,0,2.4,1.8,4.7,1.8"/>
			</g>
			<g id="XMLID_167_">
				<path id="XMLID_112_" class="st5" d="M-395.1,290.1c2.4,0,2.4,1.8,4.7,1.8c2.4,0,2.4-1.8,4.7-1.8c2.4,0,2.4,1.8,4.7,1.8
					c2.4,0,2.4-1.8,4.7-1.8c2.4,0,2.4,1.8,4.7,1.8c2.4,0,2.4-1.8,4.7-1.8c2.3,0,2.4,1.8,4.7,1.8"/>
			</g>
			<g id="XMLID_164_">
				<path id="XMLID_110_" class="st5" d="M-395.1,293.7c2.4,0,2.4,1.8,4.7,1.8c2.4,0,2.4-1.8,4.7-1.8c2.4,0,2.4,1.8,4.7,1.8
					c2.4,0,2.4-1.8,4.7-1.8c2.4,0,2.4,1.8,4.7,1.8c2.4,0,2.4-1.8,4.7-1.8c2.3,0,2.4,1.8,4.7,1.8"/>
			</g>
			<g id="XMLID_161_">
				<path id="XMLID_108_" class="st5" d="M-395.1,297.3c2.4,0,2.4,1.8,4.7,1.8c2.4,0,2.4-1.8,4.7-1.8c2.4,0,2.4,1.8,4.7,1.8
					c2.4,0,2.4-1.8,4.7-1.8c2.4,0,2.4,1.8,4.7,1.8c2.4,0,2.4-1.8,4.7-1.8c2.3,0,2.4,1.8,4.7,1.8"/>
			</g>
		</g>
	</g>
	<g id="XMLID_154_">
		<circle id="XMLID_158_" class="st6" cx="-367.4" cy="304.1" r="12.5"/>
		<path id="XMLID_157_" class="st7" d="M-355,304.1c0,6.9-5.6,12.5-12.5,12.5s-12.4-5.6-12.4-12.5s5.6-12.5,12.5-12.5
			c4.2,0,7.9,2.1,10.1,5.2"/>
		<text id="XMLID_156_" transform="matrix(1 0 0 1 -377.9929 307.1976)" class="st8 st9 st10">10min</text>
		<polygon id="XMLID_155_" class="st8" points="-355.6,298.9 -357.6,298.5 -359.6,298.1 -357.6,296.5 -355.6,294.9 -355.6,296.9 		
			"/>
	</g>
</g>
</svg>
