<svg id="Layer_1" data-name="Layer 1" xmlns="http://www.w3.org/2000/svg" viewBox="0 0 55.91 66.27"><defs><style>.cls-1,.cls-2{fill:#fff;stroke:#207fc3;}.cls-1,.cls-2,.cls-4{stroke-miterlimit:10;}.cls-1{stroke-width:1.95px;}.cls-2{stroke-width:1.61px;}.cls-3{fill:#f26322;}.cls-4{fill:none;stroke:#f47821;stroke-width:2px;}</style></defs><title>no-card-reader</title><path id="_Path_" data-name="&lt;Path&gt;" class="cls-1" d="M50.6,24.17c0-6.17-9.63-9-21.5-9s-21.5,2.81-21.5,9c0,0.11,0,.21,0,0.32a1,1,0,0,0,0,.22V63.77a1,1,0,0,0,1,1H49.62a1,1,0,0,0,1-1V24.71a0.84,0.84,0,0,0,0-.17C50.59,24.42,50.6,24.3,50.6,24.17Z"/><path id="_Path_2" data-name="&lt;Path&gt;" class="cls-2" d="M39.51,22V0.81H18.67V22a56.49,56.49,0,0,1,10.42-.87A56.46,56.46,0,0,1,39.51,22Z"/><ellipse id="_Path_3" data-name="&lt;Path&gt;" class="cls-3" cx="29.45" cy="59.09" rx="7.11" ry="1.64"/><rect id="_Rectangle_" data-name="&lt;Rectangle&gt;" class="cls-3" x="21.62" y="4.42" width="15.49" height="1.28"/><line class="cls-4" x1="0.71" y1="11.06" x2="55.21" y2="65.56"/><line class="cls-4" x1="55.21" y1="11.06" x2="0.71" y2="65.56"/></svg>