<?xml version="1.0" encoding="utf-8"?>
<!-- Generator: Adobe Illustrator 19.0.0, SVG Export Plug-In . SVG Version: 6.00 Build 0)  -->
<svg version="1.1" id="圖層_1" xmlns="http://www.w3.org/2000/svg" xmlns:xlink="http://www.w3.org/1999/xlink" x="0px" y="0px"
	 viewBox="-404 281.9 32.9 32.4" style="enable-background:new -404 281.9 32.9 32.4;" xml:space="preserve">
<style type="text/css">
	.st0{fill:#FFFFFF;stroke:#0080CF;stroke-width:0.9299;stroke-miterlimit:10;}
	.st1{fill:none;stroke:#FF780F;stroke-width:0.4525;stroke-linecap:round;stroke-miterlimit:10;}
</style>
<g id="XMLID_231_">
	<rect id="XMLID_81097_" x="-397.2" y="283" class="st0" width="20.9" height="28.7"/>
	<rect id="XMLID_81096_" x="-398.8" y="284.6" class="st0" width="20.9" height="28.7"/>
	<g id="XMLID_81094_">
		<path id="XMLID_84_" class="st1" d="M-397.2,290.1c0.7,0,0.7,0.6,1.4,0.6c0.7,0,0.7-0.6,1.4-0.6c0.7,0,0.7,0.6,1.4,0.6
			s0.7-0.6,1.4-0.6c0.7,0,0.7,0.6,1.4,0.6c0.7,0,0.7-0.6,1.4-0.6c0.7,0,0.7,0.6,1.4,0.6c0.7,0,0.7-0.6,1.4-0.6s0.7,0.6,1.4,0.6
			c0.7,0,0.7-0.6,1.4-0.6c0.7,0,0.7,0.6,1.4,0.6c0.7,0,0.7-0.6,1.4-0.6"/>
	</g>
	<g id="XMLID_81092_">
		<path id="XMLID_86_" class="st1" d="M-397.2,293.5c0.7,0,0.7,0.6,1.4,0.6c0.7,0,0.7-0.6,1.4-0.6c0.7,0,0.7,0.6,1.4,0.6
			s0.7-0.6,1.4-0.6c0.7,0,0.7,0.6,1.4,0.6c0.7,0,0.7-0.6,1.4-0.6c0.7,0,0.7,0.6,1.4,0.6c0.7,0,0.7-0.6,1.4-0.6s0.7,0.6,1.4,0.6
			c0.7,0,0.7-0.6,1.4-0.6c0.7,0,0.7,0.6,1.4,0.6c0.7,0,0.7-0.6,1.4-0.6"/>
	</g>
	<g id="XMLID_81090_">
		<path id="XMLID_542_" class="st1" d="M-397.2,296.8c0.7,0,0.7,0.6,1.4,0.6c0.7,0,0.7-0.6,1.4-0.6c0.7,0,0.7,0.6,1.4,0.6
			s0.7-0.6,1.4-0.6c0.7,0,0.7,0.6,1.4,0.6c0.7,0,0.7-0.6,1.4-0.6c0.7,0,0.7,0.6,1.4,0.6c0.7,0,0.7-0.6,1.4-0.6s0.7,0.6,1.4,0.6
			c0.7,0,0.7-0.6,1.4-0.6c0.7,0,0.7,0.6,1.4,0.6c0.7,0,0.7-0.6,1.4-0.6"/>
	</g>
	<g id="XMLID_81088_">
		<path id="XMLID_544_" class="st1" d="M-397.2,300.1c0.7,0,0.7,0.6,1.4,0.6c0.7,0,0.7-0.6,1.4-0.6c0.7,0,0.7,0.6,1.4,0.6
			s0.7-0.6,1.4-0.6c0.7,0,0.7,0.6,1.4,0.6c0.7,0,0.7-0.6,1.4-0.6c0.7,0,0.7,0.6,1.4,0.6c0.7,0,0.7-0.6,1.4-0.6s0.7,0.6,1.4,0.6
			c0.7,0,0.7-0.6,1.4-0.6c0.7,0,0.7,0.6,1.4,0.6c0.7,0,0.7-0.6,1.4-0.6"/>
	</g>
	<g id="XMLID_81086_">
		<path id="XMLID_546_" class="st1" d="M-397.2,303.4c0.7,0,0.7,0.6,1.4,0.6c0.7,0,0.7-0.6,1.4-0.6c0.7,0,0.7,0.6,1.4,0.6
			s0.7-0.6,1.4-0.6c0.7,0,0.7,0.6,1.4,0.6c0.7,0,0.7-0.6,1.4-0.6c0.7,0,0.7,0.6,1.4,0.6c0.7,0,0.7-0.6,1.4-0.6s0.7,0.6,1.4,0.6
			c0.7,0,0.7-0.6,1.4-0.6c0.7,0,0.7,0.6,1.4,0.6c0.7,0,0.7-0.6,1.4-0.6"/>
	</g>
	<g id="XMLID_81084_">
		<path id="XMLID_548_" class="st1" d="M-397.2,306.7c0.7,0,0.7,0.6,1.4,0.6c0.7,0,0.7-0.6,1.4-0.6c0.7,0,0.7,0.6,1.4,0.6
			s0.7-0.6,1.4-0.6c0.7,0,0.7,0.6,1.4,0.6c0.7,0,0.7-0.6,1.4-0.6c0.7,0,0.7,0.6,1.4,0.6c0.7,0,0.7-0.6,1.4-0.6s0.7,0.6,1.4,0.6
			c0.7,0,0.7-0.6,1.4-0.6c0.7,0,0.7,0.6,1.4,0.6c0.7,0,0.7-0.6,1.4-0.6"/>
	</g>
</g>
</svg>
