<?xml version="1.0" encoding="utf-8"?>
<!-- Generator: Adobe Illustrator 19.0.0, SVG Export Plug-In . SVG Version: 6.00 Build 0)  -->
<svg version="1.1" id="圖層_1" xmlns="http://www.w3.org/2000/svg" xmlns:xlink="http://www.w3.org/1999/xlink" x="0px" y="0px"
	 viewBox="-405 271.5 30.3 52.8" style="enable-background:new -405 271.5 30.3 52.8;" xml:space="preserve">
<style type="text/css">
	.st0{fill:#FFFFFF;stroke:#0080CF;stroke-width:0.8594;stroke-miterlimit:10;}
	.st1{fill:#FFFFFF;stroke:#0080CF;stroke-width:0.7255;stroke-miterlimit:10;}
	.st2{fill:#FF780F;}
	.st3{fill:#0080CF;}
</style>
<g id="XMLID_253_">
	<path id="XMLID_84600_" class="st0" d="M-386.8,319.4l-11.7-0.2c-0.1,0-0.2-0.1-0.2-0.2l0.3-21.5c0-0.1,0.1-0.2,0.2-0.2l11.8,0.2
		c0.1,0,0.2,0.1,0.2,0.2l-0.3,21.4C-386.5,319.3-386.6,319.4-386.8,319.4z"/>
	<path id="XMLID_84599_" class="st0" d="M-399.4,310.2V310c0-0.4,0.3-0.7,0.7-0.7l12.4,0.2c0.4,0,0.7,0.3,0.7,0.7v0.2
		c0,0.4-0.3,0.7-0.7,0.7l-12.4-0.2C-399.1,310.9-399.4,310.6-399.4,310.2z"/>
	<path id="XMLID_84598_" class="st0" d="M-384.3,306.8v-14.2c0,0,0,0,0-0.1l-0.1-12.6c0-0.9-0.8-1.7-1.7-1.7s-1.7,0.8-1.7,1.7
		l0.1,10.3h-1l-0.2-13.4c0-0.9-0.8-1.7-1.7-1.7s-1.7,0.8-1.7,1.7l0.1,13.3h-1l-0.1-12.4c0-0.9-0.8-1.7-1.7-1.7l0,0
		c-0.9,0-1.7,0.8-1.7,1.7l0.1,12.4h-0.9l-0.1-10.3c0-0.9-0.8-1.7-1.7-1.7l0,0c-0.9,0-1.7,0.8-1.7,1.7v12.3c0,0.2-0.1,0.4-0.1,0.6
		v14.2c0,1.4,1.1,2.5,2.5,2.5h11.8C-385.4,309.3-384.3,308.2-384.3,306.8z"/>
	
		<ellipse id="XMLID_84597_" transform="matrix(1.572798e-02 -0.9999 0.9999 1.572798e-02 -706.0637 -78.0963)" class="st0" cx="-392.7" cy="319.6" rx="1" ry="6.1"/>
	<g id="XMLID_84588_">
		
			<rect id="XMLID_84596_" x="-394.6" y="284" transform="matrix(-5.952735e-03 1 -1 -5.952735e-03 -96.9447 682.7564)" class="st1" width="13.5" height="18.4"/>
		<path id="XMLID_84591_" class="st2" d="M-393,292h-0.3c-0.5,0-1-0.5-1-1v-0.3c0-0.5,0.5-1,1-1h0.3c0.5,0,1,0.5,1,1v0.3
			C-392,291.6-392.4,292.1-393,292z"/>
		<polygon id="XMLID_84590_" class="st3" points="-395.6,290.9 -395.1,290.3 -394.7,289.7 -394.7,290.9 -394.7,292.1 -395.2,291.5 
					"/>
		
			<rect id="XMLID_84589_" x="-385.4" y="289.8" transform="matrix(-1 -5.952735e-03 5.952735e-03 -1 -767.4368 583.6769)" class="st2" width="5.1" height="6.4"/>
	</g>
	<path id="XMLID_84576_" class="st0" d="M-381.9,308.1l0.1-1l0.3-4.8l0.5-9.5c0.1-1.5-1.1-2.8-2.6-2.9s-2.8,1.1-2.9,2.6l-0.5,7.6
		c-2.2,0.3-4,2.1-4.1,4.4l-0.2,3.1c-0.1,1.1,0.8,2.1,1.9,2.1l5.3,0.3C-383,310.1-382,309.3-381.9,308.1z"/>
</g>
</svg>
