<?xml version="1.0" encoding="utf-8"?>
<!-- Generator: Adobe Illustrator 19.0.0, SVG Export Plug-In . SVG Version: 6.00 Build 0)  -->
<svg version="1.1" id="圖層_1" xmlns="http://www.w3.org/2000/svg" xmlns:xlink="http://www.w3.org/1999/xlink" x="0px" y="0px"
	 viewBox="-404 281.9 32.9 32.4" style="enable-background:new -404 281.9 32.9 32.4;" xml:space="preserve">
<style type="text/css">
	.st0{fill:#FFFFFF;stroke:#0080CF;stroke-width:1.3536;stroke-miterlimit:10;}
</style>
<g id="XMLID_79_">
	<path id="XMLID_80932_" class="st0" d="M-382.5,294.5c0,0.5-7,10.1-7.4,10.2c-0.4,0.1-3.5-2-3.9-2c-0.4,0-5.9,5.4-5.8,5.8
		c0,0.4,4.2,4.1,4.9,4.1c0.7,0,5.4-2.1,8.4-4.9c1-0.9,1.7-1.9,3.2-3.9c3.9-5,5.5-8.3,6.4-10.5c1.4-3.3,1.3-4.4,1.1-5.1
		c-0.6-2.2-2.9-4.1-4.8-3.9c-0.5,0.1-4.6,5.9-4.5,6.5S-382.5,294-382.5,294.5z"/>
</g>
</svg>
