<?xml version="1.0" encoding="utf-8"?>
<!-- Generator: Adobe Illustrator 19.0.0, SVG Export Plug-In . SVG Version: 6.00 Build 0)  -->
<svg version="1.1" id="圖層_1" xmlns="http://www.w3.org/2000/svg" xmlns:xlink="http://www.w3.org/1999/xlink" x="0px" y="0px"
	 viewBox="-405 271.5 30.3 52.8" style="enable-background:new -405 271.5 30.3 52.8;" xml:space="preserve">
<style type="text/css">
	.st0{fill:#FFFFFF;stroke:#0080CF;stroke-width:0.9451;stroke-miterlimit:10;}
	.st1{fill:#FF780F;}
	.st2{fill:#0080CF;}
	.st3{fill:none;stroke:#0080CF;stroke-width:0.8169;stroke-linecap:round;stroke-miterlimit:10;}
	.st4{fill:#FFFFFF;stroke:#0080CF;stroke-width:0.4334;stroke-miterlimit:10;}
	.st5{fill:none;stroke:#0080CF;stroke-width:0.4334;stroke-miterlimit:10;}
</style>
<g id="XMLID_100_">
	<g id="XMLID_251_">
		<g id="XMLID_252_">
			<g id="XMLID_84579_">
				<rect id="XMLID_84587_" x="-393.2" y="272" class="st0" width="13.8" height="18.7"/>
				<path id="XMLID_84586_" class="st1" d="M-387.4,286.6v0.2c0,0.6-0.5,1.1-1.1,1.1h-0.2c-0.6,0-1.1-0.5-1.1-1.1v-0.2
					c0-0.6,0.5-1.1,1.1-1.1h0.2C-387.9,285.5-387.4,286-387.4,286.6z"/>
				<polygon id="XMLID_84581_" class="st2" points="-388.6,289.2 -389.2,288.8 -389.8,288.3 -388.6,288.3 -387.4,288.3 -388,288.8 
									"/>
				<rect id="XMLID_84580_" x="-389.8" y="273.7" class="st1" width="6.5" height="5.2"/>
			</g>
			<g id="XMLID_84571_">
				<path id="XMLID_84578_" class="st0" d="M-375.2,299c0-3.1-4.9-4.6-10.9-4.6s-10.9,1.5-10.9,4.6c0,0.1,0,0.1,0,0.2v0.1v19.8
					c0,0.3,0.2,0.5,0.5,0.5h20.8c0.3,0,0.5-0.2,0.5-0.5v-19.8v-0.1C-375.2,299.1-375.2,299.1-375.2,299z"/>
				<path id="XMLID_84577_" class="st3" d="M-391.4,297.9c1.6-0.3,3.4-0.4,5.3-0.4s3.7,0.1,5.3,0.4"/>
			</g>
		</g>
	</g>
	<g id="XMLID_101_">
		<circle id="XMLID_250_" class="st4" cx="-394.5" cy="313.8" r="10.3"/>
		<circle id="XMLID_245_" class="st5" cx="-394.5" cy="313.8" r="8.9"/>
		<g id="XMLID_102_">
			<path id="XMLID_233_" class="st2" d="M-395.7,319.2V313c0-1.2-1-2.1-2.1-2.1l0,0c-1.2,0-2.1,1-2.1,2.1v6.2H-395.7z"/>
			<path id="XMLID_232_" class="st2" d="M-389.1,319.2V313c0-1.2-1-2.1-2.1-2.1l0,0c-1.2,0-2.1,1-2.1,2.1v6.2H-389.1z"/>
			<rect id="XMLID_106_" x="-396" y="313.1" class="st2" width="3.3" height="2.2"/>
			<circle id="XMLID_105_" class="st2" cx="-391.2" cy="309.2" r="1.5"/>
			<circle id="XMLID_104_" class="st2" cx="-397.8" cy="309.2" r="1.5"/>
			<rect id="XMLID_103_" x="-399.3" y="309.2" class="st2" width="3" height="1.5"/>
		</g>
	</g>
</g>
</svg>
