<svg id="Layer_1" data-name="Layer 1" xmlns="http://www.w3.org/2000/svg" viewBox="0 0 28.1 28.1"><defs><style>.cls-1,.cls-3{fill:#fff;}.cls-1{stroke:#207fc3;stroke-miterlimit:10;stroke-width:0.4px;}.cls-2{fill:#207fc3;}</style></defs><title>Untitled-7</title><polygon id="_Path_" data-name="&lt;Path&gt;" class="cls-1" points="14.05 0.33 16.77 3.91 20.91 2.17 21.47 6.63 25.93 7.19 24.19 11.33 27.77 14.05 24.19 16.77 25.93 20.91 21.47 21.47 20.91 25.93 16.77 24.19 14.05 27.77 11.33 24.19 7.19 25.93 6.63 21.47 2.17 20.91 3.91 16.77 0.33 14.05 3.91 11.33 2.17 7.19 6.63 6.63 7.19 2.17 11.33 3.91 14.05 0.33"/><polygon id="_Path_2" data-name="&lt;Path&gt;" class="cls-2" points="14.05 1.82 16.47 5.01 20.16 3.46 20.67 7.43 24.64 7.94 23.09 11.63 26.28 14.05 23.09 16.47 24.64 20.16 20.67 20.67 20.16 24.64 16.47 23.09 14.05 26.28 11.63 23.09 7.94 24.64 7.43 20.67 3.46 20.16 5.01 16.47 1.82 14.05 5.01 11.63 3.46 7.94 7.43 7.43 7.94 3.46 11.63 5.01 14.05 1.82"/><g id="_Group_" data-name="&lt;Group&gt;"><path class="cls-3" d="M15.07,20.53A1.08,1.08,0,1,1,14,19.45,1.11,1.11,0,0,1,15.07,20.53Zm-1.93-11A0.75,0.75,0,0,1,14,8.69a0.75,0.75,0,0,1,.85.85l-0.4,8.17a0.46,0.46,0,0,1-.92,0Z"/></g></svg>