<svg xmlns="http://www.w3.org/2000/svg" viewBox="0 0 198.2 162.8">
  <defs>
    <style>
      .a, .b, .c, .d {
        fill: #fff;
      }

      .a, .b, .c, .f {
        stroke: #207fc3;
        stroke-miterlimit: 10;
      }

      .a {
        stroke-width: 1.5px;
      }

      .b {
        stroke-width: 2.54px;
      }

      .c {
        stroke-width: 2.58px;
      }

      .e, .g {
        fill: #207fc3;
      }

      .f {
        fill: none;
        stroke-width: 1.61px;
      }

      .g {
        font-size: 13px;
        font-family: Calibri;
        letter-spacing: 0.1em;
      }
    </style>
  </defs>
  <title>welcome</title>
  <path class="a" d="M134.9,124.7l18,2.1c.1,0,.2.1.2.3l-3.8,32.8c0,.1-.1.2-.3.2L131,158c-.1,0-.2-.1-.2-.3l3.8-32.8C134.6,124.7,134.7,124.6,134.9,124.7Z"/>
  <path class="a" d="M152.1,146l-.1.9a.78.78,0,0,1-.9.7l-19.3-2.4a.78.78,0,0,1-.7-.9l.1-.9a.78.78,0,0,1,.9-.7l19.3,2.4A.8.8,0,0,1,152.1,146Z"/>
  <path class="a" d="M154.5,141.3l2.1-21.6v-.1l1.8-19.3a2.53,2.53,0,0,0-2.5-2.7,2.61,2.61,0,0,0-2.7,2.2l-1.5,15.7-1.5-.1,1.9-20.3a2.63,2.63,0,0,0-5.2-.8v.3L145,114.9l-1.5-.1,1.8-18.9a2.74,2.74,0,0,0-2.4-2.9h0a2.74,2.74,0,0,0-2.9,2.4l-1.8,18.9-1.4-.1,1.5-15.9a2.74,2.74,0,0,0-2.4-2.9h0a2.74,2.74,0,0,0-2.9,2.4l-1.8,18.7a3.09,3.09,0,0,0-.2.8l-2.1,21.6a3.73,3.73,0,0,0,3.4,4.1l17.9,1.8a4,4,0,0,0,4.3-3.5Z"/>
  <ellipse class="a" cx="139.9" cy="159.49" rx="1.6" ry="9.2" transform="translate(-34.66 280.07) rotate(-83.38)"/>
  <path class="a" d="M76.7,157.9l-18,2.1c-.1,0-.2-.1-.3-.2L54.6,127c0-.1.1-.2.2-.3l18-2.1c.1,0,.2.1.3.2l3.8,32.8C76.9,157.7,76.8,157.8,76.7,157.9Z"/>
  <path class="a" d="M76.6,143.5l.1.9a.75.75,0,0,1-.7.9l-19.3,2.4a.75.75,0,0,1-.9-.7l-.1-.9a.75.75,0,0,1,.7-.9l19.3-2.4A.78.78,0,0,1,76.6,143.5Z"/>
  <path class="a" d="M53.2,141.3l-2.1-21.6v-.1l-1.8-19.3a2.53,2.53,0,0,1,2.5-2.7,2.61,2.61,0,0,1,2.7,2.2L56,115.5l1.5-.1L55.5,95a2.63,2.63,0,1,1,5.2-.8v.3l1.9,20.3,1.5-.1-1.8-19a2.74,2.74,0,0,1,2.4-2.9h0a2.74,2.74,0,0,1,2.9,2.4l1.8,18.9,1.4-.1L69.3,98.1a2.74,2.74,0,0,1,2.4-2.9h0a2.74,2.74,0,0,1,2.9,2.4l1.8,18.7a3.09,3.09,0,0,1,.2.8l2.1,21.6a3.73,3.73,0,0,1-3.4,4.1l-17.9,1.8A3.76,3.76,0,0,1,53.2,141.3Z"/>
  <ellipse class="a" cx="67.8" cy="159.49" rx="9.2" ry="1.6" transform="translate(-17.94 8.88) rotate(-6.62)"/>
  <rect class="b" x="1.7" y="6.1" width="97.4" height="122.5"/>
  <rect class="b" x="86.59" y="18.68" width="122.5" height="97.7" transform="translate(80.16 215.3) rotate(-89.94)"/>
  <rect class="c" x="-5.92" y="17.45" width="120.5" height="89.5" transform="translate(-7.92 116.46) rotate(-89.94)"/>
  <rect class="c" x="83.46" y="17.51" width="120.5" height="89.5" transform="translate(81.3 205.9) rotate(-89.94)"/>
  <rect class="d" x="91.4" y="40.2" width="15.1" height="59.6"/>
  <path class="e" d="M26.3,48.4a1,1,0,0,1,.9-.7,1,1,0,0,1,.7.7v2.1H31c.4,0,.6.4.6.8a.65.65,0,0,1-.6.6H27.8v2.3h3.6a.76.76,0,0,1,.6.8c0,.3-.3.5-.6.6H30.2c-.3,1-.7,2-1.1,3h2.2a.76.76,0,0,1,.6.8c0,.3-.3.5-.6.6H27.7v2.3h3.4a.76.76,0,0,1,.6.8c0,.3-.3.5-.6.6H27.7v3.5a1,1,0,0,1-.9.7,1,1,0,0,1-.7-.7V63.7H22.9a.76.76,0,0,1-.6-.8c0-.3.3-.5.6-.6h3.2V60H22.6a.76.76,0,0,1-.6-.8c0-.3.3-.5.6-.6h1.9c-.2-1-.5-2-.8-3H22.2a.76.76,0,0,1-.6-.8c0-.3.3-.5.6-.6h3.9V51.9H23a.76.76,0,0,1-.6-.8c0-.3.3-.5.6-.6h3.1V48.4Zm1.4,10.1a17.6,17.6,0,0,0,1-3H25.3c.3,1,.6,2,.8,3Zm6.5,8.6a.79.79,0,0,1-.8.8.74.74,0,0,1-.8-.8V50.3a1.33,1.33,0,0,1,1-1.5h5.5a1.24,1.24,0,0,1,1.4,1.1v3.8q0,1.5-1.8,1.5c-2.5,0-2.8-.1-2.8-.9,0-.3.2-.7.5-.7h.3c.4.1.9.1,1.3.2.7,0,.8-.2.8-.7V50.7c0-.2-.1-.4-.3-.4H34.4c-.2,0-.4.1-.4.3v5.9h5.4c.9,0,1.4.3,1.4,1.1a17.4,17.4,0,0,1-2,5.8,15.46,15.46,0,0,0,2.7,2.4.84.84,0,0,1,.4,1.1c-.1.3-.4.4-.7.5-.5,0-1.8-1-3.2-2.6-1.1,1.7-2.3,2.9-2.9,2.9a.77.77,0,0,1-.7-.8,1,1,0,0,1,.4-.7,11.78,11.78,0,0,0,2.3-2.7A15.9,15.9,0,0,1,34.7,58h-.5v9.1Zm1.9-9A14,14,0,0,0,38,62.2a18.16,18.16,0,0,0,1.4-3.9c0-.2-.1-.2-.3-.2Z"/>
  <path class="e" d="M50.7,53.9a.68.68,0,0,1,.6.4,19.4,19.4,0,0,0,2.2-4,.75.75,0,0,1,.7-.7.68.68,0,0,1,.7.7,12.12,12.12,0,0,1-1.8,3.8,1,1,0,0,1,.9-.2h6a1.88,1.88,0,0,1,.8.2,21.38,21.38,0,0,1-2.3-3.8c-.2-.4-.2-.4-.7-.4H55.6a.6.6,0,0,1-.6-.7.67.67,0,0,1,.6-.7h2.6c.9,0,1.2.2,1.7,1.5a17.52,17.52,0,0,0,3.5,4.6,1.23,1.23,0,0,1,.4.8.79.79,0,0,1-.8.8h0c-.4,0-.9-.4-1.6-1.4a1.7,1.7,0,0,1,.1.7v3.4a1.34,1.34,0,0,1-1.1,1.5H59.3v5c0,.5.2.6,1.1.6,1.1,0,1.5-.1,1.6-.4a14.92,14.92,0,0,0,.2-2.1.62.62,0,0,1,.5-.8h.2a.79.79,0,0,1,.8.8v.2a6.15,6.15,0,0,1-.5,3c-.3.5-1.1.7-2.7.7-2.3,0-2.7-.2-2.7-1.7V60.3H56.1c-.1,2.8-.8,4.6-2.5,5.9A4.61,4.61,0,0,1,51,67.7a.86.86,0,0,1-.8-.8h0a.71.71,0,0,1,.3-.6,4.88,4.88,0,0,1,.7-.3,6,6,0,0,0,3.5-5.7h-.5a1.34,1.34,0,0,1-1.5-1.1V55c-.9,1.4-1.3,1.8-1.7,1.8a.79.79,0,0,1-.8-.8,1.42,1.42,0,0,1,.2-.6l.1-.1v-.1H48.8V57a27.25,27.25,0,0,1,2.5,2.3.91.91,0,0,1,.3.7.77.77,0,0,1-.7.8.75.75,0,0,1-.7-.5,11.51,11.51,0,0,0-1.4-1.7v8.5a.78.78,0,0,1-.9.6c-.3-.1-.6-.3-.6-.6V58.4A19.15,19.15,0,0,1,45.2,63a.87.87,0,0,1-.8.6.79.79,0,0,1-.8-.8,1.39,1.39,0,0,1,.5-1,25.6,25.6,0,0,0,3-6.5H44.6a.68.68,0,0,1-.7-.7h0c0-.4.2-.7.6-.7h2.9v-3a20,20,0,0,1-2.4.4.78.78,0,0,1-.6-.9c0-.2.1-.3.3-.4a.6.6,0,0,1,.4-.1,31,31,0,0,0,5.1-1.1c.1,0,.2-.1.4-.1a.68.68,0,0,1,.7.7v.1c0,.5-.3.7-2.3,1.2V54h1.7Zm3.4,4.7c0,.2.1.4.3.4h5.2a.55.55,0,0,0,.5-.3V55.8c0-.2-.1-.4-.3-.4H54.5c-.2,0-.4.1-.4.3v2.9Z"/>
  <path class="e" d="M67.2,51.5a.77.77,0,0,1-.7-.8h0c0-.4.2-.8.6-.8H84.6a1,1,0,0,1,.7.9,1,1,0,0,1-.7.7H77.5a6.38,6.38,0,0,1-.8,1.4v14a.82.82,0,0,1-.9.8h0a.82.82,0,0,1-.9-.8h0V55.6a27.41,27.41,0,0,1-7.3,6.7,1.42,1.42,0,0,1-.6.2,1.08,1.08,0,0,1-1-1c0-.4,0-.4,1.2-1.2a22.92,22.92,0,0,0,8.3-8.9l-8.3.1Zm14.3,5a41,41,0,0,1,3.7,3.3.91.91,0,0,1,.3.7,1.09,1.09,0,0,1-.9,1.1h-.1c-.4,0-.4,0-1-.7A35.72,35.72,0,0,0,78,56.1a.68.68,0,0,1-.4-.6,1.06,1.06,0,0,1,.9-1,16.75,16.75,0,0,1,3,2Z"/>
  <path class="e" d="M97.2,48.8A.86.86,0,0,1,98,48h0a1,1,0,0,1,.9.7h0v3.5h7.9a.68.68,0,0,1,.7.7h0a.67.67,0,0,1-.6.7H99.3a16,16,0,0,0,2.1,4.6,21.41,21.41,0,0,0,2.8-3.2.84.84,0,0,1,.7-.4,1,1,0,0,1,1,.9.91.91,0,0,1-.4.8,23.45,23.45,0,0,1-3.2,3.1,16.07,16.07,0,0,0,4.7,3.9,1.07,1.07,0,0,1,.7.9.9.9,0,0,1-.9.9h0a1.74,1.74,0,0,1-1.1-.6,15.51,15.51,0,0,1-6.6-7.9v8.8c0,1.2-.6,1.7-2.2,1.7a9,9,0,0,1-2.3-.2.72.72,0,0,1-.5-.9.58.58,0,0,1,.6-.6h.2c.3,0,1.2.1,1.7.1.7,0,.8-.1.8-.8V53.8h-8a.68.68,0,0,1-.7-.7h0c0-.4.2-.7.6-.7h8.1V48.8Zm-.6,11.9a1.1,1.1,0,0,1-.6,1,32.51,32.51,0,0,1-5.5,3.6,3,3,0,0,1-1,.4,1.06,1.06,0,0,1-.9-1,.71.71,0,0,1,.3-.6c.2-.1.4-.3.6-.3a41.46,41.46,0,0,0,5.7-3.5.73.73,0,0,1,.6-.2C96.2,59.9,96.6,60.2,96.6,60.7Zm-3.5-4.4c.4.4.6.7,1.3,1.4a1.42,1.42,0,0,1,.2.6.9.9,0,0,1-1.7.4,18,18,0,0,0-1.9-2,1,1,0,0,1-.4-.7,1.06,1.06,0,0,1,.8-.9A2.45,2.45,0,0,1,93.1,56.3ZM104,49.7a2.38,2.38,0,0,1,.9,1.3.86.86,0,0,1-.8.8,1,1,0,0,1-.7-.4A17.84,17.84,0,0,0,102,50a1,1,0,0,1-.4-.7.86.86,0,0,1,.8-.8A2.76,2.76,0,0,1,104,49.7Z"/>
  <path class="e" d="M120.8,50.1c0,6.6,2.7,11.4,8.2,14.6a1,1,0,0,1,.6.9,1.09,1.09,0,0,1-.9,1.1h-.1a6.7,6.7,0,0,1-2.7-1.6,21,21,0,0,1-4.6-5.7,16.27,16.27,0,0,1-1.3-3.7,14.81,14.81,0,0,1-2.5,6.4,16.23,16.23,0,0,1-5.3,4.8c-.2.1-.4.1-.6.2a.9.9,0,0,1-.9-.9h0a.91.91,0,0,1,.3-.7l.6-.3c5-3,7.1-7.1,7.3-14v-2a.9.9,0,0,1,1.8,0l.1.9Z"/>
  <path class="e" d="M135.4,48.4a.8.8,0,1,1,1.6,0V52h2a.68.68,0,0,1,.7.7h0a.67.67,0,0,1-.6.7h-2v4.4c.4-.1,1.5-.5,1.9-.6.1-.1.2-.1.4-.1a.75.75,0,0,1,.7.7h0c0,.6-.3.7-2.9,1.5v6.4a1.32,1.32,0,0,1-1.3,1.5h-.4a13.55,13.55,0,0,1-2-.2.81.81,0,0,1-.7-.9c-.1-.3.1-.6.5-.7h.4a6.6,6.6,0,0,0,1.4.1.57.57,0,0,0,.7-.4V60a13.1,13.1,0,0,1-2.7.6.88.88,0,0,1-.8-.9h0a.68.68,0,0,1,.7-.7h.1a24.55,24.55,0,0,0,2.6-.6V53.5h-2.6a.68.68,0,0,1-.7-.7h0c0-.4.2-.7.6-.7h2.7l-.3-3.7Zm6.5,5.8c0,.8.4,1,3.2,1a14.89,14.89,0,0,0,4.2-.3c.4-.2.5-.6.5-1.5a.77.77,0,0,1,.7-.8h.2a.77.77,0,0,1,.8.7v.2q0,2.1-.9,2.7c-.6.4-1.9.5-5.4.5a13.52,13.52,0,0,1-4-.3,1.42,1.42,0,0,1-.9-1.6V48.7a.68.68,0,0,1,.7-.7h.1a.77.77,0,0,1,.8.7h0v2.8a47.38,47.38,0,0,0,7.2-1.8.6.6,0,0,1,.4-.1.86.86,0,0,1,.8.8h0c0,.5-.2.6-.8.8a66.87,66.87,0,0,1-7.5,1.6v1.4Zm6.8,4a1.38,1.38,0,0,1,1.6,1.2v6.3a1.38,1.38,0,0,1-1.2,1.6h-6.9a1.38,1.38,0,0,1-1.6-1.2V59.8a1.38,1.38,0,0,1,1.2-1.6h6.9Zm0,1.8c0-.2-.1-.4-.3-.4h-5.8c-.2,0-.4.1-.4.3V62h6.5V60Zm-6.6,5.5c0,.2.1.4.3.4h5.8c.2,0,.4-.1.4-.3V63.4h-6.5v2.1Z"/>
  <path class="e" d="M163,48.4a.86.86,0,0,1,.8-.8h.1a1,1,0,0,1,.9.7h0v2.2H173a.71.71,0,0,1,0,1.4h-8.2v2.2h5.6a1.38,1.38,0,0,1,1.6,1.2V65.7c0,1.1-.5,1.5-1.8,1.5-2.3,0-2.9-.2-2.9-.9a.64.64,0,0,1,.6-.8h.4c.3,0,1.3.1,1.6.1.5,0,.6-.2.6-.8v-9c0-.2-.1-.4-.3-.4h-12c-.2,0-.4.1-.4.3V66.8a.77.77,0,0,1-.8.7h0c-.4,0-.8-.2-.8-.6v-11a1.38,1.38,0,0,1,1.2-1.6h5.9V52h-8.1a.56.56,0,0,1-.6-.7h0c0-.4.2-.7.6-.7h8.2V48.4Zm-3.8,11.4a.59.59,0,0,1-.5-.7.54.54,0,0,1,.5-.5h2a10.09,10.09,0,0,0-.7-1.5.75.75,0,0,1-.1-.5.88.88,0,0,1,.9-.7c.5,0,.8.5,1.6,2.7h2.2a8.49,8.49,0,0,0,.9-2.2.63.63,0,0,1,.6-.5,1,1,0,0,1,.9.8,6.63,6.63,0,0,1-.9,1.9h2.1a.59.59,0,0,1,.5.7.54.54,0,0,1-.5.5h-4v1.9h4.4a.62.62,0,0,1,.5.8.54.54,0,0,1-.5.5h-4.4v3.5a1,1,0,0,1-.9.7,1,1,0,0,1-.7-.7V63h-4.2a.62.62,0,0,1-.5-.8.54.54,0,0,1,.5-.5h4.2V59.8Z"/>
  <path class="a" d="M49.8,143.7l-.2-1.5-1.2-7.3-2.3-14.3a4.21,4.21,0,0,1,8.3-1.3l1.8,11.4a7.18,7.18,0,0,1,6.9,6.1l.8,4.7a3.15,3.15,0,0,1-2.6,3.6h0l-8,1.3A3.3,3.3,0,0,1,49.8,143.7Z"/>
  <path class="a" d="M157.9,143.7l.2-1.5,1.1-7.3,2.3-14.3a4.18,4.18,0,1,0-8.2-1.6.37.37,0,0,1-.1.3l-1.8,11.4a7.18,7.18,0,0,0-6.9,6.1l-.8,4.7a3.15,3.15,0,0,0,2.6,3.6l8,1.3A3.34,3.34,0,0,0,157.9,143.7Z"/>
  <path class="f" d="M31.8,74.4c3.7,0,3.7,3,7.3,3s3.7-3,7.3-3,3.7,3,7.3,3,3.7-3,7.3-3,3.7,3,7.3,3,3.7-3,7.3-3,3.7,3,7.3,3,3.7-3,7.3-3,3.7,3,7.3,3,3.7-3,7.3-3,3.7,3,7.3,3,3.7-3,7.3-3,3.7,3,7.3,3,3.6-3,7.3-3,3.6,3,7.3,3,3.6-3,7.3-3,3.6,3,7.3,3,3.6-3,7.3-3,3.6,3,7.3,3"/>
  <path class="e" d="M71.1,85c0,.1,0,.2-.1.2a3.32,3.32,0,0,0-1,1.4,7.64,7.64,0,0,0-.8,3.3A6.93,6.93,0,0,0,71,94.6a.37.37,0,0,1,.1.3.27.27,0,0,1-.3.3c-.2,0-.6-.3-1-.9a8.13,8.13,0,0,1-1.3-4.4A8.22,8.22,0,0,1,70,85.2c.3-.4.6-.7.8-.7C70.9,84.7,71.1,84.8,71.1,85Z"/>
  <path class="e" d="M98.9,86a6.24,6.24,0,0,1-1,1.6c-.3.4-.4.4-.6.4a.43.43,0,0,1-.4-.4c0-.1,0-.2.2-.4a7.49,7.49,0,0,0,1.5-2.8c.1-.2.2-.3.4-.3a.46.46,0,0,1,.5.4,1.73,1.73,0,0,1-.2.7h6.2c.2,0,.3.2.3.4s-.1.4-.3.4h-3.1v1.5h2.9c.2,0,.3.2.3.4s-.1.4-.3.4h-2.9v2h3.3c.2,0,.3.2.3.4a.45.45,0,0,1-.3.4h-3.3v2a.46.46,0,0,1-.5.4c-.3,0-.4-.1-.4-.4v-2H97.2c-.2,0-.3-.2-.3-.4s.1-.4.3-.4h1v-2a.74.74,0,0,1,.8-.8h2.4V86Zm2.5,2.4H99.3c-.2,0-.2.1-.2.2v1.7h2.4V88.4Z"/>
  <path class="e" d="M108.3,88.1a12.87,12.87,0,0,1-.5,4.5c-.2.7-.4.9-.6.9s-.5-.2-.5-.4,0-.1.1-.4a12.79,12.79,0,0,0,.6-4.5V86a.74.74,0,0,1,.8-.8h3.1v-.6a.46.46,0,0,1,.5-.4.37.37,0,0,1,.4.4v.6h3.5c.2,0,.3.2.3.4s-.1.4-.3.4h-7.1c-.2,0-.3.1-.3.2v.7H110v-.4a.4.4,0,1,1,.8,0v.4h2.4v-.4a.4.4,0,0,1,.8,0v.4h1.5c.2,0,.3.1.3.4s-.1.4-.3.4H114v.8c0,.5-.2.7-.7.7h-2.7c-.5,0-.7-.2-.7-.7v-.8h-1.7v.4Zm.5,2.2c-.2,0-.3-.1-.3-.4s.1-.4.3-.4h5.4c.5,0,.7.2.7.4,0,.5-.9,1.3-2,1.9a9.05,9.05,0,0,0,2.6.6.46.46,0,0,1,.5.4c0,.3-.2.4-.5.4a6.36,6.36,0,0,1-1.5-.3,11.92,11.92,0,0,1-2-.8,11.86,11.86,0,0,1-2.8,1c-.4.1-.7.2-.8.2a.46.46,0,0,1-.4-.5c0-.1.1-.3.2-.3s.1,0,.4-.1a11.07,11.07,0,0,0,2.6-.7,7.51,7.51,0,0,1-1.9-1.7h-.5Zm1.5,0a10.92,10.92,0,0,0,1.7,1.3c.9-.4,1.7-1,1.7-1.2a.35.35,0,0,0-.2-.1Zm.5-2.8v.6a.22.22,0,0,0,.2.2h2a.22.22,0,0,0,.2-.2v-.6Z"/>
  <path class="e" d="M119.1,86.9V84.6c0-.2.2-.3.4-.3s.4.1.4.3v2.3h.7c.2,0,.3.2.3.4s-.1.4-.3.4h-2.4v1.5h1.3c.5,0,.7.2.7.7v3.4c0,.2-.2.3-.4.3s-.4-.1-.4-.3V90.2c0-.2-.1-.2-.3-.2h-1a11.38,11.38,0,0,1-.6,3.2c-.2.4-.2.5-.5.5a.46.46,0,0,1-.5-.4c0-.1,0-.1.1-.2a10.08,10.08,0,0,0,.7-3.9V84.9a.43.43,0,0,1,.4-.4.37.37,0,0,1,.4.4V87h1Zm5.8.3c.5,0,.8.2.8.6a2.25,2.25,0,0,1-.1.7,9,9,0,0,1-1.1,2.7,5.56,5.56,0,0,0,1.6,1.4c.2.1.3.2.3.4a.47.47,0,0,1-.5.5c-.1,0-.2,0-.4-.2a9.27,9.27,0,0,1-1.4-1.4,4.53,4.53,0,0,1-1.9,1.6.43.43,0,0,1-.4-.4.37.37,0,0,1,.1-.3l.4-.3a8,8,0,0,0,1.3-1.3,8.84,8.84,0,0,1-1.2-3.2H122a13,13,0,0,1-.6,4.6c-.3.7-.4.9-.7.9a.46.46,0,0,1-.5-.4c0-.1,0-.1.2-.5a11.23,11.23,0,0,0,.7-4.8V85.4a.74.74,0,0,1,.8-.8h3.7c.2,0,.3.2.3.4s-.1.4-.3.4h-3.5c-.2,0-.2.1-.2.2v1.5h3Zm-2,.8a7.51,7.51,0,0,0,.9,2.4,5.09,5.09,0,0,0,.7-1.7,1.76,1.76,0,0,0,.1-.6.22.22,0,0,0-.2-.2h-1.5Z"/>
  <path class="e" d="M128.5,85.6a8.13,8.13,0,0,1,1.3,4.4,8.22,8.22,0,0,1-1.5,4.7c-.3.4-.6.6-.8.6a.27.27,0,0,1-.3-.3c0-.1,0-.2.1-.2a3.32,3.32,0,0,0,1-1.4,7.64,7.64,0,0,0,.8-3.3,6.49,6.49,0,0,0-1.8-4.7c-.1-.1-.1-.1-.1-.2a.27.27,0,0,1,.3-.3C127.8,84.7,128.2,85,128.5,85.6Z"/>
  <text class="g" transform="translate(72.32 93)">107</text>
</svg>
